<mxfile>
    <diagram id="1M4mA4ldiGeE9upq-UnY" name="PÃ¡gina-1">
        <mxGraphModel dx="1365" dy="1835" grid="1" gridSize="10" guides="1" tooltips="1" connect="1" arrows="1" fold="1" page="1" pageScale="1" pageWidth="827" pageHeight="1169" math="0" shadow="0">
            <root>
                <mxCell id="0"/>
                <mxCell id="1" parent="0"/>
                <mxCell id="2" value="" style="shape=image;verticalLabelPosition=bottom;labelBackgroundColor=#ffffff;verticalAlign=top;aspect=fixed;imageAspect=0;image=data:image/png,iVBORw0KGgoAAAANSUhEUgAAAoAAAAKzCAYAAACOI7wgAAAgAElEQVR4AeydCVxTWZ7vfW+2nu55b5bX/V73TE9N13R19TLd1T21V1mrWlVWlZZaKoKyCai4b4g77uUubiAiuIEK7uIGioArLuw7hCUBAoQlJIQkJCT5vc+5ISEgwRCChOSfz+ea3OSe7Xv+CV/PuefeYUKhEAKBACKRCBKJBGKxGFVVVZBKpbQNCQbNqBMI0NRsX/3V3NyMuro60GPgCchkMu77S99Z+/oOUH9Qf1AMUAzYcwwMq66ufk4AKysrwf6A00YMrI2BpqYmEsCBdz+uBCaATLat7StKR99zigGKAYoB54uBYWy0j8/ndxkBLC8v50YB2We0mWfw9OlTpKam0maGQXp6OsrKyrpsLLaUSiXUajVtNmLQ0tJC31P6raIYoBigGKAY6FMMDGPTvmz6t/sUMHuftp4ZsNGtvLw88Hg8sNFS2ixnwP6zwdhRbPUcW8SFuFAMUAxQDFAMvIwYIAG0QnQLCgpQUVHxkib4HK+YkpISFBUVkQRaEXsv40eByqA/PhQDFAMUA44fAySAVvwRZgLIRrLoYR0Bxo4xpB8Yx/+BoT6mPqYYoBigGLDPGCABJAG0zuL6kYoE0D5/DOhHmvqFYoBigGLAeWKABJAEsB8qZ11SEkDn+YGhPybU1xQDFAMUA/YZAySAJIDWWVw/UpEA2uePAf1IU79QDFAMUAw4TwyQAJIA9kPlrEtKAug8PzD0x4T6mmKAYoBiwD5jgASQBNA6i+tHKhJA+/wxoB9p6heKAYoBigHniQGLBbCxWYLKejFK65rAq2tCuUiMmsZmp1zJ2dsq4O3PRJhwtQKuN/hoVLT3Q5McNykJoPP8wNAfE+prigGKAYoB+4wBiwSQXy9G8JMqfHG+GP8RkYefHsrBa0fz8P3lEkRkVPcoguLyNESdOIrw8HBui01Mh8hOhLGal4FzlxLBFzVaJbC9CeC0eAE+uVaJ/zhagIZeBFDbUIQL52IQHR3NbadOJ6FGoUL3909fewxxW08iqYOI9wxnO9KzfM5euwORrPPYFhEP12+ZSz94gkkCaJ8/BvQjTf1CMUAxQDHgPDHwQgFslkhwMluIvz+QjWHBmc9t/xyajbX3+M+JVNm1HXjzk8kIPh6DmJMHMX/6VKw/dgcsv5ceYM3lOLt9DS7cL4dE0oScW2GYMHk+ngnqrKrLiwTQ7UE93j5b2qsANqQcwLsjpiHs7FVcvXoV8bfTIQHQ9f3z2L5sFlZtP4em7r6mUSApdDmmzdqMs5dZHpcQvmcN/Ce74MzDSuigQcWjk3CZFoBCiaJ76kHdJwEchO/AYHzvqEyrfl9e+u8j9RP1E8WAU8bACwVQ3CzB8SwhfrQ/6zn5Y0L49weysOZuTwK4C59OCESGUP/HLu3sBnwxcQnSKgfhj58wAyu+/wy7rpXpO7m5CdVVQoitDPreBHBqvAAfXuHj99HFLxDAEIx0CQJP1tXFGlK6vt+QFYVxX0/HU2HnyB6XghPANVgTmgSFRp+HTqfCo9g1GDNpGTJqlYBOg5YWGbRdixj0PRLAQfgOWBnrJCPUVxQDFAMUA44ZAy8UQDZil13diO2plfgkpgi/OJyDnx3Kwb+G52Lk2SLseVLJnQ/YPUDKrnUVwNL4nfhs9DQk5QoRuWMZdoWEYH7AOlx4WIi62iokRO+Ev58HPDymY8macBR0TBcXJkRg5YZDiInahVnTPeDl7oYj8Tn6kcTmRhQ9vIAVs2bAw8sby/eeQ22zBPyMeKxauRKHDm6G79Id2LnWDb/7xU/x/rfu8N92Aun347Bq/U5kVdZB0liJ26f2wt/dA27e8xAWn4UmSTOqS7IRsXUOPDw8MGXOCtzM6JTc3gTwerkUEXmNiC4U9ypa3UXPcHCX93XtKLu5D9+6LENuU4flGQ7sQQDZR0pJORZ/9Rl2X8tDHe8+Nm4/iHKJEmpJCSI3L4Gvry885q9EXHa9PidNC9JvncJKHx/4+s7FzkOHsG3dHmRVKyBm6ddvwInI3Zi/8RgqmuqRFLMfC2b5wnfWDPxw5iF0OkApzMb21Vtw6sIJrPL1xbS5yxH3uBBPrh3HIsO+oTyAu4sKY9g9ZmjfMX9kqF+pXykGKAYoBuwvBl4ogIYRwDm3ynEqpwa3SkRIKRMhvqQOxzKFcLtaCp+bHSNrJqMMXQSwjo/wVe5wX34SxVVlWDHmFYxaGoLckjLUimoQs3MOpi/YjadFPPDyM7BrznhM23ASVaImPDm2EL/8jzexK/Y+eOV83D+/H+NdPRCXWY2qvHj4enoh9OJjFOXcx2JvN+yJy0R+8gl88Ic/ICg2BfxKIep4SZj/7XBsiUkHv6oGxXdPYPT3vngiqMbjM+sxxXcFktIK8fTKfnzntgCPSwoRvmAyFuw8h2I+D3fvJSIjW2AUlu4CWNmi5oSPSd/IC6XwvV2JT8/xcDhHL4J3q7sN83FTvQfx1seTsStCfw7g6aRsKFQaNKSYvB8Rhg1BQdh3NQsancH8Op7NCKBGIcHBWeOwPOox+M/OYazrbBRIFJDyn+Hm01KIxXV4eGYzpszaiRqZCuWJu/Cd+1LcyeZDLC7Hpe1z8NZ7Y5HEk6E2/Rw+/tOf8MO1NIglMmglFUhMTUONqBGVJffhP9kd1/Ma0cJLwtf//Qbm772BqoYaJB5ZgY/++AEC9t5AZcf+uI7yWO1pBND+fgjox5n6hGKAYoBiwLli4IUCyEYAmfS9cbIArxzJxX+dyMefTxbgD8fz8W/huXgnugDn82qMcmQIoLJr2/Ha797BxKke8HCZipmrduNphQQNwjKscB2OrRefokkiQS3/Lvy//QYxj9j5eQx+M/ipsRj79UzcKxPiybGl+HziCuTW6zumsZaPH7y/xbroJFw/vBhjfDYgM58HXmE2jq9xg9e608i4fQJffe2Oe4Zz/IQZCJzwqXEK2CiAxWnYOG0k5h64BR6PB15GAvy/G4WDt7MQvcoTU+Zux71cHqpFTV3aZyqA9Yp2ZDcouFG/00VisK1O3o6r5VLEFDfjSG4jrpVLIZJ3ncLteq7fVdxO53Fm1/n+JYQEzcV3fttQLVF1sz8AvQngnO+x5tQTCNI7BVDVUof81KvYtMgHbt99jv/8jImhECcWTMDCsEcwjC+2CBMwbaSLUQDHjPVBRrP+HEKNSo5qfjY3kujtOQ1//tNfEJrEg4SXhMkj3BHfIbqSwgR8/4lLl/1J38xEaoNehEkAnetHxvCbQM/U7xQDFAMUA/YTAy8UQDYCmMpvQFR2DbcSeO7tcnhcL8WSpAocThfidE4NbhY/v5iCjQB+Mn4JUgr43IiPsK6BkyhOAD0+xe6rGZwACsuuwePTCbiaITRKVmN+IqZ8OQPXOAEMxGi3XSjuGF1sqhNgt+/3WHEsARd3++KNN7/AdL9ZmDVrFmb6emFndCLykgwjfB31MieABQ+x6Is3MPxbTy79rFkzMXP2XFxKq0FtRT7C1s+Aj88UTFm4B+m8auMCFlMB9EoQwO92Jf4UVcQ9s/3Rl8rwm+MF2JUugnuCgLskzG+OdV0V3GWq10TvTN/XNRdjo//X2HTyGZQmx3AvzQhgW30WFrp9i+hHlagxCGBDPU6tngi3QNaOWhQkHsFXk5kAliPEayyCYguMucsaUuBnIoCGEURAh+JbIXBz98KZu0WoqyxBgMdIowC6jPRDSofgyXhJ6G2fBNB+fgDox5j6gmKAYoBiwDljwCIBPJYl5Eb8pl4rxfr7Aux+XIWgewJMusLDb47mYdo1nlHeDIHUZQrYZGq4uwDWVWYjYPJX2Hr2KRq548R4dmU/JngFIlNYjyfHAvDh10vxtFZ/zcHqohQs9piE0PgMPD2/GV97LUeBQC+X9aI6NDY3m0zxdghgTSZWTfgUO+JKuXoaRwDLCxEROBmzDt7qkLsmVAtqIZY0obq6nju2viITK9zGY9mR26hr0geJqQD6J1Zyiz2SKmWYlVgJtp/XqMS4uHKsT63FuZJm1MrbMeFqeZdFIaaiZ7Qvbmq46yIQwYMIjP1mJu5Xd1vJ24MAKmV1iDsYCI+FwRDKNdwULidwwlxsdBmJvYm1ALTIT9iPkWOZAIpwYe00TN10EXI2xaxrR/mdEHz0yXjjCKBRADUKpITNxbSVpyBTAdLqp5gz7jMSQJPYNsQ+PTvnjyn1O/U7xQDFwFCKgRcKIGsMu/DzsuQKjDhbhP8blsOtCGargj+LLcIPjypRUtt1ipSlsVQAJWIRHsRug/skL+w4GIKQvTvg7+WDyPhn3Ajhk2OL8NqvP0PAxt04HB6OAA93LNkahdJGMSSCTOxaNg1z1h9AeHgIfvhhO249LEWR8Rw/w8ikABfW+8F10TYcufoQWbePdZwDWAfevTOY6umFoN3seoU7sWnHGZTU5OPo1h04dPCQvj4z/RD7sLDHEUCDALJr/rHXhv0Ztyux4bFeAJngGd43yJ7hXL+dR6IQFRWF6FOnUFAjR3cxVMvqsMd3NLzWn0WD6fUAOQEMhKvXChw7GYWoExHYuXoplv9wAsUNMjCfY+fwcQLXXItrwUswZe5WHA0/gOUzvsQfRurPDRRlXMEEN3es/CEEUScjsH21D976YNzzAgg1yu9FYvKEGTgSeRw7tgTg/XfeIwEkAXzuP39D6QeQ6kp/sCkGKAacNQYsEkAGp6lZwt0F5EZxHWJza3AxvxaCejHYFHFP8ESl2biR+BS1HaNmhmPEjSKk3buBfH6tSbomFDy+jdjYWMSeu4DEpyWc/LE0T44FYrTLRly5fZ37/OLlu6g0+aMrKs3Up4uNRVxCMqrqJaivKkHSvccQ9XDc5buZEJl+Lm5ESdodYx53M9loZj0yk+J7rA+rk+kI4OK71fC5JcDUm3xMvyWAYf+zczzu/L8xl8u4zz8/z+syAqisL8W1a9eM282E2+BLAGV9Oe4+LoTccFKeToMmfjaSH+V3nQbueD/BmMf1rukAtElr8TRTn04lrULKtWu4Hn8LWSV84/vsUjEsfy6fhLsoyLuEOd9Nx5NqTZf0nLhq5MhLTeHqfD+rBEUZd1EplkMjb0La41zuOobsuBft0xRwz98Zw3eEnokPxQDFAMUAxcBAx4DFAjjQFTGXPyeAJucAmjvuZb5vKoDydi3ESg23NbdpYLrPRuEMn7Fne3zIqzKRX80uQc2uIdOEi3sXwW1xGGq6zTjbsu4kgPTD9jK/r1QWxRvFAMUAxcDzMWD3ApgW8wOmzDiAEpPRvMHuSFMBtKUYDUZeoqyz8HGfCR8fH/hM88Lc9SHIED635MSmVSMBfP6LONgxTeVTn1AMUAxQDDhXDNi9ADY3iiDgFmbYT8c4kgCyhR9SsRjijk2m6OGSMzbVP7oOIP3I2s93mfqC+oJigGLAWWPA7gXQHjvGoQTQxnJnSXY0Akg/uPb4vaY6UVxSDFAMOFMMkABaMbVMAmiJ5pk/hgSQfmSd6UeW2krxTjFAMWCPMUACSAJo3tQG6BMSQPoxtMcfQ6oTxSXFAMWAM8UACSAJ4ABpnvlsSQDpR9aZfmSprRTvFAMUA/YYAz0KYF5eHlJSUmgzwyAhIYG7vZ15xaFPeiNQXV0NxpBijL5jFAMUAxQDFAMUA4MTAz0KYG1tLVQqFW29MNBo7PO6fr2Jlz19RvFF3y+KAYoBigGKAYqBwYuBHgWwrq7OnlyB6kIEiAARIAJEgAgQASJgQwIkgDaESVkRASJABIgAESACRGAoECABHAq9RHUkAkSACBABIkAEiIANCZAA2hAmZUUEiAARIAJEgAgQgaFAgARwKPQS1ZEIEAEiQASIABEgAjYkQAJoQ5iUFREgAkSACBABIkAEhgKBYVKpFPX19RCJRGAXKhSLxaBVwEOh66iORIAIEAEiQASIABGwjsAwnU6HlpYWEkDr+FEqIkAEiAARIAJEgAgMOQLDWI1lMhkJ4JDrOqowESACRIAIEAEiQASsI0ACaB03SkUEiAARIAJEgAgQgSFLgARwyHYdVZwIEAEiQASIABEgAtYRIAG0jhulIgJEgAgQASJABIjAkCVAAjhku+7lVnzr0zp8famMNhszcLlegQZF+8vtTCqNCBABIkAEnJ4ACaDTh4BlACZdq8ArEdnwjC+gzUYMPjuXh5+G5ZIAWhaCdBQRIAJEgAjYkAAJoA1hOnJWTAAnXcsHIKDNRgzOlfBIAB35S0NtIwJEgAjYMQESQDvuHHuqGgmg7cWXBNCeIpzqQgSIABFwLgIkgM7V31a3lgSQBNDq4KGERIAIEAEiYHcESADtrkvss0IkgCSA9hmZVCsiQASIABGwhgAJoDXUnDANCSAJoBOGPTWZCBABIuCwBEgAHbZrbdswawVQqxPgPI+H4/klPW5RBSWQqvho19pesKxfsFKMwuQTyCzLHtAFL3QOoG1jlHIjAkSACBABywmQAFrOyqmPtFYANz0uwl/tzcSw4J63H+3PwsbHRdDo+iOAxXhwchm2nYiBwiYrdNMQ4jUKQbGJJIBOHfXUeCJABIiA4xIgAXTcvrVpy6wVwMnX8vHqySL8JrqY216LKsY/heV22Xe9UdBP0SpB6oUfsP/8VShJAG3a75QZESACRIAIOCYBEkDH7Febt8paAZwWXwj3+yL4pTZwG3v9+qkSTH9Ub9xnx3SZrtWVQSxKR21tGmobC6HtkDpZcw6UujI016dxnzU050PX8ZmqJR0SeSmXj0ZVhLo6/TG1khJj3l3er81DexdZLDfm2yS5j4OmI4Bm6tMlP5NyurSlSxldRzlpCtjmYUoZEgEiQASIgIUESAAtBOXsh/VHAIdfrsCncQJue/9iBX4RWYBP4vjG/a4jgHzUZkditpcr5sz1gLe3By5lpkKjyMXhxWMxacYcbFrli4ULvOHpOR7H7qVCpRHgXrg7Zuw4Apm2ELeOBmLuvClYsHAqpq3aiWZZKXTaTFzZv6zjfR/Mcp2EQ9cuoqVdALTn48GFzZg9fSIWLpyBVWvnYPLw/8Yqbgq45/rozJRjqfyx40gAnf1bRe0nAkSACAweARLAwWM/pEq2VgC9EwrAFnrcrCjltrMlPIyPy8cNk33/xM4pYLU0BZsXTEBwXAKAchRdWYHv5m2EoCkXobPfxsiZq1DWIoBOU4rsy8sx3nsueJJipIRMgktQCOqarmDhmK9wrbgIAA9CYRaXz+PouZg2czl4zcXciGBN3nF4TpmIKwXZqM89hmlTXXAhJx1ABaSCs/D//A2sjk2EufoUV/dUTtcRvhfJIAngkPoKUGWJABEgAg5FgATQobpz4BpjrQD63ylEg4JvnIZlr/1uF6C9Y9EH2zcVQElhGMZ/+AHW7tmJ48d348CGafhk1Pd4VsEEcCzWxsZBZZgSLonB5FGuuNdQYBTARulDhMwZA6+F8xFx7jgqm9gUcBrCfL/Aquh445SxVpmLw/MnYtPFOKSeD4Dr7I1oUpR31DMNBzxHcotAzNXnEa+nckgABy4CKWciQASIABGwJQESQFvSdOC8rBXA1NoyBNwrBBsJZJvbjXz8OSrHuD/jdgES+Ppz99iImaT4CMZ99DH2RZ/AzZv6LSX1OiQSJoBjsDbmmlEAJYXRcBnjiQcmAiiDACppOh7dicTeoGkY674MxeJURPiPwqpTbFRRL2laZQ4OL5qMH85fxpOLSzDRJwhigwBqnmCXQQDN1KdF1VM5+tFFQxkveqYRQAf+wlDTiAARIAJ2ToAE0M47yF6qZ60AMglqbuP3upmKklJyH2t9v8C2K7e5c/t02iyU5D9Bm4IJ4HB86b0BgtZS6HRluHXIHz4bd0CsKjeOALboslBezqZ9BZDzovH9eBckVRYg6+IifOe7HDl1BdwoYNWTPfDxmIqk0kzUpR/EmK+/RmzaIwB81D4NwRdvv4bA2ESYq4/KTDmmbXnRaxJAe4luqgcRIAJEwPkIkAA6X59b1eL+COCLRKjL59oyiNLCsGCOK7y9J8HbdwJCzidCxQngF5g8aw4CFnvCY9r38PKcjbR6/fmDj076Y8a2cNSKr2KlyyQurZvnVGw6eRpyblTwMc6HLMMsjzHcZy6e3jiTlKwfTVTl4/6VjXCZ+D28p7ti1fZVWOH9LbZdSgLM1EdippwubellBTA7jgTQqlCkRESACBABImADAiSANoDoDFm8NAHkpIkPRWs+mptzuU3RLuBWAbNzANefvYKmjvclkmLjJWI06mJIZDzoUAF5x+csvVJtOK9PAOjKIZPq82yWdl5ehpM2XTlaDPnKeFApCiFrq+iYMn6+PmyxiNlyXiB+BkkkAXSGbw61kQgQASJgnwRIAO2zX+yuVi9XAJ9fTMEuA8MJ4LnrxnMADSI1VJ9JAO0uzKlCRIAIEAGnIUAC6DRd3b+GDrYAapX5uHN8Ey4/eQCNhSNs9i6GJID9i0lKTQSIABEgAtYTIAG0np1TpRxsAbR3mbOmfiSATvUVosYSASJABOyKAAmgXXWH/VaGBPD5aWlrpM80DQmg/cY71YwIEAEi4OgESAAdvYdt1D4mgK9G5sI7oZg2GzH49Fw+fhqWiwZFu416ibIhAkSACBABImAZARJAyzg5/VFMACderUBzm4Y2GzGIzGskAXT6bxYBIAJEgAgMDgESwMHhPuRK1U8Bs8ui0MNWBM6VNJMA2gom5UMEiAARIAJ9IkAC2CdcznswCaDt+54E0PZMKUciQASIABGwjAAJoGWcnP4oEkDbhwAJoO2ZUo5EgAgQASJgGQESQMs4Of1RJIC2DwESQNszpRyJABEgAkTAMgIkgJZxcvqjSABtHwIkgLZnSjkSASJABIiAZQRIAC3j5PRH9VcAdVoNspJjceLyQzQpu1/2pB38Z/GIjrmMoroW6JyENgmgk3Q0NZMIEAEiYIcESADtsFPssUqmAtiq1mJXughbntRBqwMu8CTwThBgzcMaCFvVCLgnxPRbArjd4COlSsY1Ry7Ohd+f/jf+16tjkVgh6dZEGWIDR+MnP/8zQpN40HT71FF3SQAdtWepXUSACBAB+ydAAmj/fWQXNTQVwMe1cqxLreUkT6zU4EyRGCJ5O3amiXClTAJJmwb18nasT63Fk1o5V3+1vAHnds7Fos3HUSXvPgJIAmgXnUyVIAJEgAgQAachQALoNF3dv4aaCqBGp0OdvB3+iZVcpmzKltfchnlJVUgTybltxu1KbHhcazKdq4FYVIOammYY9K9V0oiamhqIGqsQs4xGAPvXQ/aX+m61DF9dLKVtABgYRtbtr9epRkSACAwVAiSAQ6WnBrmepgLIqsJuX2YQwJwGJRalVINJX3huIyLzmhD0qBa/P1GI1JpWruYKSSEWj3wVr/zaHQ8aZJDxUrDU7SP84z/+I/7tj29jxDu/xd/+jKaAB7mbbVo8m+L+q72ZmHI9H9NvFdBmAwae8QX48YEsMLb0IAJEgAj0hwAJYH/oOVFaUwFUaXTIbVTCI57PiSATv1NFYvxreB5eO1aAXWkisOOHBWca/1ApJAWY/e4/43//dDxS6spxZO63+PHfvoLpqw7g3MlgjPzDP2HY/yEBdKSQ0p/jmIUGBR+AgDYbMGAsfxpGAuhI3xNqCxEYLAIkgINFfoiVayqAlS1qbgGIzy0BLpdKMOdOFeYnV+HHB7IRnFGPXx8rQEh2A3ebM8NIRRcBzL2LKZ+8hp+/NQbJPDZCKEPU4lG0CGSIxcSLqksCaHvpJQF8UdTR50SACFhKgATQUlJOfpypAPaEgk0J/zQsF++dKUZodgMnhWZHAPPvw+2j/8RP//glbpfJoVULscfjE/yIRgB7Qjtk3yMBJAEcssFLFScCTkCABNAJOtkWTbRUANk5X+E5jb1PAVeX4uCM4fjx3/wME+dtwMFtgXjrVZoCtkU/2VMeJIAkgPYUj1QXIkAEuhIgAezKg/bMEHiRADYpNXg/pgSvRuZz1wR8I6oIv4rMx/UKKZejQlKMVWP+gN/9aTq3CKSuIAXzxv8Jv/jFL/HuF26YN/07/OaNkTiSUkrXATTTB0PtbRJAEsChFrNUXyLgTARIAJ2pt/vR1hcJIMu6RaXhrgHIrgNo2NiCEf1DhzaZBBKJzHgZGLWC7UsgkbaiTangXivVznIZaHALZNi0OZs+d8SHLQRQoxMgtpiHyLySHrfj+SWQqvho19petuxx4QqdA+iI3xRqExEYHAIkgIPDfciVaokADrlGDXKF9YJEAtibaG14XIT/uTeTW1HOzintvv3d/iywY5go9paPo3xGAjjIX1oqngg4EAESQAfqzIFsCgmg7emSAL5Y2iZfy8d/nizG69El3Pab6GL8U1hel33XGwVOIX9MYkkAbf89pByJgLMSIAF01p7vY7tJAPsIzILDSQBfLIDT4gvhfl8Ev9QGbmOvXz9VgumP6o377BjTET6NqhC1Nc9Qw7bmYuNnypYc/Xt1WVBrDdcmLIdY1HFsfTa0OsP7AkgaX/B+TQYUxnwEkIizoFYXQtRRdquqwlh2mzRNX3bNM0gUZcb3TettyWsSQAu+WHQIESACFhEgAbQIEx1EAmj7GCABfLEATo0vxIeXKvBJHJ/b3rtYjp9HFuDjK537U0xGAHXaAsRHLsPc+a5YtNgd01btRLOsFFppMg6udMcMP2/4+k3F8ohoyFTlkJefQtASLyxe7AvPmW7YFRMHZXspeCkHEeD/Heaz95fMR1J2OoBiZF3ZiyUz2ft+8PecioVrN6CkqQQqWSa2zHwfrgsWYNWSGVgyYwzm7QlDk0IAaU0StgdOxcz53lgY6IGNUVdJAG3/daIciQAR6CMBEsA+AnPWw5kAGlb4eicIuJW+9Nw/Dp+e43HXTqRFIOZF0DuhAKcKeUjgl3LbeR4PE67md9n3T+ycAm5tuoKFY77CtaIidodq1NRkA9oCXN/rCa81O9GsKIeiPBaekychsSQXKslT5FdmobbmCWSuzpAAACAASURBVJ5eCcI4D3+USR7j+PwvsTziKtpRgZaWTMhkpagvOAEfd1ece5oKDQRQtaQidOm3WH7qCieA6ye+iinrDkKiEaCl8iLcJo3G5dw05Fxdianey1GjFKC9PQ+VlfkkgM76Q0rtJgJ2RIAE0I46w56rwgRw4tUK4+pewypfeu5c8dxXFuyeybQK2Lz8sSlR/zuFXW4lx6ZA/W4XoL1j0QfbNxXAtpZHCJ03Fp7z5+JwzDEImooB2V2snzIcbgFBiIzcicjQ5Rg3/E8IuZeJ+vwohOyah4CF3vD3+Ar/9YUHCiS5eBSzDtOmTsL2sF24k/sUQCnSzwfAdfZGiBXlRoErvbwc42ZuR5UsE+t9h+NAYrJeDmUZCJo+HIeSUyAsPIXlrp9j+a7NOH7rBuSqzvSWTPuaHkNTwPb8K0l1IwJDiwAJ4NDqr0GrLU0B2x49TQH3Ln9MfB7XlmHpvUKwkUC2ud3Ix5+jc4z7MxILcFtQahQylkbVkoHHyUexb507xroHoKgqEZumvIuZm/YgISGK2xKTzqKy7gn2zvgYiw+e5EYGhc9CMGYKE8BiaNt5KE2LwqWoNRgz3h1nn95H+uUATPQJQpNRAPnIj1mM8TO2opIJoN9whCbd7RDArvuNFdeRELcXi33GY+2haMitvC8wCaDtv4eUIxFwVgIkgM7a831sNwlgH4FZcDgJ4IsFkAmdpI3f62Y6QqbVZqGsLIsTQnlJNL4f74KkyizcD/eFS9Bu7pw8di5fYVoKpJK72Ob2CdZfvAudthTxIdPwl1FMALNRVPQEKlU5dMoc7J33NdbFXkV9STR8Jo/FqXvJaIcAisYkrPcZhw2XbkJpVgBTIGp8iiY2EgkBck7Nwjez1kPYZlnbTdvGXpMAWvDFokOIABGwiAAJoEWY6CASQNvHAAmgdRLUXYpM92Xiq1jlMgne3pPg5jkNW6LOcKNtbXVJCF4zFROnss/GIWB7KBpVpciP344pk76Ht68rlgVMhYuvP4okqTi9aS5meU+Cp+ck+K9cjVK2mlhTjJz7R7DEZwI8OvLfHH4CYjbqKMtE8LIxiEi5ZxwB1O/fQXbyTsybOI6r05TpPjj/TH8OoWm9LX1NAmj77yHlSASclQAJoLP2fB/bTQLYR2AWHE4CaHsBBCqgkORB0rEp1Z3n2+nUxcb3ZQqeftpYVw5Zx7GtbeWQy4ughQBqZZHxWGlrKXTGKVs+2mQ9569W5MG0PMO+TldmLEPSos/fUuHrfhwJoAVfLDqECBABiwiQAFqEiQ4yJ4DsRm8tbRo0tqrRJFejVaWB4eZvRK13AiSAAyGAjp0nCWDv3yn6lAgQAcsJkABazsqpj+xJANvatUgubcbCSzx8cySH25ZcKcW9MglUGq1d89JqRHiQkIy6lsG7Dy8JoGPLWvfRO1vskwDa9c8KVY4IDCkCJIBDqrsGr7LdBbBdq8OF7AaMOpSFt/ak4cP9Gfg6PBtv70nDF2HZOJ0hglrzMsYC2yBpkkDXx6JkDSnwG+mCJJ6sj1CtK6+nQkgASQD7KoUkgD19k+g9IkAErCFAAmgNNSdM010Ac2tbMS4yl5M/JoAfhebixLM64/53kbkoEMkHnJSsMh6L3RcgW9S3oqwVQGvL66l2JIAkgCSAPX0z6D0iQAReBgESwJdB2QHK6C6ABx8I8e7edKPwDQ/JxbnsBuP++/vSceiRsFvLtZA31UIoFHKbRKFGm7QWYokUtTU1EMvauOMVLU36Y2oboNIahvY0aKrTpxOKGqHR6qBpa0VhymGM/2ISrqULwfJjj57TA2pFC2q4smtRI0yCb68jgJaX162RFu86gwD+3f5MeCUUw5s2mzBwu1GEYcGZYLFDDyJABIhAfwiQAPaHnhOl7S6Aa29WcNO9bPTvreB0LLxSgWv5jUYBZFPB7JjOhw41hclYOm825i9YiEXL52Bj1DPcOzwTo6f6Y82WHxB5MwcKSREOrPTHjBnz4ec3E4ERCZCpNJCX30bQknlYsmQxvGbOwM6YpxCVPsO+5ePwu1d/C/cFQYh+WA6tmfRaWRkid67GgjmzsWRJAFYt9MPI98aZnQK2tLzO9vX9lTMIILvTSamkDRKVhjYbMGAsGVMSwL5/3ygFESACXQmQAHblQXtmCHQXwD13qzAyNAvjjhUgOr0em+9Uw/tMkVEA3wlOx87kSmNu7Yo67A+YgtUnH0ADoL1dispKKVL2uuGj71eiWKYCtDJc3zsXXmuPoVnRDkV5MrwmeyGxRAK1RIj8ygbUCKvw5PIejPMIRKlEAUlBLFzHeiG9Fr2kb8SjyCWYNHcXKlk5UCH/ejA+/2yiWQG0qDxj66x74SwC6Kj3Orau1/uXirEkAewfQ0pNBIiAngAJIEWCRQS6C2BalQybbvFx+FENJhzNBZvyfTs4zSiAIw5l4UGF1Jg3O3du3kRvPKlm+tf5SAnxgsvqM2hhb8l4WD9lBFyX7kFERAQiDm7BuOFvIeReA0T58Ti4cxWWLVyA2Z4T8F9fzEZBdwE0mz4Xh3zGYfWpHOMlamT1SZjeyxSwReV1NsOqVySAVmFz6kQkgE7d/dR4ImBTAiSANsXpuJl1F0CFWovQh0Ju9S83Dcymgju24QcyEHy3CiqTVcCS4stwHeuOtBrDOX16VpwABsWCW4srL8emKR9j5uaTuHXrFrfdSb6Lyrpq7J3xBRYfjEezQgPhs1iMmdKDAJpLLxXhsN9YrIzONnaQrDoenuYEUGFhecbcrHtBAmgdN2dORQLozL1PbScCtiVAAmhbng6bW3cBZA2VKjU4mVaHKSfzOREcvj8DLifyuffYFK7po01SjiC/7zDvSArkKg202gaUlTWiiwBCifvhizE56BiaFCy1AoVpJZBKeNjm9hXWX+RBp1UjPmQW/jKqQwArrsL9a3c8rmLlmUmvlOFh2EJ86rcNJSxjtRTxwXPx2rtjep4CbquwsDzTFvb9NQlg35k5ewoSQGePAGo/EbAdARJA27F06Jx6EkDWYLVWh/ImJdKrZNwmELfBuHDXlIi2HfWlSdiwkN1j1RvTZ3gi/Ho5UqOWY9aOy2jtOLatrhDBa2Zh4lRveHtPxbLtZ9GkUiE//gimTPLAdF8/LAuYiSl+gSiSKNDeWo2jK/0w3n0mDtzIQc/pgbb6YuzfuBBuE6fC238ptu7dAq8ps5BSaijZtLKWl2eaqq+vSQD7SoyOJwGkGCACRMBWBEgAbUXSwfMxJ4B9bbZaKYdEIuE2ZTugVSshbVUZz81j+enUCuMxrQq2aIO92Q5ZR7rWNg3kcjkM9xoxHC9lGZpLz97XtKGF5SGVQqlWQyGVmr9YdR/K4wq14h8SwBdDE+XfQtSZiyisbekSIyyltKYQF6IicfNJKbqON78436F6BAngUO05qjcRsD8CJID21yd2WSNbCaC9NU7ZUozQpQvg7c1GHPXb3LW7kCXk5qAHtLrOJoDXK6SYeLUCTGKe1smxILkaMxMr8axOjoi8RngnCOB7qxJbntR1cJfg1IIR+NGPXsHa6EdQdFk/pAEvKRR//vlPMDqw4xzSAe0t+8icBNA++oFqQQQcgQAJoCP04ktog6MKIKDlRgKlUilMt5dxGztnEkCxUoOtT+sw6kIpJ4CXSyWobFFzIrgopRrKdi2a2zQIy25AaHaDMaJz4w9h7tINSMyt6TYCSAJohEQviAARIAJWECABtAKaMyZxXAEcvN50JgFka7/ZqnD/xEpOABl1mVqL7c9ECM6oR4tKi8D7QnglCNCkNAz1aSFvrEV1tQhyTceEf5sUwupqVFcLkHHzAI0ADl74UslEgAgMcQIkgEO8A19W9UkAbU/amQTQQM8ggOI2DTY9roPL9QrszajHkdxG7E4XYXhsCTYbp4BluLBmAv71//wF2+OyIZfWIHqLL37+s3/Bv/z83/DxV1/glX+mKWADW3omAkSACPSFAAlgX2g58bEkgLbvfGcTQHb+2ozblShpbsO61FrsSBNhfFw5fnIwmzsXcPl9If5qbxZYrOkfMsQGjsZP/uZVrD/3BGlX9+APP/kx3vpqIc5cv4xlru/gf/4NCaDtI5NyJAJEwBkIkAA6Qy/boI0kgDaA2C0LZxJAebsWx/KbMCepihvtY6N+7Ny/3xwr4BaGTL5ewS0CGXulvGcBPH0XpzdPxo/+4V+w9mwRtNCgKH43/vh/SQC7hRXtEgEiQAQsIkACaBEmOogE0PYx4EwCaI4ei6ufheWCjf4xKWT3ue1xBPD0XcRsnIi//Yd/wYqYfOigxtPYdXjt70kAzbGl94kAESACvREgAeyNDn1mJGBOANu1OuTUtOJGYRNuFjYhS9ja5RZwxgzoxXMESADByd6w4Exu8cfJgiaw1z0KYOxDPI5dj1f/4e/wu+Fe2HlwDzy+eB1/RVPAz8UVvUEEiAARsIQACaAllOgY7o9y5x9mPZC6FhX236/Gt0dyuFvBfbg/A2Mjcrn7ADe0qgeIWjuKU6Kwee9lSLpeGM4m5SlbcrB3zXZkVNF1APsL1BLBZSN/r0TkY8zlMnx7uQz/HpGHhSnVHUXLcW37dLz+q/ex42ImZC31iNroit//+t/w699+iDlL5+HjN36LqZuuGO8k098623t6ug6gvfcQ1Y8IDB0CJIBDp68GtabdRwDZdds23xbg/X3peGtPGj48kIXZ54u51+8Ep2NDAh8yleFyHrasugrp59bDdXZorwKo1YjwJPE+GvvocbKGFPiNdOn5HsG9NMOa8iwRpF6KtPuPLGlfm0YHqUrTZWOXhzE8NCoFd31GpUp/rw/uzjHcNRtlUGk0aG2RokXe9U4yhrSO+EwC6Ii9Sm0iAoNDgARwcLgPuVK7C2BiSTM+DcnkhI8J4PCQXJzLbjDufx6aheTS5gFop2UCKC29BO+xXkiv7VsVrBVAa8qzRJD6Vnv7OtrR2zcYtEkAB4M6lUkEHJMACaBj9qvNW9VdALfeEeCd4DSj8HUXwHf3pmNHUqWxHjqtDA+Tb4PfMSRnuq+WCnHzUjIKeFk4fyIc4eHhiE/no3MAUY2Kx9dxPDIcEZFnEHt4hXEEkMsnLopLE34mjstf0VCOqB1+eOuP72PVrgjczmFTijoICx7iRHg4wk9e6HJvWamwoKPck7h5PwZeI8yPAFpenrHpZl84uiA5evvMduwAfkACOIBwKWsi4GQESACdrMOtbW53AVwXX4G3g9Pw5p50jD6Si/W3q3A5t3ME8O09aQiKN1zPDVBICjDbdSzOdQzJme7LeEkY++4f4b58J87fvI2r0Qcww+M7nHpUDWhVSL2wG9NmBuLMpeu4eS0K87/5AJ92TAG38O5g3+Eo3L59E4e3L8HcNVGora9F8ukgfPHJNwg5l4KsKgnqc65gqb8/9h2/jOiD6+EesAvVUhXEhVcx338eth+Jxe3bV3BwhSfe/Mtos1PAlpUntQizowuSo7fPok628UEkgDYGStkRAScmQALoxJ3fl6Z3F8DIJ7XwPF2IHcnVOJddj2mnizHqUJZxRPC9vekIT60xFmEqfOxN030mgBM+GYGIVCE07J5h0OH+4dlwXRkDUUsRVnlOwIn75fp7wWpbkXhgDsYazgHUqlHDz+NG8Hau9sN7Y+ahSKKApCAWroYpYHU9Di2aiGXHUsHd47chC3MnjENMZjUurpuGWTvi0NKuP++soegCxo+YbFYAYUl5xlb3/sLRBcnR29d77w7MpySAA8OVciUCzkiABNAZe92KNncXwIomJdbcKMe8CyX4oGMhCDsX0LBNOZkPXkPnCgxT4WPFm+4zAXQZ6YeUBpmxZgWxQRjrFQLec4syTM4BlCuRenoDZi5chEOn4hAbsgafjJ+Ngu4CKONh5dh38clYL3h7e8PbYwo+Hz4c4Q/zEOI1FkGxBcZyez0HUKu2rDxjbr2/cHRBYu37u/1Z3CVevBME3IWe6bl/HNxu8PE/gjPB2NKDCBABItAfAiSA/aHnRGm7CyC7/h+77t/YyFxuKtggfuyZXQomoUgMrY4bzuMoKSUVWOL+NU6mVnIjeYrmNHh/+y03JawXQFfcrDJMnapx7+BcTFwSjerGJ5jxxXe4mFWvHwHUtSHlyAJ8y0YAG4qwceqXCL5Rzo3sVaZGYfT3PQhgWzUOzP4Wq0+ncStKpdwqUimU7Y04Nn88FoQ9hH6NKdBSdA5jP5vY8wigjGdZeRbGhTMIILuwc5lE1WWVb/dVv7TfdRV0bzwYS8aUBNDCLxkdRgSIgFkCJIBm0dAHpgS6CyD7jEkgu/Dzplt8uJzMx+QT+WDnBmZUy7jPTNNrlRLEbHCB+4ZjKCovxY1jq/DbP3xkFMAx77wJn6Bo5FZVIe/BFSz29EJUZg00igacXOOGz2ZuRVZROYozbmH2iN/jfSaAsmocWeSKWXtuooKXj8MrvsZ/fKQXwBbhXcz81gUx93kQy5UovrEPY2euRHJOFaqq8hAf9xC1klYUX9uL98fPwKnkHFSV5+Jk0FS8Yu4cQE2theVZdg1EZxFANm1JD9sQoClg23CkXIgAEQBIACkKLCLQkwAaEqo0OsjVWrSqNGhr1+pH6gwfmjwrhVnYt2UFAgKWIizmPA4d2I+nFRJwI4Cfu2HviUNYExCApUt/wJWHRVB1pNXJBDi1bwsCAwKwMeQM7sVHI+J0MldWU+l9bAxYhuVrN+LU+XMIiTiNurZ2QC3Dw9i9WLhiHU49rADaJEiJ3YtFSwK48o9ef4Y2dplCtQzPrkdixaIlCFgXjBv3buHwzkMoqGszqXnnS4vL60xi9hUJoFk09IEZAiSAZsDQ20SACPSZAAlgn5E5Z4LeBLC/RHo6B7C/efY/fRvqq6tRVcVGDPVbTX1TxyKV/ufOciABtA1HZ8qFBNCZepvaSgQGlgAJ4MDydZjcnU0A5eIiRK5dhYAANmKo39YFHwWvoeeRQWs6mgTQGmrOnYYE0Ln7n1pPBGxJgATQljQdOK+BFECNohnZ6YVocWB+PTXNmQVQrtKisVWNepkaEmV7lwVDPbGi9/QESAApEogAEbAVARJAW5F08HwGUgAdHJ3Z5jmjALJ14SUNCmxJFGD80Vx8eTibu57k8Wd1aGi1bPGMWaAD/oEcebfikMZrHPCSzBVAAmiODL1PBIhAXwmQAPaVmJMeTwJo+453RgHMEsrgcaoQ7wSng10sfPLxPO718AMZWJ9QgeaXsmJYA0mNEHJ152WKLOvd2ueuG2lZOmvLez53EsDnmdA7RIAIWEeABNA6bk6XigTQ9l3ubALIpnoD4sqM14388+4MRKU3YGTHHWTe35eB0xki/d1abI+7M0d1JfbNmIyj9xs637PolZUCaHV5z1eKBPB5JvQOESAC1hEgAbSOm9OlIgG0fZc7mwCmVcm63C7wjd0ZiMlqNAogu4j49JgitHDX5+nkrVZIITSsxm5qRXubDMJ6KaTielTVSfUrs9tbUdtxTGOLsiOxFq2NNcZV3GK5foq5mf8AyyZ+jk2xmahqatVftqjH9CybdjTW6leBixpLcMCz651jOmvJXvWhvK4JLd4jAbQYFR1IBIjACwiQAL4AEH2sJ0ACaPtIcDYBTC5t5qZ9meixKeCvjuTjbrm0iwB+cySHWxRioK1tKcWR7auwcN5cBATMgfuqYyi6exqTvh2BZRuDsDH0MupljbgdvhrTXGdi6bLF8A3cg+JGBSCvxuHd67B4yVIsWTEb/msjUVlbj5uHF+D9//w5Pp88G1uibkMhF/ecXi1BSsw+zPaZjoCA5VizdjkmfvAuVpncOtBQT+7Z0vJU7AKU1j1IAK3jRqmIABF4nsAwdo0zPp8PkUgEiUQCsViMurq654+kd5yawMsUQE1bKzfCo+nrKVpDrIecTQCfCFowKiwLo8Nz8cOdKhx4WItZ53h4J7jzHtLupwpMRgA1eBixGFMW7kWVjF0WXIXaWjFq08/hi/dG4ERmDTfqxn8UBTe/AKRWyLg7x4QHTMOK46lQKGTg19VzI3i8vPuYM340jj/kQyPjIchlJEJS2BSwFubSCzLjMG2aLy7nibjjZFX3MWfEu1htTgBVlpTXvyAlAewfP0pNBIhAJ4FhxcXFYBsJYCcUevU8AVsLoE7bggfx11FQK4W2W3G16efhMn0piiSKbp841q6zCaBIpsbWRAFOPKuF/7lifHIwE6b3kH53bzoOp9Z03kZQXYng6WOxL0HY5e4yTADHuvgjj8WHRoHksPkY9a0PDoQexuHQfVji+hHcN1yASFiGmPD1WDpvNpYuWYyPP/wQoUm8rgJoNv0Z3D29Ga6zD0KsMIzY1eKA5xgEmRFAeYMF5fUzhEkA+wmQkhMBImAkQAJoREEveiNgKoCtai02Pa7D6Etl3N0skqtkGHmhFMsf1ECj1eFquZT7bNVD/b4+33YU3jmG0OPJYIM5Ckkx1ni5IPJuKTTaBlzetRbX0vUn5XN/4F319/TtrU5D/TNnE0A2oPugQooJx/K6iJ9hSnjWuWJUSUwutC0vxw/uo7DnNhvp63x0iQ+NAveOLMCoyctw+UYiEhP1W265EI9PBcHVfyMyhW1QyeoQNH1kjwLYY/oKITIvbsREn2A0GQRQU4Wd5gRQq7KsvM5mWPWKBNAqbJSICBCBHgiQAPYAhd56noCpAF7kSfCTg9n4MLYEvzySh0PZDfjqYim+vFiKyLwmvBqZz+3736lCdkPHKB430jIXM9af4wQQ0EHV2oI2tQaQ8bBuyqiOKTlwU3xjSQCf74Qh9k5PgqvW6JBS2oy5F0rweWgW3tuXDnbe39Y7ApQ1KqHrMu3fhgdHluCrpSHgs3P6IEdBQRUEj2LQGR9aiNJjMN7VE4/L2aXEdWgQ8lFVLcL9o0vw3dwwNCs0EDyKxOj339MLYBsf26d+hd03q7ip3R7T1zajLvMsxnw9Aaef8rl8hamnMfLN3yGwpxFArRIPLCqvf51IAtg/fpSaCBCBTgIkgJ0s6FUvBEwFkP1hn3OnChn1CoyPK+cEcPL1Coy9on/907BcnC4SQ6XRGafuiu8cxuRPX8Pr74yGV8AWJOcKcDJ4Nc4/KsCl/TPw+1/8FB+M9cL84LPIu3u68w+8Wox7sQcw19ML03wXIiK5BIYJuV6qOyQ+6kmQhkTFLaykufYxx2PTwdk1rUivkqGoXg65uvuJAPpC2ppKEbl3LfwmTYW391Qs338FFRk3MWv+ChRLOlb7qmR4GLsDU7xnwdvbE/7L1uJJeStkValYPcsHft7emBO4Ct7TOkacoULexWCMc5vOxVujuKmH9ApAJcOjq6FwneQBbx8/rNm1B2v83LDzSnEPBLSWl8edz9hDFha8RQJoASQ6hAgQAYsIkABahIkO6i6AbASQTQH/a7h+BNAjXgD3m3yE5TSCCSATw9UPa1DQpP8jrW1rxpWdPvBaFQ1hYwtkzSKs99NPybU1pCNwwmcIvlEGaavSZASwBdkXNsN9zkZkltWh9N4JTHRfjJzaVofoEHOC5BCNA7jTA1gsMGnpz0OnU6NVKoVUKkWrUgU2TKiQK7qeO6pVc5+zY1paWtDe4ZMqhZx7X6Zog1rZMeLMKmM4vrVDIg373dJDpzGW3SJXQa1UgN3GztzD4vLMZfCC90kAXwCIPiYCRMBiAiSAFqNy7gNNBfBmhRRbn9aB19yGaTf5iC4U498j8jghLGluw9ZnIm7/uyvlqJN3/PHXKJAUOht+HVPAKlmDUQC7rso0mQKuLcJ276+wKPweKisrUZmfjPkTvkLEo75ewNc++44E0D775cW1kiApYidmeXvDu2PznTUXMQ8rXpy0n0eQAPYTICUnAkTASIAE0IiCXvRGwFQA2RQem95lD0W7lpvmbVFp0KLSv2afGPaNeVojgNU5WP7NWxg1eQ6WLVuGZQEBWLZiNZJ4jrE6mATQGB1D7gUbCWQjjaabuWlsWzaOBNCWNCkvIuDcBEgAnbv/LW69qQBanMj0QI0CKWHz4L0mhlsE0mUEUF6KjVNGYf8ddr01kxHAphrErvfA3PB70HK+qYGkUaa/84Np3kP0NQngEO24Qaw2CeAgwqeiiYCDESABdLAOHajm9FsAoYbgXgRcp8zEvhOXUMKv7JwChhSJu+djyqJtOHIjDaUmqzwbcm7C188ba3aGISxsB7buu9I5rTxQjX1J+ZIAviTQDlQMCaADdSY1hQgMMgESwEHugKFSfP8FkM0by5D19AESHzyDqFmGstzHEHZc7Lmtic9dw+1+Lh9sdDArrwTcFeG07Wgoy+y8vhvfMc7/Y/1uEMB7BRWYH3EF3x+6gVOZVcbp9aESG+bqaWgfkxZ62IYACaBtOFIuRIAIACSAFAUWEbCJAFpUkvMcxATpx8HP8PGG4/jrd77B//jl7/ArtyWIK9JPhQ91EiSAtu9BEkDbM6UciYCzEiABdNae72O7SQD7CMyCw5kgDduTjr/x/AHD/u4nGDZsGP7hldcx/VIOl1qt1XELa9r1J0BakKN9HUICaPv+IAG0PVPKkQg4KwESQGft+T62mwSwj8AsOJwJ0l8HZ+DdbefxV//2Ov7+Jz/BW15LsfOJkEvNb1Fhf2YDDmQ14HxJMyRtQ+sS2OYEkN3tgy9uw+0SMa7kNeJ+uQQSJU0TWxAy3DUV2bUVGVt6EAEiQAT6Q4AEsD/0nCgtCaDtO5v9Ef+XQzm4w2/G9+G38Lt1p7H6Dg/1HefMsUvtlErakFojB7v2Iru0juGRLlLgca0ctfJ2s3fRMBw7WM89CaCyXctJn1tUAT46kIEP9mVgRGgWFl7iIbNaZrxzjK3rrGzJQfCqrcioGohLCDUhbsdqnLxTautqP5cfjQA+h4TeIAJEwEoCJIBWgnO2ZCSAtu9xU0FiYsSuo8iee3p0nwV+KGzF5id1WPmghhsNMtxD13ANxp7yeNnvmbaPlc3q59B/lgAAIABJREFUeDGngbsH8Nt70vDO3gwExJXh4wMZYPvupwq4+wEPRD1lDSnwG+mCJJ6sl+zlyEu4gvyqvt5pphYhXmMR1NM9gnspjd3buK/lkQD2CpQ+JAJEoA8ESAD7AMuZDyUBtH3vdxekvpbAZE+q0kBkuNsKwF0ih0nhsntCnCoUo9FkapW7lGJfC+nH8d3bV9ncBs/ThXhrTxq3vbE7AzFZjRh5KIvbfyc4HduTKqE0c1/gflQFFgmgohxb3L5ESEpfV5pbKYBWlEcC2J8ooLREgAiYEiABNKVBr80SIAE0i8bqD7oLktUZmSRkkidTa1HYpMT1CilqWtXcp2wE8V61DDHFzWDTx81tmgGbbjVUp3v7HlZI8fHBTLMCyMRw0ok8SI3Sqkb54+tIya3qyNJkX6dB3v07eFpWgZRLx3Ho0CGcupyARpMZXkl1HmKPHsKhQ8dw/d4ZeI0wjACqUZ4ah8jwQzgUFo6E7CrotBqkxe3C2PffgFvAHu56lK0qDTQt5bh0PBKHwg7jeioPhjMVdZoW3OfKDcO565ewdWpvI4CWl2dgZ+6ZBNAcGXqfCBCBvhIYVlZWhtLSUohEIkgkEojFYtTV1fU1HzrewQmQANq+g7sLku1L6MyRCSC7T/MFngR70usRW9wMpUY/3dym0XHnHbIpaI1hLrkzqdWvurfvbpkE7+1N5wTw6/Ac+J4rRSpfyp0DaBgVHBORY7IgRIbYIBd4haR01KFzX6OQIHT2J3jzqxmIPHMRt2/GYcOcsZgdfA0SFdBUEIe5/vOxM/I87tyJQ8gKT7z5l9H6KWBJGU5FHcXFa7dwPS4CvtOXI7VcjPJHJ+D12X9jwc5YsOtRqptLsH/NHCzdFImb187Af9YCXMltQLu0DPvXLsL8dXtx584txIZtwue/ehWB5qaALSzPEtAkgJZQomOIABGwhMAwrVYLqVRKAmgJLSc+xu4FsGNEKK2iEZ1LJey7w7oL0suoLRNBtriESZ/hIWhRITijHj88rUNodgMqW/SjhobPLX1WanR4VidHa8cUbvf2Zde0wi0qH6tvVCCCnb94g4/PQ7O58/8MAjjnQgnkxsUuncKnr0Pnvl4AR8F3TxykHcNy9elnMX7cbGQ2NeBC0DTM2nEVsg7JbSy+iAkjJhvPAWxra+JG8Pbv3ozRH3+AsJRSaGQ8BLmM7JgCbkfmpa1wXbofNawAtQwXN03H7OAE5Nw+AhfftSgwDDcqS7Fh4gisNSeAAF5cnmWUSQAt40RHEQEi8GICw9ghMpmMBPDFrJz6CFMBZFOM256JsPFxHXdfXjaa5JUgwOqHNZw8LL0rxPQEAaZcr0ByVW8n3dsOqV4IXLH+XDpUtst2QHPqLkgDWlgvmRvOJSxubuMETmIUMCCxsgVRhWI8qZWjSdmzWrNRQ75UhfDcRgQ9qsV5XjM3vdy9fXK1FodTa7Asrgyjw7ONU8EG+fs0JJNbIdyppp3Cp69+535P/S3jJcFlpB9SGnjPLcowPQewNiceKxZOw7o9kUi4fgleE0YiNInXVQA1CiSFzsbb74yGl5c3vL08MP6L9+C/8yzunl4P19mhkCgMPHo/B9Ci8nrpH9OPSABNadBrIkAE+kOABLA/9JworakAPq2Tc/Lnc0sAcZuGm05sVLRjd3o9LpdKuNWs7A/Vxse1nFC8DEw9CcHLKLc/ZXQXpP7kNVBpK6QqbpUxGx08XSTmVvKystjFqQualNx16RL4LdiVJuIkkfU7m2LObVQab3XH3jM8yhqVmHO+BO92TAUb5I9dEmbvvSpIu0hmG65unwr3XTc7zr0T4+iCCfDYnwJ9f3+PwJOpaOtYOC3KvIjvJi1BdnMVjs0fjwVhD4zn7LUUnsWYzyYiqagByWEL4bs2GqJWLVQtAix3G/G8AGqVeHp6NcbP24tKUTNaWlq4Ta5sRc7V7RjrthFCWcd/NeSlWOkyEqt6GgHUKCwrzwDoBc8kgC8ARB8TASJgMQESQItROfeBpgLIphHZylP/xEoOChuxKRQrMTepiltgwKYBZyZWYsPjWrBjDQ9xowjKthbUVFZCIBAY/9irFVJUNbYa5cJ0v721AfVNUoiF1VwaQUMrdFo1GoRVnfs6dAgBGwF8gpoaff51DdIu5SukjagUCCCorus8/00iRKNYAmF1FZqkSkNVX8rzUBBAAwjWjabTxmz18f7Merjf5GN2UhWqZfppY3YcE0P2nwE2IsguWmwqgOwUwxqpCkef1sInpggTj+dhwSUebhQ2mUz9GkoF+IkH8LX7AtzKqkDm3VNwefNXmLTXIICf4YMxS5GQWYCy4lwcXOaDlRGJUEODkuv78MH4GYi6kwVBaTZOBE3Ff/zlaySVNCHr0hZ847IaGQWlSDq7DW//6S96AdTU4ugiFyw/cg+CBhnk/IdYPHMKwm9kQiAoQ+rdO0jLqkar4CHmeE5AQPh1CCp4uH9uN97+91/2fA6grs3C8jrjv7P1z78iAXyeCb1DBIiAdQRIAK3j5nSpTAWQNZ79IWICyP7gZ9QrsOSuEGwkiE0HsvfYeWTzkqrwsEZ/TTWVrAGb/T7CpLlrsGZZIAL9p8B/ZywaFRrwksMwdt42NHAjKl33C89vxGejfbBh8yYELp6J71xnIjIsHBvWrkEA23fzR0q+qEMAv8GXbguxJWgZlgUsx0xff5x4WAF2Aw1NcwH2rZiFWf6LMXPmTCw9fBOyNg3uhfnhiykzsXbrNpyOz32p/TqUBLAnMOxcQib7O56JIO92/cJTRWLuFIDuAmjIR6PVQaHWchexZpd9Mbf4RKsQ4+axLVgSEIhthyIQezICx+6WGoV/wfYQbFu7GoGBa3DwaALqDdPX7TKk3zyGVUsCELh+L27ev42I3YdRKGoDlDU4e2AbVgQGYu/JS4g+vAsphSIubutzErBs+XL8EJ0IhUqD2qybWL5yJQIDWfknUdGkH25s4N3HlsDlCFy5DkevJ+Pq8TDEZZi5h7Ol5akNU8oGSs8/kwA+z4TeIQJEwDoCJIDWcXO6VKYCyEaCMusVmHaTz92Jwvd2JW5USMEWE9TJ27kFBWzqkN3G7FKphGPFBHD9xNcxdeNZSDSArCoVUydPwOUcEUqSQjHSb32nAJrsF8SuxHujZuEhO5dQo0DcJhd8+u38zv3tnvDZcQ0yblXocHw5Zw8qZIBOo0be1Z0Y77kcJeJ6XN0zG9PXnYBE0Q5FRQq8JnvidkkzUva64ZNJq1FimM57iT071AWQoWISeDy/iZv6NywwSRfJuQUlbBTYnAD2F7N9TvlrIDGMVLOR5o6t67R2/1pOAtg/fpSaCBCBTgIkgJ0s6FUvBEwFkE33sVGf2XeqEFcmxeKUagTcEyLwvhCPalqxK12EydcqEJLdwF2omGXLCaDvSBxMLOZW6apk9QjyGYlDycUoMhE+QAOeyX5BbBDGeh1ADRtWBJAfs+b5fZ9DEHIC6Iqg2GfGRSCykiRMHuWLuxWZWOfyOVwW7kBoaChCgzdg7Idv4uDdBqSEeMFl9Rm06LN/qf86ggAyYExKtj4VcdP/bNr3QGY9958BtjjIuQRQinvRoVgZGMiNGLJRw5XrNiM+t68XljYfhiSA5tnQJ0SACPSNAAlg33g57dGmAvgiCGwkyPQOFOx4TgD9OlZbdtkvQklKGEZ5r4GoYwq4OPEARvjqRwT1AhiC2o5Cze1XcwLogjUxaUYBlBQmYPKYuXgoyMFm10/g/0M07ty5w20p9x6gqgV6AQyKxctZq9yVnKMIIGtVmkiONQ9rEM9vMZ4rOJDtYyO8wsIs8BsGo+e69uPL3CMBfJm0qSwi4NgESAAdu39t1rq+CGBPhZoXQB7ERTcxacJ4JJZKoNM04VSQC/7wvTUCOAIj3INRIWuDTqvCjQNL4bflOJpVcjyMWIJJayI77hQhR/7TIkiUahLAnjrLivfYAC27/p/puXwDKYBWVNEhkpAAOkQ3UiOIgF0QIAG0i26w/0rYQgD3LXfD0XulHVPADTDuq2S4FbkGkzz84OPnhZVL52DSkp1obFWj+Np++Cw+DsO9acztsyng6LV+8F2wFgGL5sDT3RN+fmuR2TFC1CYqxr4gf0ya6g1v76lYvus8mtRAavRKzN4VB/1SlZfbD44uSI7evpcbLfrSSAAHgzqVSQQckwAJoGP2q81b1V8BZBVqV8rQZrJa1HRfp1EZr7WmbNdArtBfkoW9L5O1oeNSb+htX6OSQ9nWBnnHNdtM07Hyde1KYxlypf4abtr2NsgUam4FqM2hvSBDRxckR2/fC7p3QD4mARwQrJQpEXBKAiSATtntfW+0LQSw76U6dgpHFyRHb99gRCcJ4GBQpzKJgGMSIAF0zH61eatIAG2OtMc7Zdi+lMHLkQTQ9uxJAG3PlHIkAs5KgATQWXu+j+0mAewjMAsOd3RBetntEzd03uHFAvxD8hASwCHZbVRpImCXBEgA7bJb7K9SJIC275OXLUi2b0HvOdq+fWqUpV7FrScl0N94rrN8tsp889xxiLxfxi0y6vzEsV6RADpWf1JriMBgEiABHEz6Q6hsEkDbd5btBcn2dexPjt3bd7lUglEXSrHmUQ2alBruYuHj4spR0tyGInEbpt7k4/ur+n1DuUpxBkI3BaOoib0jx/XgBZi1na3abkdB4lEcPJYMdvnI7pcZMqR3tGcSQEfrUWoPERg8AjYTwHatDicKmhCa3UDbS2LA7r37sh4kgLYn3V2QbF/C4OZo2j52YfBfHy3AlxdL8b9CshGZ14T3zhSD3S5ublIVd1vB144VYM6dKpwuEhsrLik8i6ljvZDecSVwjUqpX7WtUSApbC781p8jATTSohdEgAgQAcsJ2EwADf8z/dfwbLwSQdtAM/jrfZlgUjYQj3pFOzdCI1NruXu9sjJIAG1P2lSQbJ/74Odo2j72+zD6UhlSa1o54TuU3YAPY0swN7kaU65XcPE14Wo5dxcR9p9J9pDwn2GL/8f45f/7FSZ4zsbBm7nIvrIdW0/cQdadw5j86W/w+juj4RWwBXcyS7DecKcZrRr8Z5exYtYsePv6YeWBK2jRdNxLcPCx9KsGht9ZxpYeRIAIEIH+ELC5AEYX8tCi4tM2wAy+u5I/IALIRmp8b1Vi4+NabH8mwr7MerD7u7LRmp6Ek/2xzhLKEJffiKv5jcio7nqtv/4Ep6OnNRUkR2yrafuYuPwsLBcTr1bg/x3OBRNANh286kENPOIFXGy9frwAKx7U4HSRQW50/5+984CLKksT/by3aXZnd/bte/tmX9h9Ozuzu7O7MzvTM9Pd0z2dx+62u82tIkZQUEFt7TagiAFzVkTBgDm0IrY5i0hQMJBzpsgZCqqoKooq/u93blFFUYICViHivb/fpW4453znfPfcc/9855zvUB57hLFDpxCV24hKZ7Cs3NKgq+fSVjdcfE5QVqtCraxsA8BsavPuMt1tJifDc6guTWP5zEn438xCb3Ym+RIrWwbAl/jhyVmXNdDPNGB3AAzJzgEK5d3BOhhzxTEAmFilwed+GWVqvTQ261FFE8ujy/gz/8QnALC8sZkdEcV8EZTM7/3jpX3ogWS2hRdTpbIdpt+9mt+ibeDIdm/OxxX3g8H8tVzctJSjd3K7l/kehrIGpB5GfSmCW5dPgIvo7i1sbGZeeAkHUmr4zclM/uNYBhfzGogqVfPrk5n84lgGtwvbhzYo04NxtuoCDg9wwUms3Sy6gAM9n+wCDk0l8uhiRk5fT1qOAkVuOidWTsR9/QWpq/ilUNxTMikD4FOUI9+SNSBroEcakAHQwaDmKBh2FABeyW8gKKXGUon0xlbp/Ef7UjoAoEZvZPUtBb/zi+O322P5/a5EZn+XLR2/sSOOlTcKUDUbLOl096B/DeYvJ8BlGCuC05+S/Vaqch8T8bgAXQ+Law1ITxHw0t6yLZ8YUiA2YTUW9Uqci72tx9dybt1Z23MATCY00JM33hnF1wsWs3jxYrwWfsOBK7Hoe/h8+qPiZQDsj09FzpOsgZdTAzIAygDYoebuSarhhqLBck3TYmRrXCU/O5LeAQBvZdXxQUCCBHwCAN8JSCEkqdpy/lFgImE55q48S3LPPHjpANCoJfLA18xsm4zwzAJaBbAFJKtbA+LQHuVTZn3H+CGTiS0zYaG1BTB87xxcl53uOAnkTjrpN/0Y7rYURZ1puT+dpolmqyUIX2blygD4Mj89Oe+yBvqXBmQAlAGwQ40UY7D84qt4WN5EiUqP+OCsiC7n96ezOwDghtBC3tgRawE+WwB8c0ccm8KKLGm3Glt4HH6FpPgoDp38jrSyBox6JfcvnmJPQAB7T4dTo9E/4c7D0JjHuUNBBATu4XK02f+bnrz7FwnaEyBdv5FYbJFTnnSVg/tsrncixxLB5sBoaCTy3CECAgIJvnyODRPMFsBWlCUpnDoQQIDI79XHqHUGyhPOsXjSe7z3xTT8jpyjoEYD3ZRnD0CyyX6/OrVH+ZpqU1k+YTRzV+1EPGcLAKKnKOogzk7ubD/8HVmKovZJIA0KDq1xZ+ZyPwIC/Fi/aRvRydUvZL1nez8QGQDtrVE5PVkDr64GHAqAKr0CRWMBiobO9xqtAkOrPF6wvZs4n/rShzRo8p85htJRXcAX85T4J1SxI76KpffLcLtdJI3ZGnohrwMAii7e13fE8pvtcQw5kMrq0BLOJbdbAF/fHsuKG+2zlCXL3th/5g+zVxNy/R5ldbVEnVrP9Nm+XLh2hZ0+Hqw6fR9tY7XlQ66ty2anzywWrT3Mjaun8Zj5FRdTqkCZx8kTh7lwLZRrlw/iNtWLh4UqCh9/h6f7HA6dv8a1m99y8HwKGJs6lWPudrR+9Q3KXHYum8dcX3/CwkI5s28tH/34J3iJLuAWDfHhwQQFXyMs7DwrPSZz4HoGtQWxbJs3ks+nrOBSeCw1Dcpuy7MHIFnnv78d26V8xhZqChIJi4giuaSR2uI0EnKrTeNDm1Ukx0YTFh1LlVJFQdpDypRaSQ3NtYWEhYVJe3Rs8oAY/ycKJgNgf6vlcn5kDby8GnAYABqMhSyMzOCHAYn85e7O93eDU0irzaf1JbXCQR550Ye4+SAcvV3KEMu+GUPYcC7shQGg8JYhxmc1G1oR3b9qvWkffcXkqsNc1Q89LMf1VAbbIkoJTqxiwslMBu1JtFgExdjA/TFl5uAmy57zO6w7H0+LcOlbGonnxAlcSa6WwlRGH2DIuCUkF5sBMIPYc+txXuBPWUML6FWcWzMVjx23aNKDTlcrWer8tqxh8LtvsTc8g8Qrm3EePZ+USg1gRKczdCnHMtHUksNWcu8G4eS2nAxhxRObNpfVo//A8rYxgK0tKrKiLkiWx9lO7zFqxXeobSYjdFWuJ+UhrwVs0b180F0NyADYXU3J4WQNyBp4lgYcBoDVGgX/JyiZvwxs3/9sVxJ/EdDxvPezhvNJD93C7sNiDNCLsiJmcnXHVGZuOojaTgAY4PIxK4JD+wwAlToDYuJHTr3uqXXF1g+gok7Lsmv5eJ7N5u2dpokgYiygeXc+nk5ujckaIxK2HdsnBvcP+tnPGTXeFVdXVyaO+YxPv5zJo9w2AAw1DeZ/Xfh5c3HF1WUyoz59G8+tF8iJvc7iuRPx3XGYW9cu4jpqEIFh2aiVpZzaMIvxLhMYv2g7maUN1HchJ7HCtrjNxIX44uwZiFJjni3QPgmkRVXGAd/JzFyyQbI87pw/tNPZqF2V60l5MgDaPgH5/NkakAHw2TqSQ8gakDXQPQ04FABfP5ONy70qy/7BpULeu6TA5V6ldE2c9xoADVmE7Z2Cu++eFwiAhRj02ag0eXayYsbSlwBYrtZL/v52J1bT+IwZu7YAKGZyiokgww+mSF3BZvATv+JaaHYdxtb2+Zy2ANigCGPKyHFcT65EpVJZdk2DGQBTiPnWh5Fz/CiqrLfcb2pq4O7eebgtP0GV2khzYyGLx/+BwLAcqVvQ2KJDVZPPSd/pOC08RG5u53IMT/iE05NyeRPDxq+iVKwtJramXLydBrE0OB1lxlkmj5rCfYW4p+fqpgmMWfakO5KuyvWkPBkAu9dEyaGsNSADoLU25GNZA7IGnkcDDgXA105l4hxeYdnfvaDgd+fyO5x3AEBDKtePLcPTbQyu053wPXKaFqMCjLmUZl1k59LJuLqOwfmruewP9GLsB//Ev77xAS4LFxGVk4xOlcztEz54zhiDq+t4Fi7fTL7G1MWcdHEJPhtWsn3zPLadPo+2E4udpvI2e1bPxs1lNK5zFhBXmoqxOZPzfvNZt283gWumSfJnfDOH6CIT9Il01x89hYZ8ch8cYvXC0bi4jmKy73ZqVMJ/XDZZ98zXxzBt8kxuZz7CKMY+dijXOLxWLeCrLz+yWAA7y495vODzjgEUAHc1v4FTmXWW1T6eVpFsAVCEFWkkl6lZF1rI+OPpCKufcA2TWKqW7lmnZwuABk01J3wnMW3NEVKzFWSkRXD9ajINKnMXcDbqwmjmzxjHvitxKBS53A8PJTYhn/jz6/jCyYe41GzunN7A6//5GoFhGaSl3CcsNAGFQsHlwMVMXXmcanXnctptk+ZctqItjGa2yygW7ruCIj+biOCtvP7//p7Fwek0lkUy5dNR7L+WQErMZTw+/TGfLw5G1aoj6dwanN3Xk5RbhlZV1Wm5npQnA6BZ8/Jv9zUgA2D3dSWHlDUga+DpGnAoAL51OoWvIzIt+9CLaQy7mNbhvAMANjwgKvYmNfVpVCguMWvMMC4mJ6AqPs/0iaPYceUaKlUy6RnXyM2K5vLWcbj67KS8NoNmfSbn/FyZ7bOZvJoU6ipjOOQ9jIlrdqHU5hPuN4R/+4Mz4TmxnVrsjPoEDvqOZ3ngYWrqE7i7fyZT1gZS15hCoOdr/HLIDGLyE1HWPObc1nGM+mYVZeo8wgPG4LQigKr6KyxwGkHIg/s0qh4R/TAUvb6AvEhfJo6dzq1kcT2d2Mu+jHNx41FpFk025cq4u41hv/gp3sGhdJWfBr2pu/t5AVBUCwFwYu/O1hkAmuPpxXhBvVHamzszdQmbWVM9V4/vICKz0jIbs7U2hyC/tZKvthVr1nE3o+GJcBVJN/Be6iOF2bz3OAV1RtCVERKwGe/Fi/E/foFvg7YTkVlCYcJV1i/0ksKu2X2GgnqNJKszOV2Vuib3HhuWeLPYx5fD18K5emwfl+Mrwagh5cZRli30YvXOw5w7HcT+y/FIHecNBRzYsYbFm/eRVNJId+XZZZKE+SH0w9+BXr4XoXIZAF+E1mWZsgYGpgYcCoAed4QD3fbxeQL2TmZm09o281ecWwOgQZdOXsY5Apa7MGXSCH75nz8nMOwO8ReWMnPRRmqtx/qJLuDAyZYu4Ka6y3w1YjBXU5PbZCqoTz/CaLGKQHU64btGM3rhDpRW+bHOW2PeYSZ+9jHBUeEoFPdJuLKSISMmEVcoAHAwC4+co7ktrjLjBGM+n0C0SLcNACvrbrN02Dt47T5IRlEceoMCSOLwnMF8s/8ihra4enUcW6YPZcvl68RdXsYY96VUmmf9Gh6yfZLJAthVfhKreg+A2hYjsZVNaHuxLurTAPDlezUM1JcUS5ZCYS0070qNmJ7Sd9tAB6SBXr6+qyntkmQAbNeFfCRrQNbA82nAYQBYr1Ow6kEmuxOzLLv77XSm3ky3nG98nEVsZZ4J2FoVpF9fhfMUZ87G3KO2/D5LXN4hMPQmoZ2N9bMBQFV1MO6DhhKW0w6d+qLzTP7ChXArUFN1AYDK9AA++fl/4DrHk8WLPVnsNYNV2zaRXyEAcBi+IVctAKjKOY3TIGebdBXUZH3HjtXuTJoykm+2HqRaE/PEmL7W5nSOLpqAb8gFYkK+wdlzLUozANI+BrCr/CiUvQNAseJCQGI12+OqpBUXelptBhYANhB5ci8+i00rRYjVInx813EzxTQjuae66W34gQ5IA718vX3uzxNPBsDn0Z4cV9aArAFrDTgMAIV1Tfj5u1uc2+WeXG3l786QRfg+FyYs8ZMmdSgLv2PG0LcIvHOHjFsrGe42m6yKDAkWdbosDM2ZUnjXZbul8NqGaFZMHsTm8zdpliyMBaReX8s4z/kUqHMtlrquAFBdeY1ZzoM5/jC+bUJHNo0N2Rg0AgA/wnXdAZQtwqrXVbrZqNW50FpAbcJeRg1zJrQggTu7pzDZdzd1LcInXiENRedYNG0kJx7cIy98HZ8Pn0hcSap0T1N4HvfPX8MrOJSu8mN2mdOTLmBDayt7kqoJTHr2ZA/rymF9PLAA0LpkL+54oAPSQC/fi6g5MgC+CK3LMmUNDEwNOBQArbtYn32cR9EDP8aNGM32Hb6sWuXB73/3GwLDIjA0RLPP3wOXmXPZvXsl63euJjE7iaKoLTg7ObPt8F7yK5NJv7OZmRPGst5vJX5bvJgzYwrnHkZK3a/mrtquABB9Jo9Ofs3Y6dPZ4b+GrZu/Yt/Ja2gkAHyPQaOnsDlgLX6bvZjp7MQZm3TLG6+yYd4Cdu9ewwbfWSzctJESbT5KxQUWT5/A3CXfsGv3GubPnsL6vUeoFV3EolwbpjB6+hx271rB9i1zGfbav+Aj3MB0kR9zN3RPAFBU3XqdoVuTPbqq5jIAdqWZ3l8f6ID0MpSvIS+a62HJtHl+7P3D7KOYMgD2kaJlMbIGXgEN9CMALARDNjkJl7h79zSxGdEUpF2iTJktWcdampNJuntauhcde9Pk+kWfQXLcee5GX2mbcVtARc51Kczd8BASchMtY+/qikM7nHcKpOb07p4mIuocJY2FbRbAYfgcOUKUJD+E2OSHlu5gc7o6q/zdjWrPNyjQKh/xKMqU93vxEZa4Ig96VRwPRbpSfh+jSL9JbnWOVGY6yY85388CQOHIWbh56WqyQ0/rtgyAPdXYs8O/DID07FJ0HcK2fGKVmZGX8qXVLGLK1Hx1t5gUBDcuAAAgAElEQVQZoUXSsoNBKTW43izE7VYRax484aSxayHPeSc9eAXDXAIof850+iq6DIB9pWlZjqyBga+B/gWAXYzPM0OPfX4VVOVc4ujuNZK1TljsxH767m00etHF2z5pRRybuoA7jgG0DfMizp8GgGL1jj3JNdKavk0tTzi861WtlgGwV2p7aiRbQHpq4JfwpnX56nQGNj2u5NNzuRIAXs5voFStJ65SIy01qDO00tBskIYp7E2u6bPSygDYZ6qWBckakDXQzzTwCgJgAeqa+8TcDeau1R6f8/gJ+DMD4MkVrmy7cN1Oy711BMzewmNXACgsf/va4K9Wa17R4vlrnQyAz69D2xSsAcn23kA4ty6fsEQ3G1vxCC2SAFCUTzgfX/eogl0J1RL8eUWVSlZAYeUyb9r6EqrqlFQVF1FQUEBpnQaTf/EWqisrES6ITFv7uVGvobiomobGWgoLCigoqZDCaZTVKKzORTwTAO4ip6rYdK+gFE2LOU3hK0lFqUIhya5SmtwKGXQqisvrqK8tp6C0jlYrh+fmfDvqV7YAOkqzcrqyBl49DbyCANhzADM2Z6HTW01YsbES9hbinieeGQDziko4GpPJiXgFNRo9wpKSXquV1vG1Z3WWAdCe2jSlZQ1I9k/9xafYWfnMACj+OVn1oFyanCQs1mITM9WPpteyLa7KkvnIve4MGufBunVrWPLVNEa4zuFhgQqNMoN5U525mFgphbU+V+XcZeJnn/GN71p8F3sxacpElq/fyRZfX5a0na86ESP5rUwPXs5v35mA75Z1LFmyhAVuU/A9fJlqMShQX8/NPd5MHO+J15IFTFu4hcxqDeVxZ/ny8w9YuMaXjXsvotG1A6sl4w46kAHQQYqVk5U18ApqQAbAfgBzvQFBAYC/3hfDkPVH+ZMPxvPDQRP55mzMM5d0620dlwGwt5rrOl5ngNR16Jfvjm35KppapDF+4h+U5dHlUpdwVp0OcV0sRyi6g28XNjI/osRS2HC/cbz5xSxiK7Sgr2G/10jmHXmERpmOp/MwQuJMo/esz1U5YYx85w9su5SGvtWAIiKIj3/1Vofz4c7fkFWvIT3Yi1+9N4praUpJZr0ijlkTh3M4RkHu/WOMn+7FQ4UKsXJN0MKJLD4cQ/6jED5562OOJZZZ8tlXBzIA9pWmZTmyBga+BuwOgMLP367ELHl3sA5+ezKFP94YxZ++58T3/uTP+C9/8mf898+ncauw0SG11hYAr+Q3cL2gQZpkklilYVdiNWKQvxhzeDitVvqgC7cz+Q1t6+r2MldGQwMRVy+SWtaAfUYz9jIjDohmC0gOEPFCk7Qun6bFyPGMOr6JKOFQaq001m9RVClLokql5QhvKhpxv12E6AbOVUrrq0h5Dw9wwcnnJI1tvbJ3d0/ByTeE6mcAoNOgaYRVqqQ0VNlhjP3D1I7nH7sRUa1q6wL2o7Stchk0SnZ7jGXVmfvc3PsVf/jche07d7Fr51bmjv09k1Z9R05MCMOcPEhV9v3c4YEKgKI9EW2IvNtXB8L9l9nC/kIbA1l4v9SA3QFwZUw5d4tV8u5gHXwYksNfbH/En382ne/98Z/yg7/6Ia+5L+NaQYNDKpo1AD4sb2L05QImXVeg1BnY+LgS8QFfFl0mrS8snv+dIhWLIku5kGuyrHQ/Uy2khx5k96G7qJpBo8xixVRnDkfmYb8Rjd3PjSNDWgOSI+W8qLR7Uj7Bd2JMoNZmKUEJAFcEY0I5MJ9XK7OYM34Ip2NNVjiNMpkZY0wWQWEBdBrkTnh1GwA+5VyMARwy2Z+yNsA0aGrY6TGOjSHR3AmaxyfjFnP55l3u3jXtaYU1lMeFMMzZk3QZAO1WtUT78pe7E/nxwSR5t5MO/nZvIn+7N8Uy5tZuD0tOaMBowO4AKBp9eXO8BkSD+ea3mXiGPOSHQ2bwj67L2RCVR43WMeORrAFQjDMUVhoxnkts4j9MvbGVpffKCC1sJKdeJ3XviVmf4nqPNoOGsL2zcfcNkQAQWmnWqGi202zmHuXFwYF7AkgOzopDkrdH+czAZwuA9eoa/L4ajNfxh2gNelKubOKNX/1B6hLuGQAu5Revj+dKZrX0D4biXhBTJ3kQkV9LVfwZRo6bREye+KeqlcrifArLGiiVAdDu9UW0L6Mvp6HSK+TdTjo4kpYtA6Dda+rASlAGwJf0eZqBTDh4jipVE12mlqxxjiqOWZ45fdEVZQZAAZ2bYytZ+7BC6gIW5zcUjXjeKSazztSd16Jt4Mjmb9gcuIe5S9ZyPamY3NiLLJ/tgqvrJCYv2k5etYasO3sZ+8G/8K9vDMZl4TrCUxQc2baE83HFVGWGsdR7CceO7GKOqysucxYRmtlo8nXYUs/9i0HMnzwFV1cP1u/YzvKF64gr7vtuOrOOnvVrD0B6lowXed8e5Ys5uZTZ2y6hbiuI5dzYQumDYDzdJuDqOpkFy5YyfoobFxIraFI8YL7rYqJrTLGedp511Y+xzl/h6+uFu6srziNncPRuFnohT68mJmQr41xn4uo6Bc/FK3lUoKU69QaeXy8lu0Hb5+odqF3ApvYlrVNPDL0ZIy3HKSQkO0cGwD5/Q18ugTIAvlzPy5JbWyCz3HDQga08MwAKa+CK6HK+y1FKM4+1LUYiS1QSlIm1h8/lmLqAm1XV+I76KcNWHqO8rkGy6mWnRJOiqEWlKuPYEicWH7qPTqfk8lY3XH1OUl6nRq2swtd9EIFhOZTEhfD+f/wTS47fp66ukqv+Hgz1CqJeYyD7+nqGTVpEVGaZlN6NnV/z+tvDCcsx244cpJjnSNYegPQc4h0e1R7lM7boUGvaHZp3PG9Fp1GjUqnQ6Jpp1qjRS13I4rrWashA1+etBj1qtQ6dTiOlo1JprOIBxpa26ypUajWmHupWtFrtCxmTKgNgz704vKowKAOgw5u4l16ADIAv6SO0BTJHF8NaXmFjMwsiS/ntySxpwscHITnSeECxksOlvAam3y6SxgjOCy9BhBWbBIAuH+J3K8Pyga0tz+LSoc14urkw+Hf/zOeLg1GJLuBAT0sXsBTPCgCHDJ/Mw0ph1Wul5NFJhkycR66yhMNzRvLN/oeWtBvLbjFpkJMMgI6uGE9J3x4A+JTkX8lbMgDKANhdoJUB8JVsInpUaBkAe6Su/hPYGsj6Ile28sSsTuG3TTieFr/mXYz5E4P5E6o0KJsNlqXorEFOTObQlseyyPkDVh8Pp1bZyLVtE3ASg/2fAYDWg+/bB+PnE+AyjBXB6RZVqKrDcZcB0KKPF3EgA6D9tS4DoAyAMgDa/716VVPsVwDYolNRVFhAZb3J437Hh9JCdYlC8rzf0oee9zvmof+c2QKZo3P2vPJsAVCZ/R1On0/icWkrLbpqDi0ZxZdLTQAYvm8OrstOSZNArOOJLuDOAbCKC6um4LQymAaxMoRRT9a1Hbz13gjZAujoivGU9GUAfIpyenlLBsCeA6CYWFLQUNDlXq1R0NLa83S7C2IvKpxsAezlS/YKRXMYALYYWyV/X/nKZml1CjEWTCz5lCgG+tfppGMxRkys+2nyU9RK7t0g3v7Jj/hszj6qpFHY7U9C8vT/4T/wDx99Q8YLcL/QnpP+cfS8QNbTUjyvPGuQExbApto0lk10YpbXerZvWYP7sF8w0ke4+9BTdO8Qzk5ubD0YQmZBUYcxgJ0DoIaa1FtMmDSeOYvXs2v3Ljb5zuR374yUAbCnD9qO4WUAtKMy25IyA+CZrDqiUnMIis4mNKcXs+3tn7XnStHUvth/EkiLsZAFkRn8VUCi5GZGuJqx3X8fnEJqTT6tdlgUwGhII/zKAVJLUzHaIb3ngUcZAJ+rSr4SkR0GgMIB5RvfZiE+AjFlarbHVyGcfXq0zQwNL1ZJPuI87hS1uS4xSu4VvnznP3D2PkGdjdM3ydP/m3/D37z5Yvxv9bfa8LxA1tPyPK88Y0szivRHlCvbZk62Gmgoy+JeeDj3HiVSkJNKYl6NaQyfXk1KXAzhMXFUKVWWeHp1DSnpOZhdS3c4t0ov/N4jctLO4zncjUelNhWppwV3YPiBDkgDvXwOrBpdJm0GwOH7Q/mJxwb+5K0R/MPExRxOKEX80/2ybo4CQGHd+z9ByfxVYIpl//6uJH4Q0H5NnAtYeh7YMsfVKMNZMXU4hyOjMMgA+LJWx1cm3w4DQOGeRHj+Fx8B0SyJheCFS5AZoUXSwu8CBn3ulxFaZL1yRSvaJhVqbfusP/OTkAHQrAnT7/MCWcfUnn3W1/KenaOOIRrzY4hX1JkuNlVycoMnExYdRKwg1l+3gQ5IA718L6JemQHwz5ae47/802t877/+EX/0g7/mP1ccQ6yv/LJujgTA189k43KvyrJ/cKmQ9y8pOpzbCwBBQbMmg+aWArsApRkse/MrWwBf1reh7/LtMAAURRAfALGLf0zFcmFut4ukLt+ChmYu5zfgfa+MWWHF0gQCMFIcdx734Z8w1zeEWkCZcx+fWeP44IMPcJ77DSP+/a9kC2Bb3ehrIOtreT19BaqSv8N9kjuurq64TnBlwabDpFaabYU9Ta1vwg90QBro5eubWtJRihkA/9/m2/zJP/+G733ve/zvn/wrn/hdpE4nA6AtKAkL4GunMhkXXm7Z37mg4Hfn8jucWwOgvimV2yeW4jljDK7Tndh09qoEc02VtwlcPQs3l9G4zllAXEkqLdo0Dm92Z1PAOuYuWcTlh2Ec3DaLc3EPMBhzKXi4n8UzJuDq5swS/yAaDAq6St827897LgNgx3dHPntSA30CgMnVGgn21jys4IcBybx2IlNaJuxH+1L4u33mpWoM5IQF8qv/8X3eHeNHkTqbZUN/yfe//1NGTpvB1OFv8t/+/I9kAGx7hn0NZH0t78mq+owrrQY0KpXFZ5u22TErojwjFz26PdABqavyiTlc+bVarmfUcjapmvDceuo1/f959ejhOiiwGQBX3y9m8NYzfP/Tabzne4hLObUYXuLJcab2xf5jAAUAvn06hfkRmZZ92MU0hl9K63DeDoD5pF1fgcuspWRVplBVFc79hw8w6uM54Due5XuOUKtMJHz/TCavCaC6LgHfUf/IsJU7KK9LQ1Ufh6/7OwSGhVOTewp3t4mcioikpuwOK2eOwu9GKIlXn0z/eWGvs/gyADroJRxAyToMAMNLVIy9UoDzNQVissen53L5KCRHAkDhOHjwuVxmhxVbeSrvCIDpjw/wrz/8Pr923kSx1kBdfhgjfyGPATTXvb4Gsr6WZy7nQP7tCpAGSpk7K59Wb+RccjXjjqXx7q543t4Zz0eBiXx1Loe4YhW9ZZikCxtYdySUF7/uSwuZYYfx3XYOpcb+FjkzAJ7JqqeosZnIErXkckk4ZBf3bhU2vpSWQEcCoMcd4R6qfZavAKOTmdm0ts38FefWAJh3bysuQz7n2/Dr5FemSeEacw8z4bOPOR15l/z8e8RdXsmQ4ZN4lJ+Ar8vb+N0Kk8b8NasSTAAYepvIIx6MnL6IlKx75Gff5viKkbiv20tS2JPpW+fPXscyAA6UltRx5XAYAIoByWJ2r9jFf6bi92h6Lf8tMJmVMeWSRVCMB2xfrLojAKaE+/G3P/w+gxYeoUFnRFP/GJd/+2vZAthWF/oayPpanuOqfP9JuTNA6j+5e/6c2JZPwJ2w+H0YkMhvt8fyhl88XpfzeG9XPK9vj2XC8XRyq3uHcLZrBj9/7nubQjNxIb44ewY+FQCNLeXcu36X6qaeyTEDoNCt7SZ8cR5IqWH1gwryG5otPjhtw/XHc0cBYL1OwaoHmfgnZFl2t1vpuNxMt5xveJRFXGVeOyS2FpB0czNLF01imNN4Qu7eoTo9gE9+8XOmzZ2Ft/csvJd4sHrHZnJK24AvLMIGAG8SGjiZN9/9nPmLTHGWeM3g0LWr6A1Ppq+3AlQZAPtjDR2YeXIYAHamLtFofW9HAv94ME2aASzgrysATE89z5v/+y/53/8+jkuxKYSfXM5P/uKPZQBsU2xfA1lfy+us/gy0a7aANNDLV1inY/K3GRL8CQD85bZ4TifWMGhPGxDuiGPjnSKElbCn28sGgA0553EZ5kJcec9K+jQAFCmJpRivFjSwL7mmbWx1z9J/UaEdBYACpmq1CsKL87rcU2ry2+GPQnS6LAwGBRiyiQ6ayVCP1WQUXmOW82COPYxrcxeTTaMyC4vFzxYA79wh49ZKhrvNRlFrmmGsa8pA11KAtpP0i7TtFkoZAF9ULXz15PYpAF7IVfLHOxP55fFMlkeX8+e7kviHA6lts9c6WgCL1DV86zuK//VXf8T3f/C3vDF4KP/+v/5CBsC2OtrXQNbX8l6FV/FVA8D7BQ28tzuhSwAUUDj6SCoN2vbxgOVJV7kZFsX5kKNcvJeFvtVIcXI4+/z98d9/itRSpbQmbwcA1Ndz7/xJAvz9Cfg2jGqNcCraSn1xMif3+ePv70/g5Yeo2yZNNFXmcOawzfUu5HReL/Xk3jvP3gB/dgcc4dSexRYLoNHQQHjIAUmm/9Gz5Fc3IeQdXOvCa//+OgvXBXAtoQi6Ke9ZAGjOn+gSfpk2RwJgz4Aql7i7O1m7eBH+/qv4es4UNgSfR6PP5PGpbxjr7sa2HavYvHE2+05eQ2Xu8rUFQHHeEM2RteOZ7rMcf//lrNvow/3kR8R2lr4DHFHLXcAv0xvwYvLapwAoXMNElagRPgDN++MKcx9IK9qGMh7fjyIupQTRZOvVtcQ/CCc8/B5ZRaVkPQrnfkKuxQ/ci1FZ/5Da10DW1/L6h5Ydm4tXDQAj8pT8zi9OAsAhQSnMOJuLgMI/BJosgAIAhx5IQWkFgOH+4/jZRxPYffYWiXlVlCV8x9ces9nz7TWC965m4vzNFCubsQCgsYnIk+uYMWc1l25cw3+ZJ76n7mHUa4iPOMPBkBuEh1/E13MyQdfT0anz2Pr1TNbs/Zaw8IvsOnYDtVpHRRdynqgRxmbuBW9ioudSzl29ze0bp/jqi7f5oK0LuDE3jIDDwYSHh3JwywI8lx6lvLqSqDOr+PTDoey7cJ+UkoZuy+suAJrzKYbiPKpoQtHPu4T7DwAWoK69z4PwM4SHn+F+QiTN5u5ZfQYp8Rek61H3z1PSWIixJRdF+mXKldmSFdH2vLnugRRepPUg7hZq/VPSN8ux068MgOa3QP7tSgN9CoBdZUK+3nMN9DWQ9bW8nmvE0TFaqcx5yOWwVDS96KLsLHevGgAml6mZcCKdFTcUHHhYwZKrBXwYmCSN/xPwJ/bZ32XT1NzeBRy+cxIjPAOpEBYtfSUBc79k0dGHJqfHNUnMGTWcb+NrLQBYWRqBx4TxXE2ukVReGXOAIeMWk1EPrQYVmRHnJEud55h3GbX8LJU1j5n36WAORhUjHmtLi+Gpcmyfo64hnSWTRnL8vsI05s7YRFjAHIabxwAaWyjPT5Qsj2sXufLGkNnSSkbK9GCczV3ATymXrbzeAOBNRSMLIkq5V6qWXHLZptkfzvsPANq/K7ZnFkj7yZcBsD/U7P6dBxkA+/fz6TJ3fQ1k1vLEYPO1DyvwjSlHfJe/zazD5WYhS++XUdjYzPyIEqbeLMTpagFhxaouy9D/bmgIP7CC1Qc7m03avcH9PSnTqwaATXoj+2PKmH8xl8H7kixdwWb4+zAggUtpNR0mL1gse0Kxqhy8h77Be0OnmPw9Tnbm4w8+4GBMjQUAS9KDGfSz/2DUeFcpzMQxnzN4jAexuaUErZzETO9NXLoRhv+CoTitCKZBr+ZRiB8zXUbhNOMbTkTk0dKY3aUc2+erqg7HfZCT1ZKDVvWkSUvU0WW4f71Asjye27eSD0aaVjLqAIBPKZetvJ4CoIgv/LCm1mjZHFtJRq3ONsl+cS4DoP3AzwycMgD2i6rdrzMhA2C/fjxdZ84ayLoOZb871vJiK5tY/6iCabcKEd36Z7LrpXGcYrm/87lKacZ3jbaFNQ8qiKvs3axO++W8JynpiL16jKDLCTz5mbT6sNvJvcerBoDiSQj/f8LK92ZbV7AZ/t7dlYB/VAmNNs6MOwCgrpSAWUPxORWPWq227M0GLABYWhjGlJHjuJ5SZbkvwtamnWXyqClEFwrn4HqubpzAmGVi7WmxtaJV1ZJ4YRt/+Hg69/OzupRjW5vUNY+Y/skwvkuolMYi0qojbP9XfCEsgNWZrBr/CX43FJLFsij6OJ992QkAPqVctvJ6A4DmNJoNrf3WV6AMgDIAmuup/Nt3GpABsO90bVdJ1kBm14S7SMxanrAoVDa14BFaJIUWw83TarSSX8f4Ko005mhmaDGrHggLYftg9BZtI0WKfPLz88mvbLD4fGtSVlEgrilKaWoxd/+1UFVSYApbXE6zwXwdasufcT2/WFpu0FyU2qoymrRKigtMsuub2icZmMOYf7V1xVTWN7VZoYyoqopMecjPJ+rUSsvgfnP45/l9FQFQVIfyxmaOPq7APTgLp6NpfHMhl5tZdQgLoe3WAQAxkHNjNyNmLOZWnHiW8Vw+HyWtL20O16Cp5qTvZKauPkxKZj5pKXe5diWZqrJIXAZ/yd6rcSTdv8jMT3/M54uDqdZmc+lMuPSM40NP4u65kLhqdZdybPNnEPJWTuLD6euITckk5cE1PAb9nLcFAKpLObhgAjO2XCY7LYEAr8/58XsmAGwsi8RjmBMnw9KoamzqtrznAUDrvOcrmyX/gdbvp/X9vj6WAVAGwL6uc7I8sDsAiq7AnQlV8u5gHfzmZCai0eyrzRoAhUzxIRIAKPAutqKJ+RGl3C5slLqbxLUSlZ45d4ulcUcivJgNeWnPauZ+M4vF3nOZ4nMYpaoZQ30aO7xm4jlrIZ4zZ/DNnquSFagp9yYrF32Dt/cS3Ga6s/54NBq9joxbR5jvOZGF4vqiFYQlVgBqHp8J4usZ4ro3c91m4rloM+nVGppV1ayd9jajPHxYsdgbb89xzNh0qkv/a5H7pjN1/TnU0qzMm3w1axbzF3rhu2YZcyd8YbLsyBbAblW7pwGuwdiKrsUojacUv0arfxSsE8+MCubAVSuLbHMj0ef34LXEG29vb47diEdnBOtwrXW5HNq1Xrq/cu0GIjIbaTVqSL19ghVeS1iz6wgXzhyS0q2rzyTIZ5kU1nuNP+GpJUjum7uQY50383FrUwln92zFx9ubDftCiLkbwrEzkehaWqnPf8CmpT4sX72B0xcvceDYGap0LWKGG4/O72HR8rWcilFAN+XZCwAz6nR4RZUSlNI/3MWI9uVXJ5LZmZAl73bSwbRb6VZu1sy1Vf6VNdCuAbsDoBgXFlGikncH60CsqvKiAFC4mBDdwBOuKShV65l2q4gr+Q1cjE7l63VBLNp0SNrHe+/mSoxY3gnUNQ/5euhILqU30oqeysp6MDZycasH01Ydl2Z+ahURuI6ZzM2sevSNFWQWVVFYkMu9s5sZOnEhucpijs4dxeKgh5I7ELW6FrVaT0XKZaZOnsmFeNPHW68uZb/XOBYdi0GnqsZ39M+YtPYsDQZQlTxg4tiRnG+bJND+KpiOzJakek05274ey8pvYyQgaNFWcGzBaD41D+63jdiL86cBUi+S63dRBlr5tI21KISl2movqW2yWLL74gHYCwDFP2lVmhb2J9dwQ9HYF1l/qgzRln10Nkf+btjxuyEWXGj3s/tU9cs3X1EN2B0ARaMvb47XgK1FztESreUJ6NsWV8W88BIJ/BZFlbLkXhkuQXc4ezWUAycuEHAohO+uhhHxyASAOlUxBxdMYvyMuWw7HEKeWAJBlcPKsR8xes56du7cyc7Nyxny9q/ZHVFNWeIFtm9YjPeihcx1G8N/fiq6zpQ8OreXiU7jWL51t8l/Gs3EnV2Ds+du6qwsc/mXNjJi+n6KBQC6DWJ3aJYEcs2qKlZMG8SeuzkmS4+N4swAWF4dyczBToRmmT+OzcSdWcE4GQBtNNb16cACQD3FSbfY4m2yPArro9j3X4qRLH1da8G+d+wFgOZcCTcx/cFnoHX7Ys6b/Pt8GhhY79/z6UKO3bkGZADsXC/9/mpfN5jdkXctIo6DIdf57Rdfs3jDIR4kZJCYIca2mDbJr2P0bfaumc0X431JL0pj3fgPmLXxFBEREdIedT+G0spitrt9wqK9d1BqDZQ+DmboONPYKWNLM4rkCK4F+zN8xAy+fZBD3IX1jJ62nVoLABpJObmckTOCTADoPojAMBPwiS5hX6tzc97Mv+0AeA/3QaO5aQWAD75dipMMgGZVPfNX/gA9U0U9DmBvALTOgJi4FVWqptHKDY/1fUced6d9caT8gZi2/P4NxKdq3zLJAGhfffZZan3dYHZHngDA/WdCORgSxolL99hzMpT84lpJJ0ZjJdnZVdKxOvsmo0e5EVZUS8yhBXy5NKhtTJ6alJh06pU5bJowmBVns2g1NnNlpxu/HCQAsIbUVLFUk4FWbT3+c0ez6sxjanLv4DZmDEfupEkOxNWVqfhMGc/ayymmLmAr4OsuANY0FrJm8qdM2HZFGpNoqElm2dg3eUsGwG7XcfkD1G1VdTugIwFQ2Wxgf0qNZN0vVek7uOPpdgZ7GbA77Usvk35lo8nv3yv76LtdcBkAu62q/hWwrxvM7siLeJyGp28Q/sdvceZGHL47z/MgQXjIB1VtLD7OJt9sE6bOZmtwJMJBTHNVNrt8PRkzQdybgPf2c9Tp9WSGHmbC2MlMdZ+Bz9KvmOzpQ3ZDMafWLmWmqytTXKYy19efAqUWDFrSH1xlkfskJru6ItLfcjQUpUhfVY2/9yQOR+W1dQF3PLd9qg9O+jBn+2XUxhZqs27j5emGu6srM73WsnXFbDx9DtOglaYJ2Ebt8flAb6AHevl6/MDtEMGRACiyJ2bhiyU7D6fVdjor2w5F6DSJ7rQvnUaUL3apAfn961I18o02DcgA+JJWhb5uMLsjT0zk1Gib0TXr0esNtBiMppUVJB0b0U66aAIAACAASURBVFn7brO4e4HWFp3FZ5tGJxYBFK7ZDGjawmv1RrRarWSRaGnWWsKqtdZWilb0GivfcFbpt+jUND/l3CTQ9Fd0MVunq9e1yWvSYmxtQasVfuTssw30Bnqgl88+taBnqTgaAEVuxAQR4TOwL7futC99mZ+BIEt+/wbCU3RsGRwOgMJ/W3yJis1hRXx1Lgfvq/lcSatFZePw1bHF7F3qYtZfWR/P8utuTvu6wexred3VQ2/DaRsyCZj/lWlFCVeTZXLOim0klWp7m2SP4w30Bnqgl6/HD9wOEfoCAK2zKSaJiPXaix3cJWyP9kX4B80rrqXlCZdCRlSVReQrSmjS28d6b62j/nosv3/99cn0n3w5FAC1LUbJ4etn+5Mlz//v7YrnLb843t0Vj8+1fMkhbP9RhW1OxOzStbh8cwClZXKBbZgXd26PBrMnue9reT3JW+/CdrRImlaWaDKtMdu7BHsca6A30AO9fD1+4HaI0NcAqDe2crWgQZrlL0DwCbayQ5lEErbty6W8Bq4VNEjWSOFc3q9tlSHhLPxASg07E6rZlVhNntJkkRdrMn/9wd/zf3/lzP0S88x9c+ZUnPUZwY9+8nsORJqGgpjvDORf+f0byE/XPmVzGACKDoSIPCUf721f83Pmd7l4ns2S1gB9a2ccOyNLEA2MY7cW0m4fwP9gGKoe9d71dumv3srrmRZsG8yexe556L6W1/McvnwxBnoD3VX5lNoWrmXUSv8EzjmXw8Y7hTwuVjms27Gnlvyehu/LmtfXACjKJpropGoNu62Ay95ltm5fHpQ3SUA46boCpc7ApseVkpP5ZdFlXM1vkHwF3i1WsSiylIt5YqQvaBsUrBv3Or/+fB5x1bZWfBXBXp/xg//1K4s3AHvnvz+m19X71x/zKufpxWjAYQCo0RtZcCnXsuD7b7bHMveiAq/LeZZrQw+kkFHZ5NiSGzSE7ZmNu29I3wBgr+X1TA3WDWbPYvYudF/L610uX65YA72B7qx8VSo9y68X8P7uBKk34P1d8VLvwBdByZyKr5RWB7HvU+ypJb+n4e2b22el9iIA0JwnR64lbN2+CDnCsmdealJY/YShwPteGaFFjWTX69jwqIKNjys7GBDEWF91k66T2csyAJqfofwra8BaAw4DQPFf/vCDKRbY+/X2OFbcKu4AgMIKKKyEls3YTHFGNDu8PaSxWc5fLSM0MZ/Dm75m4+5A5i5Zy42kUlQVKez2XYybyxRc5qwmtkSkYST/8QWWzXbB1XUSkxduJ7eqiczQvYz94F/419cH47JwHfdy62jqND40KYsI2bsWDzcXPOYsZI23G2O7dPvRfXmW8tnxwLrBtGOyXSYl5P33Pcm8fyZH3u2kg18cyxjQnvptAVAs+eYXWcIbO+KkduHX2+Pxiypl0J5E6Vz8huXU27mbsaeW/O6F19bGstt3G5k1Xb4yDrnxIgHQukAC0NJrxcQo66u9P7Ztz0Q5zQAojoUV0ONOMak1WmlM4p6kGslKmFmnk4Q2qwvZPmsEnw31JrZaRUt9IcF+C3n//ff5YtJUZoz8PX/xd7IFsPdPSI45EDXgUAAceSiFN3bEMuJwGv73yjj4qJIp32ZYoPD3/vFE5bcDoLooGvcJk/C7lohaXU9WVhJZaXn4jvopw1Yep6K+EZ2mgiBfd1bsuUadsoaIoEVMXhOMUtNETmoMqYV1qNXlHF/ihNfB++h0Sq5sc8d12Ukq6pvQaTuPX69Rc3KtK9M3nqaqvpHqkgR8v3yXD7sCQH335OkdNJvOtsF0dOU8klYrrfwhVv+Qd/vpYEVMOWKs7EDcbAEwtbypwz+Fv9wWz+nEGgsA/nZ7LF9fyEXdbM+B+t0Dunb9dy+8MuMME4a5EFfeHrMvjvoLAKbUaFl6r4zTWfVo7FB/bdszMwCKVUqWR5dzILWGHx9M468Dk5l7t4T/PJ7B93Yk8F2O6fuhUabj+ebf8MO/HUl4dQVX10zlR3/5P3lr2ARmuHzJT/7uB3zvf8gA2Bd1VJbx8mjAYQAouoA3hRWxI7yY/Q/KmRmSxW+2x0lAKBp6sTsdSyOnWniDE1sLiRc2M3NRELVWY/Ukx70uH7LzVobkx60x9woTPhvGqYhM8vLyiL20gyHDPUisgtryDC4c2ISnmwuDf/fPfL44GJXokg30tHQBdxU/OvMRX40YxdXUOlN2WnU8Oun9FAtg9+SZErP/X9sG0/4S5BRlDTyfBmwBUFj7hdVfvPuvb4/lLf9EzqbUdgDAYQdTpHWhLZKba7lzYjuek12YMG0u+0IzaGmFxAsb8N4cwIHtK3Cf5Mz0VXspVrZI0XpmyX+65b+5JpXdy+eYeiQ8FhDysIT6gkes83iPv/+7HzNqyiwCbqRAF/m0lMNOB/0FAIXhr0ytJyCpmvBi1XOXzro9K2xsZkFkKa9/m4X4x/ODkBycrhbwX/0SpMkoX17OZ93DCsl6LuqY2DoAYGYMbh/9jL/52UdcSKrGoK3Af8a78hjA535KcgIDTQMOA0DRQKSUq3E5lYGY/SsafDP4id/f7YyTZggLNwPS1sXYOduVG5TpwXz6i1/jNm8pS5cuZan3Etb6HSIr6zELx33AmhMR1ClVXN82AacVTwJgV/HT8sJxH+REWI65MXu6JUBb3j15jqow1g2mo2TI6coaeB4N2ALgvXwlwur/2+1xfH0xjy0RZeyNLuMd6ZqpfRh1ONXK0baehDOrmDh7LcmKahTRJxk9YS6JZWrC/cbyz2+M4UpSMaryFHzdBrP2Uhat+p5Z8p8VXlWSxJ3kEtRqJfEXtjDGbR0ljToq4o8ydugU7uepaWrWdpnP59FfZ3H7CwCa8ybG5tnDgm3bngmrolpvlCYGiV9FQ7MEfAL+5oQV83V4Cd/flUSnAJgSwZh3/4n/++ZwoguFX9E6Dk4fxJ//T9kCaH5u8q+sAaEBhwGgSFzAnRjTM+lkhtTwi+5gYQEQA74D75dKS2xZHkOrnuxbOxk+zZuMMtM0fq1Wg6a+ssParerKBGY7j+LYg4q2wb5aGpQa6rO/w+nzSTwqNdKirebg4lF8udQEgBH75uC67JQ0CaSr+E11qcwbOpgNl9IkCwPaSo6vGMv7XXQBK7spz1I+Ox/YNph2Tl5OTtbAc2vAFgDza7UsvJTLibhKtkcUM+5YumU8oGQV3BHLqpuK9okgGgUbXQYzb0+YZO3PS7zNrBGfcCC6mvBdkxk1P4g6qbfYwK0dkxm//gI1tZ1Z8pd2aclvekZ4bV0hj25/y7JZLowb9hE//dC0JrX4R9LZ3AX8lHw+txJtEuhvAGidPbGWcEyZWgI36+vdOX5We2Yu95/6J0ruX0R40QXcKQDmJ+Ez6lf8+Q/+BZ/910mMPs+Y1/+v3AXcnQchh3mlNOBQABSaFAa+onodwYlV+EeVcPhROQmlXbh8aCjiYMASJrt74+e3hTU7dvIoPr8DAKJvIvb0Ksa6zWPLNj82rl/C3hMJ1Nels3ySEx4L1rBl02rch/2CkT7BqNBTfP8wzmOnsikomLyy6k7jN4t0v9vAZ6Nc2LxlGxs2b8NzxLt83AUAarorr9oxs5yf1WC+UrVYLmy/1IAtAIq24FxyNSMOpkgzgK17BMSxmDQm2gbLpsphyZDf8tmEuSZr/9KlLFu5mog8LeEBLiYLf1tg83l5dc8s+aqnhW+o4fCiEUzy3kVqUR15kUf53KkTAHxKPi1lsdOBGYTM4GOnZO2SjABA4a9vW1wllU2m7vjuJvys9qxG08LfB6Xy3wKTpTGBvzmZyZ/sTJSWrRMyOnQBV6tIux3E+//2l/zxn/45P/75W3z02v/jz34kWwC7+zzkcK+GBhwOgD1VY0tzPSmRkURGRvIwPpVGTTOFGbGUN1j5dtKrSU14KIW5F/0A6ZvRaqChPJvoyEiiY5NQ5KaRlFcjjRvEHP5hPDVqPZbzyEgs8UVGDVrykmOldGMSc6irLSQjt4tR3j2R11MldCP8sxrMbiQhB5E14FAN2AKgECa8Awjr/+f7k/mdXxyv74jlnV3xUi/Bray6jo64DUpC1kzBc+9dTPMMWqirbJBWejADnxkXzedVPbTkP9XyX5PNmnEfs+1mqeRlIPHyFj4c0gaA2d8xfshkYsta4Sn5tLeC+zMAirI2NBs4mVHHvuSaHq0l/Kz2THQ1C+tiZInKst8rVVPftqKUQa8mOzaS6AfpiDohlnQsTBHfkShik3IozE4mMtrmO2Lvh9PP0uvs/etnWZSz84I10O8A8AXroxPxrVRmP+Cgnx9+VvuJOymIiS4vantWg/mi8iXLlTVg1kBXHyAxNEQsD3nwYTm7okoISaySegmMnSwzUZt2m+luk1m0Rrx/a1jrd5GKppYuLYCqHlrypR6FLi3/9YTu9WaEy2K2blrDQvdP+cUnJgDU1KaxcuKXzFq2lavxhXSVT7Mu7PXb3wFQlFOM6u7pzGC5PbNXDWlPp6v3rz2EfPSqa0AGwGfWACPq2kIetlklhWVS7IldWQafmZ59AsgNpn30KKfiOA3Y5QNkbKG2MEV658R7l15kcrxXX5LZbuEHOpz3xJIviv+U8Hp1JbGRkUTdjyGzsJzUjFwkJwXmfN2LJlV0QZjP29oHcz7trd2XAQCtyyxgP66ySZox3Dbdz/q25VhuzyyqsNuBXd4/u+VGTqg/akAGwP74VLqRJ7nB7IaS5CAvVAP96wPUPy35PX1ALxsAilU9RD1YEFFCbGXXawnL7VlPa8Kzw/ev9+/Z+ZVD9L0GZADse53bRaLcYNpFjXIiDtRA//oA9U9Lfk/V/7IBoCifsAKK9X3Fah5iHF9arZY7RSrJx9/mx5XS76hL+dLKHj3Vhxy+aw30r/ev63zKd16cBmQAfHG6fy7JMgA+l/rkyH2gAfkDZH8lv4wAaNaCGBe4OKpUWklof0oNNxSNRJaoWRhZyochOfzyeCY74qvk3U46mHqrcEAvNWmuV/Jv7zUgA2DvdfdCY8oA+ELVLwvvhgZkAOyGknoY5GUGQFHUnQlViNm75k04eV77sEKCvz+czZGAUEChvD+/DnxjymUANFc0+bdTDcgA2Kla+v9FGQD7/zN61XMoA6D9a8DLDoBi7d7gLNPybUI7Yq1f/4Rq/uFAmtwFbOfqIr9/dlboAEyuTwBQDASuUukpVeqoaGzukX+oAahzuxRJBkC7qFFOxIEakD9A9lfuyw6Ajyqa2BpXhfDrp9IbJYfR/glV/GB3kgyAdq4u8vtnZ4UOwOQcDoA1TXrJ39f44+l8FJgoeftffUtBekUTnfn9so+O1SReDuFBZpV9kuuQSisVWTFcupMs+wHsoBf5RNZARw3IH6CO+rDH2csOgKUqPSMu5bM1rpKNjytZ/aCcpffK+KdDsgXQHvXDOg35/bPWhnzcmQYcCoBVaj3LrhdYPP4L7//v745HrAnsfDxdcgbbWaae/1o5AS7DWBGc/tSktI01VDU0t60p/NSgVjebiQvxxbmLJeKsAj5x2Dt5TyQjXZAtgJ3rRb7afzQgf4Ds/yxedgAUlr/7pWoeVzSRXqulRKWnsdnIqMvyLGB71xb5/bO3Rgdeeg4DQGHdE4u+/94/HrHO52+2xzLvkoIFF3OlcwGB4rhe07M1I7v3CLoBgK3NxBxfyvz1F1BJnl27lzL0EgB7La/zfMkA2Lle5Kv9RwMD7wPkyJ6F7j23lx0Auyql3J51pZneXx9471/vdSHH7FwDDgNAVbOBaaczJdgzA+Dciwq8LudZrg3ak0hcsXk1T2huqkdR2YBYNF5s1uctqkrKq5Q0VBaRl5dLbm4uDVrrpdhaqCzKl64Xl6fjP6XdAiilk2+Kk1thSl9bnc2pNZMYN2cHSbmlNIvFRo3NVBYpyMvNJbe4Br1laSojKovcPCJPrXyqBbDb8jp/Jt26KjeY3VKTHOgFasD2AyQmAAy7mI+AGDETdHZYMTNCiyQfccItiOvNQtxuFbHqQRfrb/eoLEaKYs8xd+FWcpWabsdsVheyfckCzsUVm9YR7xCzG/9Ydghv/5NXCQANra0U1umkIUTfXMjl6ws57I8pk5YNtDTN9lexnVLUUllagd7wtPVP7CSqi2Rs378ugsmXX2ENOAwAxaLvXwQlS7AnFnz/zY4EjsZVdwDAN/3iCM81zwgzkHN3L0Nmr6daMsl1PM84u4p3B01h1ZYN+Pj4sGDaML7eeZ6qJkBfx+2jW/Bwd8fHZwUrli1ixJuv4y26gFv1xN86wFIvL3x8vmbiRE/uplSQc+9b3Ia/wX++N4aFm4NILlFS9OgM7i4eLPRaiLuLG6cf5UOrkaLE68zxnMVCryWsXrucr8Z/zhdddQF3W17jc1U7GQCfS31y5D7QgPUHqF5nYGtsJYPP5UoAeK2ggfKmFhKqNHx1twQxUUxMCghMqkbA4PNvRqpz77P/4Fmqmrvfy6BTlRCyx5+orKpOhobIAPj8z6XzFGzbM4FNj4samXwyg7d2xvGOf7y0i+Mp32ZI9xw3hrzzPPbkqqo6glnDXInMa3d505P49ghr/f7ZIz05jYGnAYcBYIPOIL28Q4KS+epCHmeSqvn6Yj6D9yVZLIBiUsiDwoY2rRrICQtkkLtvOwBanacHe/Ha+6O5kWEKryxMYPbEYRyKLqI08TwTJs3gSno1YKSpLJo5H/8OHwGARgON1YWUFBaQl5tBkNdYpm69hsagISzQE3ffEKkLuLk+nRWzJxF4I0NKI+fqFoZ57CCvuoxt88ay6tQDySJg0FZyfOEYPu0KALsp73mrkm2D+bzpyfFlDdhbA9YfIPFBF+O/PEKLJAAUshqaDax5UEFAYrV0vCiyFOG8tspmWEhNWZ5k2c8tLEUnLPVia2mkKM90vbxWLcFai7YRRWkNtdWl5BbVoNU0SOdmS35TfaXJul9QjFpvMKXTyd+aylKr+6JnwSSnuDytQ89CJ1EdfulVsQCWNjTjHpxl+Va8G5DMtvBiy7nrqUxEGEdvmtrH7Fq5lcwe/k+iqg7HfZATYTntPVzdyWtv5XWWtvX719l9+ZqsAYcBoOhSFWMAxUu78kYBHwUmWF5e0SUsdo+QbCpV+ran8CwAXMEwl52UtVnUDRolAR5OrDr7gJiza3D23E2dxtyol7N7ylBpEkiroYWYy7tZtGgRi5d44zrkN4z0CUZlA4DKjBCGvv4281ZuY/v27axeMIl3B00gMjWCGYOduJNlttg1E3dmJeO6AMDuynveqtfXAHgxT8n2uCp5f8l1IHyuCUtbX2ydfYDMAFijbUE4qt2XXINYIUJsTaLNyKhjS2xlW/b0pN88zHzPSXj5LMXdawVhCRWSxf/a7sVMnDgbb59FuM7fRHpVE+VxZxk5+F0Wrl3FxqDLpMacZozL12QoNRjqUtnuNYPZc7yY5TGdeQFXaNSZ24t2bTSrqlkzaxhBkXkYOvQsLO/Ys9AepU+PXhUAPPa4grd3msaPi2/FOwEphCRVW74hYmz5t/HmeuK4R6DMOMP4YS7E9XBUQm8BsLfyOtNAZ+9fZ+Hka6+uBhwGgEKlwuffost5iK5eM/SJX9ElPPxgCndz6626WQzkRezjY9dlVLR1AWfe3sUfppksgunBKxgy2RoAa/DzGMfGcw95dG4NX07dRo0ZAFuK2TR5CMuD02nMu8mML4cT/Ei8wUZu+03BaUUnAJh9idEffcG+cxFERUVJ+6OEVCrK7uE+aDQ3M82WymYenFzK2C4AsLvynrfK9TUACnl/FZDITw8nyftLqoMf7Uvq05UBbD9AZWq9ZOFLrdHic79MWhv2UVE932w4yKJNpn3e+gN4+H3X9npUc3TuKBYHPUDfaqSpqQ61Wkd+1BGcZyzhcaEao7aGA4sm4nUomvxHIXz69iecSDZ9rcvjQhjm7El6XSUXtszEbfVJGrQGtIpIXMdM5qaVQ2Lz+ygA0Nd9EIFhOU/vWTBH6OPfVwUAfW8qeL3NUCC+GV8ey+RscjsAim/IqpuKDtpvqi8iOHANHm4uuE6fxqazcSSeX8+SNVvZumk524Jj0DbXEHp8Kx6TXZgwbS57b2fQ0tpKc00Ku5bNxtXVFWePBZx5WEJd/kPWebzP3//dPzJqyiwCbqRCF/FpUfL45gmWek7B1dWDVRuW8eUHY7u0AHZbXocS9uzE9v3rWWw59KugAYcCoFCgok7LxjtFDD2QLP1HJ7p9553PIUbRIC0Sbq3kxqybjBk1nFs5SoyGGo75jObfRpkBcCk//+04LqdXSV2xBZH7cJ3kSaSiluqk7xj62XCOxrSN2Ys6xoev/StewekoFVcYPciJu7lNqCtS8HJ6k6FLglEZtdw/vIDJi47SoDOia1CwevowVoUkIgwDBkMFqfEKVI2FrJn8Kc5bL0sWA0NNEj5j3uCtLgCwu/Ksy92b4xcBgKMvp9HUopD3l1QHx9KzXxgACivfycw6FkWVciStlv3JNXjfK8P7Th7zNx3k3JXb+O0/TfSjWLYfutT2SuiIvbCfiWPH4rN5J1fiCsGg4e6eOXz06UQ2bd3O9q0bmD36bSatOktOTAjDxnmQ2jbpwwKAJcmsGPshX85aI1n3t29cyhdvvcbuCDFkpOPWDoBpPHpKz0LHWH139qoA4NrbhZLh4HW/BNbcLmJLRBnrbhdaDAkCANfcbgfAVr2aE2tdmb7xNNXKRqqrc4l+VEy431j+Y9B0IvOqaNI1ER/sy8TZa0kprKEw5ltGj59LYqkaVUkSd5JLaWpSknBxK2OmraWkUUdl/FHGDp3C/fwmmpq1XcbPurqWYZMWE51TQVNTBbd2f8Prbw/vEgC7J+9JC3VPapoMgD3R1qsZ1uEAKNSq0RvJrdaQVKYmo7KJ2qYWK8ufleL1Tdw5spKxU9xxmz6V5Uvm4ey1g1q1nvTgZXz46TRW+nrh7urKhC89ORGZjdSBrG/i0Q3xoZiC67Tp+O7cxSrPKey4ko0YsxeycSETx05g5oJlLFswla92XEEtxgrmR7Bgpiuui9ZzL7uauuQrzP9quvRf4LTpUzlwORuD0UBd9h0Wz3KX5M5cvI7tK+cwe9lRyZpglXvpsNvycutso/bo/EUA4JgraUChvL+kOgjJznlhANhV5a5Tqliy9Qgu87fhNGsjKRm5BF99YAluNDRTmBrFjZBdDB8xnZP3Mrl7YB6fjvfmWmikxVqfUVSLBfhsAbAsnfUTPmD25mBL+PsxDyjtZHiWNQDGPqVnwZLBPj54VQDwekYtPlfzOZ1QxfLr+XwYmCT5kzX3JL27K57zKe0A31QZzSLnCYTnazs8kfBdUxiz8BhS/41GwUaXwczdc8c0pjThFrNGfEJQdDXaOgUPb51k2SwXxg37iJ9+6Em6UoMyPRhncxdwl/EzOTx7JPODHlpmjjeW3WLSU8YAdkteh5L0/EQGwJ7r7FWL0ScA2BOlijF0TU1N0t5sMKLVmQb6ii7gYS67KW7Wtt3XWl42Kf1WA9q2eE26Flqadeha2gYMGvVo2u7p9c2I+213aNaZ0mtpm65vPhd5aLb6B6zFLFejw9hqQKczj13spHQ9kNdJ7G5dkgFQBtGewnh/BcCFm49y+mo0V8ITWLUzmBtRZgfualJSFOh0Blq19fjPHcOqMw8piw9hpNME7ueKz3orFUW5KEqUlJq7fG0BUKkk5tBCRnnvN3kNQE1ydBr1miff4XYAzKTiKT0L3XpJHRDoVQFA4R/WNHY8URoyZAY/869wJyY8TZi3rsbOhQe4mIb8iICqHJYMef3/s/ce8FEl2b3/rsOzvWt7n/+efX7P/vut1/baa3uTd8JO2knMTiIMUWTUIIJEmhlyEEIg8pAZBDMww5CDyDkIIQEKKKCEckY5t9RS59b3feq2utUS3RqF7la69/OpT99bt6pO1bkVfn3OqVN8MOETyZOE8Caxyj+A++klHFr0MZOWf0HK0xpyHhzhIw87ANBR/ty8Zw4eaNcGUF/TMXqWxnXxVwaAXWTcAMrW6wCgI96bAeBeOmmL66g4J8QbyIu+xFKFQpIYCtsREdYeumlXMugEgq2KkAGgDAD7CwCctuILNh24zImrj/jyVBhHzj9o7uuVnFy/glkKBVM8p/Hp2i/Iq9OAvpFH57YzTjELhWIKc5atITZfQ2XKTeYu8CVTpIFWz7rKLL5YM5sxE8Q4nciKnReoeRb/IQDgnhWTOfxAbAJxrFloNRjd+DBQAKDw85dbpWHFtVze2hvPizviJJWwMCES4C+nqrWkr6E8njnjRhB4L6/5iFENKpWOVgDQpORsgCc++0Iw7zsyUFNeh6Ehm4Cx77LtVrFkJ55weQtvDm4GgJnnGD94MrFi96Gj/E31XFrryRi/kyib/cmmXdvG717/2L4KuDGnY/S62a9kANhNBg6A7H0GABY9vs2XRx+aRfm95cPYSh2bJYzq9iSDTqy3DABlANgfAKAYEmqtDq1Oj15vxCBJ/VuQmVGntWoE1DaSe+HeyaIpaGxUYxbgN6HVaq3SfSEdtH1uMuqseTTt+AY06hrRG5t3SjeZrJoFQb+VZsGJ47mjRQ0UAGjhh9i0czujhv0RxVK4m1kr2WJbNDiWdBgaibu6HQ+P6WzZ/DkbNi7nm8uZrQEgUJ0SzEyvySxcs53t29cQsPMSZY013P1yBR9PWcKWjWtZNP19fvEHMwBUV6eyeuJIfFZukWxQ7ec3UJ0azKTJ4/FeuIbtO3eyeY03L7823D4ApL7D9Kzt68KNDAC7wLQBlqXPAMAB9l2+s7kDHQAWqvLIqs11GLTGAoxNMki0BYm9UQX8nR3dZQmEBP9ij0nwu9qsgQYAO8cnPUWpCZKdZ3jkI8nGs7Y4g6TcqhZzIWHT/fSJ1RZU2I6Ky9BQQdyDB4RHRJHxtIyU9Bwk4yNL+vBIngijUctzs6cIS35xYEB9WRaRIj4yjqLK7Dzb3wAAIABJREFUUtLjkhxqgzpMr3MMaJVaBoCt2CE/2OGADADtMKUvRA1kAJhZm8urp5P5wZ4Eh8HrTirljWKXoAwCLTyQAWCbkd2DEvw2NenwowwAO8yqXpHQaCjmypeBbNu2zRoCj56nSNki5XZVRWUA6CrO9p9yZQDYR7/lQAaAZ7Oy+MvAJP56X7I1/PHOBP4qsOX5775MpFLdRQBoeszZDbO5FBvfrwCkDAD76GC3qbYMAG2Y0QdujbpanjRLCy3+ZSPbkQw6s0kyAHQmN/tnWTIA7KPfdSADQAFk3r5SgCK8whr+/XgmHvdKrc/Pn87oOgBUhbF67OvsDZUBYHeGh7wAdYd79vPKANA+X+TYZzkgj79neSLHtOaADABb86PPPA10APjy+TwJ8AnQJ8K/Hctk6O1ia9xv2wBAXdVt9vgKL/2jGec9gzNRUTQJG0HDE2Ju7WSFzygUihGMW7KGr9eP5j//z9/w8pBRzN+1j+qGDMozbvFlwEQ8FaOZNG4S246eolafj0H9hK83TmXD7gDmLVvMzaRI0sK/YvWCkXgqRjBp9XaqVNm9QpLYExLA/7ErgddPZ8rBSTx46WQG39sRj1jc+9Pl7vmsP/HOUVtkAOiIM3K8hQMyALRwoo/9unvCNNPrHY6gBZAZcSWFxQ/SreE/DicxOyTN+vzyqeRWEkBV0S1CkqNpbHxC/OWVjJ62iKL6LDKuLWLoJB8isuJobIwjOi4ETdl1lo18hZ03I2nUZNNQdpVPJ3uwLeg8tY3plGWeZfmEN9l5NwydKh7/ET9hmP9OKpSpKCsvs3DMMM5FR9LQXJ5enzcgAWBSpZoFYUVycAEPHper+9iM1X513T2ftV+b/vFWBoD94zu6shUuBYA5Sh1aYxOmJiio15FVq5UOoq/XGaX7bKVW+hXve/4yUF5cRIPexvuztVJVXFi/lEPBQpLTOy53T5i9DQAKEGjZ3CB+ZwanUqRqAVrewamtAKCmJpyo27vwnT2asUNf5V/emkxqTSQH533AuqB7GG03i6jC8PN4rVkFnEPS5ZWMmbGSCnVuM8084o/NZeSnOygVAFDxCrtuh0hlNNbcwXfY6yze/SXJudFoDS11sq1vT9y7WwLYO0aKXIu+wAF3z2d9gSfdraMMALvLwf6f32UA8EhqNf95OI2L2UoSKtTSuZ+L7hcjQnhJA74RJfiGl/B2UBbCrqXzVxNl6RHcjcyWzu7tfP7WOdTKVOaP+IgD97NbXAZYk5Q+4+nd+qqHbtw9YfYmAJhUmcvqyHS2xWVYw1tBT1j3qCVu5+MMNIbmTSD6JA4t+gOTVgSQUphMzoMdfOQxmdSiW/Zt/VoBwGzigj5jnM86lFYAWED+1RUMU6yjQADA6a8RGBLWDCLzqcm5xN5NPkyZ8jFzN31FhXpgqoB7aGjIZPsgB9w9n/VBFnW6yjIA7DTLBlwGlwHAuHI1Ox5XSLYqNVqjBPIE0PO+W0iVxiBJBEUH/fqJ2Q9Tpzlv0hB28FNm+QehMp8W1+kibDOYDA1kJ8ZR1nyKgO07kAFgbwKAQnqWWp3Lw+Ich6FaY7MDuPEBAWNfZ9utaCCPhMvLeXPwZFKrYzkbMJrpe441S+pyqa5Op6nhvpR+1904IJ/i2D2MHz+RqLwEmijAoInn8KrxeO88SsMzADCD+vosaMqjJvErRgwdR3Dek1bSyp6Q/gmasgSw9aiWn3oPBxwBQHEiSI3aQJFSS3GdDnFEXO/QGPUe3jmqiQwAHXFGjrdwwGUAUGh1RQcUQVxqg0mS+u1NrMRgauJMZi0L7xfzVXKVpCY2V0hPZlgQe3ZsY9v2nVyJEz7czJfJqOTuyX1mX0oHT3H/+iEWjHuVV96bxKavTpFd0SglLH58kb27hM+l7Zy6Eoc5ForjL3M9OJSgk19z/n4abb0wiTOII+6cJ6lIiTgDoIXedo6eP8OGCUPxO205o9RSq577dTRhuqpGvQ0Adg5EpXD3q7kMmzyLzRsWsGj6G/ziD5NJVWZQnXaS6bPGMn/BZ2zb9hnrDx5HpUkmdJcXI70/YdeFC6jqYrl4cBmKaQo2bPPFf6U3S/3WkFqfabYBtJEAququEuAzn23N6ZZs/ZwSrUV13LM+CWUA6KrRIZfbXQ7Ym880BhM30qrxDsrkD/sTpTD7XCZ3MmrQms9y6y5ZO/nNmqWLd5JQ65tPg7GTqqtRwi/gnfPXZT+AXWWgnM+pHHAZABS1tADAskYD6x+VSdK+rOIq8orKpRCfU4LXuSQqLYeyK7M5eeoY14PDuHPzMF6KhUTmN2BQZrF12Tw+W7+fhw9DOXbmJLev3mbngpEMmbqWm+EJVDeoib2yF5+pCzl+PZjQOzdZqRjN8sP3aTQ0EbprLP/21kT2XbhLUm71M2relkPgs9C2ohfGuQPreeen/8xSGQD2CklW58CfGXQZGh4T9/Ac4ZGXyHgaR0rGA3SS3V8+jTWRxDw8x8OH50grTJTaqKt9JD0/SouSnk2GdLLjzGkeRl2jrC7THG/M5mlGy7NRl0xKc1m26bpSZ2fnkQGgU+dOuTAncqAtABRCguNx5bwTmMDz22N5dXc8w75O4oXtsYjzgA/HlKEzn//nxFqIonTEBfkzzicQpdqePbiFnIaKkvLmM4Utcd/9q6oMZfogDwdHxLWXv/P0ZAlge/yU3wkOuAwAJlSqmXHnKZ63CvgioZIhl3LYFFPO8OX7CdhzlG0HT0thwqId1NY1WL+GTlstSfo2Bfjy7mu/Y39oFukhX+L1yWaylRZdr1E6qD0k0IfpzSpgbV0qyyaN4Hh4viTBAxOFEd8ydNRCMmrUhO6axMez91HuYNJoAYAZEj2P6avJrGk+cFybw7rRg1glA8A+CwCdDab6YnkyALROM/JNL+NAWwAYX9zA4ANJEvgTAPC1vckSIBT3Ioh3yaUt64bzmtMxAFiff515Y32IL+sc5a4CwK7QkwFg577NQEztMgBY3KDnYXEDUaWNlDTfi2efjd9y/vpdhir8+OroJfYfv059g9mlQXH8FRbOncj6vccJvXONaaMGERicTIg9Wz+jGlsAaG9gGQqjmDJkPqGVqmcOBW/7sVsAYArRz/wD7J02gEPOZxL0MJ7hO4IYf+AmMcVKXLWhum+rgHtW9dpbwKIMANuOevm5t3CgLQDc/aCIl3bGtQKAQYmV1uff7Yxj78Nim+obKC8tsVENtzybdI0U5JVRp6ohLzuLrKwsSpRahH2h+RLn+BaQnSXeZXP/hJ+NBNBAeUG2lCcrv0gq36CpJ+Hmboa8M4Jz4VmUKc2CgsbacnMZuU9beZPQNdY2080lL/82Xu1KADtOz1J7R78yAHTEGTnewgGXAUALgba/K7cf48sT1/Baspuz1+5zMTgOtUYHRjX39s3Dy+8EVY1N6OrzWTL+bQkAPjrly4hPA6mxFcm3AYAN1Sl8MnwYZ+PLmyWATZQ9Pscwj0UkKTWdAICpJFzdzJBx/hTVN0scG7JYOuYdlvcyCeCPN4fwD14BfP+ffsUf//TXvB1wGOF6xxWXDAD7PoiUAaArRoZcpjM40BYA+t7Ik9S9ksRvRxxLruVzLbXaCgCFKnjVDeFiyXxJXhw8PbjYLJKzfVZl3WP8e+/x2boNbFjjy9I5UxjjNZeoPBU0mSiIv84cn9ksXrqctetXMW/ch3zUrAJuzL7J6qUL8fVdyYxZXqw7HE55XiL7/cbwi3/7FTOWbuRUVD7GmmS2L57JnHlLmOM9g/l7r1CvNWJUpvPFumUs+GyBVMZynym8+dIwhyrgjtKztLu9XxkAtscd+Z3ggNsB4Irtx7gcGk9YbBbbvr7G2j0X0egM0KQl6dJGBnss51FCCjePr+eFX/43gSGZNBZG8cncyawMvERWVhqhD++RnlFG0oX1jPNaR1z6U9SNddza9yljJi/nblwyaUkx7Fw8g9WHQ6UNH6F7PfHwO43KwXdvkQCa6c2fOooFgl7GE+6e2MJLP/nHXmcD+MdbIvmjV0byve//Ed///h/xN4MmSG53HDSxW9EyAJQBYLc6kJxZ5kA7HGgLAHfeL+K9/YmMO5bOqfgKVt16ysRjaVYA+OKOOLaFFlpLFIDPZ9xQguJKpTjbZ1VWCMNe/TWrj8egMYJJW8+ZDRPw3n6LOnUJWz8Zw5qTUZJduFFTztHFY3ivGQAa6svJeFpObnYGYac3MXjCIrKVapSppxk31BOJnKmei5/PwivgOHUaI9qC+yhGT+JWRiX3989n7Gd7EBox0JNx5wsGvT3KIQDsED1rq9u/kQFg+/yR3/YAALx09xEHzgRz5V48j5IKuHg7Fq2ueU+utpxLB3bi5+tL4MmrnDu8h4cZFZJaU1mezIHVq/H19WX7wRM8VTZBfQFHAjfju/0gyUX1YGog6tJBVvv54uu/nkPXYlE17xbLDD/LoRuJaB18dYNaya1TX1jp1eQ9Ypufn1TOkVsPuX3qW24kVjrI7f5oMWH+9Mt4fjZ7M9//4Y/4+5/8M0M2H+NRqWXfs3PrJOj98mgSW+My5NBHeeB5K5Xn9osTUrrid9O5/UkuTeaALQfaAsCE4gbW3MpDqIKFvZ9QBwupn8UG8N19iUQV1FuLsAV8ItL2WQBAj0FTuVve8vc/5dQqhk4NJLsyjJnve3A3w1KWjrgzqxnbDACL486xZf0SVi5dxmczxvDL93xIbQsAVVn4jXmLEd5r2Lp1K1s3LOPD3/2GPWHJBE4dhu+JZKtpjqriHtPaUQF3iJ611e3fyACwff7Ib3sAAPYGpmvqq8jJzCTTJhRUNvQp/1Jiwvz4ci4XUst4dcs53thzi7OZtehMTdTpjOid7CxL0Bt0Nluy6xS2nHLoezxYE1UqA8DeMAHJdXiGA20BoHAB81VkCb//It4K+izgT8QFhhejt9nQp1ZmMm/8YE7Glkhlq5WJzBxllgiaAeAU7pZZAKCJuENLGD7rADmVD5n+7khupdc110lH5PHljBEAsDqPbV7vsfSre5JkrzjmFEPG2gGAjblsmPAWcz4/w8OHD6UQERVNiaqcr2YOY9mR+BYAWHidiYPG2JcAqp92jN4z3LMfIQNA+3yRY1s44HYVcAvpnrozUJwczPZVq1hlEw5efeQitwKuaadlwhQ4T/hYFMHY1CQBv0s5SrbHVThV0mOh55rWyKW6gwPyguAOLss0usIBe/NLg87I2cRKJh1P47U9j3l9z2MmHkvlTEKFZF9nS8fQUMWuee+z6HAkGqOOhEsbeP5Xb0sqYQEAR7z+Eiu/jZD8wjaUJbF80ng2XHuCpr6AdVPeY+yWy2abvcoEVox6gZcFAFTmsnnC+6w6m0GTUcvlHQp++U4zAMy/yqQPJxL5VGivdEQdWszw5V9idkfbQGL4E2rVKh59vZBXJq8hVbzQ1XBpw3R++uJg+wBQl99BerYtd3wvj3fHvJHfmDkwAAFg//j09iZMS8vqdSZOZtSyNqqUQlVbl9eWVJ37bY9e50qSU/cUB+QFoac4L9P9Lg44ml+EP8BCpZYnpQ1SEKeB2FVumIyUxpxlzvSJKBSTWeK/minTZnI5sRwBAEe+PoRFq/3wViiY6DGdtYHXqBGVMhmpyQph2ZzpTFco8F66gR1r5jPX7zB1Gi0ZIYeZ6DGFqTNmsWrVpyjm+pFVp8HYWMrR1d6MnDKLvTefoK/MZu+aOYyZoEChmMjKXRep0YO+OpcDmxcxccwEFD5L2bF/O7OmzOdhrj0XNvoO0/sufor38njvCJcGdhoZAPbR7+9owrQ0R0ycyVUayQWPJa47v99Frztly3ndwwF5QXAPn2UqneeAs+YXnVaNWq2W7MoNWrV06pRZBTyde+W10jvxXtfmJBGDTmt+pxEA09hil95kQqtuLtNgQqvVWdW5TUadOY/e7DDa+izRt7GzNRmsdPVGIzq1GqNdFIu0K7mj9L6Ly/J4/y4Oye9lANhH+0BnJ0xhGyjOYG7xfdW5hneWXudKl1O7gwPyguAOLss0usIBV84vFgAo/MH2lktdl87eBXNRKITE0Bzm+m0nqaT58AEnVFQe705gYj8vQgaAffQDd3bCLFLp8Q0vIfhpfZc2iHSWXh9la7+utrwg9OvP26cb58r5RVeVzalvzpKrcY45jHMYbZIkgUIaaRscSga7QFQe711g2gDLIgPAPvrBOzthCo1DarWGLbHlkm2IIw2EI3Z0lp69cqqKs8ksqLQDQIUn/nyyhAd9XXvnb9orVY7rKAfkBaGjnJLTuZsDzphf3F3n3k5PHu+9/Qv1fP1kANjz36BLNejqhFmvM5JV68gbouOqtKV3PlvJ5Zw6yR4mtqyRz5uBZYPexL7ESrbGVUg7kbOVZlrauhQ+ef3v+T+/8OCh8NnY6lIRtGIYz/30ZQ6EZUsOWVu9lh+cwgF5QXAKG+VCXMCBtvOLC0gMuCLl8T7gPnmnGywDwGdYpqassNSpLmE09ZUUVqrs7157hn7HIpwxYQp7wFylDgHavuuypSfOdx57LY9JN/Op1Rol8BdSqGJVRCnXcusIL27gQVEDS+4XcyXH7F9LW1fAxgm/48UhC4ivbGvnouL0kg/44f/+NYEhWTIA/K6P0cX38oLQRcbJ2VzOAdv5xeXEBggBebwPkA/djWa6DAAKR8RCEiQkQFpjE6cyaiWgEFeuJqVaI90LX3W74itQdQCAOGqjyaAk+MJZEouUzWcAO0rZsXhVZRg+QzwJy7a3Td9RGToyws5y9WGadOxc61Q64s4GMOXTAyhtzzJunajTT86YMMVO4aNpNWyNLUfYCFrPRrdTG1t6OmMTuXU6vIOfSimFD0IRt+xhCXefqkiv0RIQVcammHJpF56lOKNOLZ37/CwdGQBaeOTKX3cvCKIfCMmwHJzPA4tk3ZX9xZ1l284v7qTbn2m5e7z3Z17217a5DAAGJlby8qlMyd4soqSBLxIquZVfz6zgp5IKUkiJrubWMftuIdXigMYuXsIDvP+MSRx5mOsUyZGqMpTp7RzVY7+ajVzfvYC5267xLGzUERfkz7jmo4Xs5+98rLMmTAG+L2QrJeldqXReJQgH+wLUiV3DAhjWaIyMupqHoGm5xHFiFgBYoTawIboM77uFJFaqpePoxPcfcSWXtGqztE/XkM/WWYP5w4dLia1UYajJ48TWT3n11Vd5b/wUpn/8Cj/4O1kCaOGvK37dvSAIet/bEc+/fJPIzw4lycFJPPijnfHSvOqKPtJTZTprPuup+vdGuu4e772RB3Kd2ueAywCgOI7seFqNNFEJiY+QNqVUaSQAKN4J0LH8YQkhT7u7Nb8J4e9Jb/xuNWb7rDC/7RoABJNBh1prsCNF690AULRafB8B/sRJIvcKVWyLq2B9dJkkxVsTWYo4QmzIxRy7AFBId1dFlHAopZp/+jqFv96bxGdhRfziaJq0+J/LUkqMlc7mfOlv+OvnhhNaWcbVNZ4898Mf89oIT+Z4efDPf/dDvve3MgDsSB/tahp3Lwhmegk8rc9DbciXgxN4IHj53P4EGQB2dRAMoHzuHu8DiLX9pqkuA4CCQ6IDiiAkSmKjwPx7RdxpPsBbSIYOJFdJcVYVsElHTvgZFnrNQOE1naU7z1Erjjl7GsOq+cs4dOYQq+YqmDJhDAs+P0xxvQmDWsnBzYs4F/sUdWMt17/dwKwZnihmTGVTUJz0oYQN3rVvmuMVM1iwcj+ZqmaHngYlj24cYbn3FBQKb9ZsXMnIN5vPanRQH3tfP/78OtZ+cwc10Fibz8kv1uI9zRPvuYtYu3Sa+WzJXqYCttcOAfa+TanmSZVGOkUkv07HivASXjudaQWABfU6Ft0v5qWTGXybWs3bZ7Mkm0AhmRBph13KlSSCz+1Pti5UrQBgegTT3v53/r+fv8PlpCpM2nL2zPy9bANo74M4Mc7dC4KZXgKV6nygQA5O4IHgpQwAOzIoDJQVFaKy41WgKi2YJX6fk60Us3X/vdw93vsvJ/tvy9wCAOMr1Kx4WCKdTHHjQTwHztyWwlenbzPi8/NUq8RAbKImM5hp07w5HZ5HbXkma7wnsP16GjUZIXz0/D+iWHeOYqUaZeETNs1+l9Wn4mlQVeI/fRCBIWkkXd+O5+ytZFfVU12dQ2RMEU1GNUHb5zDX7xAFynrqqks4umo84/yPodQYybgWwNBJS4nMLketLid47wJeePVj6axGR/WxZ7IYutcTD7/T1OsbOBrgyczNp6mqa6C6JIm1o17nrV6qAm7btQUov90M0sW7RoOJzTHl/MfhNCsAFPFC8ifUxMLWU/w+rdcjAN/wy7l8GlrEJ6FF/PnuFklFKwCYHMbo13/KP7w0jIgCHVDN1zMG8Rc/liWAbb+HM5/dvSDIAND5oHegAEBxnvmOxxWSrbHFlvRKrnlDWWatVvIwIDactVxNlKaHExyRjdYIYr6ZP+LDZq8CDcRfPk1ivlnbVBoXxNBx5jN9W/L3vzt3j/f+x8H+3yKXAcDQQpUkFZpwPV/aDPL++WwUtwr4/WeBXLgezJnLt7geHMbyz79FWd8IJi0Pv13C8OkBxD/JICM1gUMrx+G1/gKlKSGMfseDK3kt6uLE40v52PsgRTYAMCv8MFOHjORocCwZxbWYmpporI5m3rARXEuRTn6UgKYy7QajhswltjKfb+YMZ8GBR1b7wfqSO0wSNoAZVQ7roxKYpc1lAYDlbek1aYk+vqLPSABv5NVJ6lxL88Tmjv1Jlfzdl8mtAKDlveVX2AQKAPinuxLYk1AppRX2X2ISElcrAJiXxKqRv+EvfvCvLN93lbj7QYx8/u9lFbCFmS76dfeCIANAGQB2tCvb2gAKs6Af70+W5hxhRy42E/7fgynSn1BhOvRmUJZkbvLyyUzJ44BEw6Qh7OCnzPIPQszPJkMj2UmPKavTgDqHdePfY29opZRUBoAd/Spyuv7OAZcBQGFPJiRDIginw5b7pduO8s2pa/zL72fw7ZkbfHsuBFWjBoxqQgJ9ePlND5as8MPPz49Vvss5eiue2vQQPAZNx/Yon9TTfgz13EuBFQAK9yEmUkKO4L9iHkNHT+Vk8BNq7Gzq0BVEMOmjOYRWZrHXcyh+p1Ot39lqA5he6bA+7UkAS5+h1/ttAK2NB8lOc21UmeTeJaNGK+3qFTZ9f7Y7oV0AKDaM/P8HnvCjwCRJDfybY+kSGLyYbc8GUEXq3W946z/+kj/50z/nJ//1KoN++xP+7H/JEkDbb+HsexkAOh+QuVu1PRAkgKKfCmGBcCX1u5MZEgD0vFWACAIMij+aJ9JrpDVF2JaLqyj6JJ+NfYWX/zCBDftPklmqJPz2OeILKnlwJoD3X/hPhs8OYMf5CLIiTrVIAJtM5D++w54tW9iy57DTvEk4e+x2pTx3j/eu1FHO07MccBkAdNSsFduPcfh8CGt3n2b/8RtcupuARquHJgNZd3YzbNpScqvMzoM1jSrUOiPiLMfRb3/AoUdPJVcvBk0F3/pOx2fXbRsVcBYNmkb0Ap2ZtEQdXMxg7z1klRfgrxjKxqDHaKTJwkTild2Mm7uegoYaLgd4MnrVCWqlfDpSr2zlpdc/JiSz1mF97LXNIgGsqEnh06Hvs/5SMnrhaE9TxmHf0bzRR1TA5Y0Gaffu3JBCafPH/qQqzmbV8rqNDaC99gtVcHRZI+ElDdYQWdooAUmRXvwjz4kP51FMOkKOazLqKUwNJzw8gsfJORRmpxD+qPkfuz0Ccly3OeDuBcFMz3k2gNnKPDJqch0Gg6mAJifY2bkb1HWG3kABgD8/nCaZk/zbt6kS6JsdUiiZlYj5SADApQ9KuJFfT2WzXbWyMJFdC0YyZFoAtyISKS0rkUyDvriTQn7sKaYNeoFFuy8Rk15IiwSwgdLY08z3nsfBs3c4f2AdEz7dREEXHOV3e3C6oAB3j3cXNEEu0sUccDsAXPL5EXYfu8WZW7HsOxXKgvXHqG9odgxcX8ixjbNQLN7Eli0b8F+/mfDkKuqzQhj8/GtMmrOKDVu24PfpJ8xdup2Uei06qwQwhei7R/D71I8tW7Ywx2cOW84+QmPUkvngKLMnTMZv40Y2rPVj9sx5XInLk8BkTVoIUyaPY6bIt207m9f68MprIyQbQBzU51k/dmABgCpDI/GXPueD4ZNYv2ETARs/x2f47/lDHwGAor9pDCYpCDs/8Q9b4Oa2bmBc3C/l4l3AAXcvCM4EgEdSs3hufyJ/sSfBbvjfXyVyPC0Lnck9Uj6TIZk75/eRWJSMyY2gc6AAQCEBFOYovzyaJgFAYVryn4fTJPtkoS7+k10J0ruEyuaNHM0apOnNKuCWdSELoyoLP49Bz6qAK/LYM3c4S47GIp3BW53E/BFDOR5X7YLR5/4i3T3e3d9CmWJ3OeB2AJjztIzkzKfkFlZQVlVPdkFZqzbolcWEhwvJUDixiakI13RCAujxzlSupCTySHoXS2G12eOeJEnKFJIjNY21hcQ2541OyqXFVM9EZV6KudyIKJLzqq02fzSZqC/PMZf76DHFVWVkPk6mrtk3ob36tKpw84OyJLOlXJOWvJR4iV50Ug61tYVk5rZup70yOhNnazPTmXxdTetuel2tp5zPMQfcvSA4EwCOuZrCX+9L5kc24X/sTmz1LNJ0RprWnbRqZShrZozkyMOHGGUA6LjTdfCN7fwiThcSvmGFVkF4ixDPQrOQXKWRPErUND8Lt2LWP+NdAYBFSSwb8iKvD56MQqFAMXk8Hwx6l2+jZADYwc8mJ+vjHHA7AOwKvyQA2MYGsCvlOCOPUV/EpX17JCmjkDSKsOfwWYqUemcU3+EybCfMDmfqRkJ30+tGVeWsDjjQlwHgxJtpjA8rQxFeIQVx/+/HM/F82PIs0nQH1HUubz4GbQZ6o3CO7h6po6AzECSADrpv+9FdAYDluQTOGcLKUwmo1WprsGfj3T7x3vnW3eO9d3KCXIjxAAAgAElEQVRBrlV7HOgTALAx/xGLZ/gS1Sz1a69Brn5n1CtJbZYyWiSVj2wkhq6mbynf3YDM3fQs7ZR/nccBdy8IzpQACnA37E4xY+6VSmHo7WL++Ug6o0Nanm0BoEmXxtmt81m1cxMbP5mCYupIVuz/moTQb1g1b5L5+eBxdEbhozCX8vQb7FszAU/FaCaNm8jWIyep0eeTfmM1voEHqG9WLetqQ9iy1JuLkSF8tXkm52KjMJqyyQ7fy0Kv8Si8xrF0535q9XnoGpO4fmgxs2aMRjHDg01B17oNFmUA6GA8NOlIurCBcV7riEnLp76mvNk9WBZGUxlHFo5n0b5gyTtEcYzFDUwD2bcDGT5zCdejMsjIiObC2TBKxc7hfnC5e7z3A5YNuCb0CQAovopOq3PKWb/95Qu7G5AJer84ksaW2HI59FEeTLlZIBnQC5c97ricCQDHXU9h7r00lj1Ml8LC++m8cCK51bPiltjNb5bGGdXJBPq8zBsTl5NanUJ55jmmvPYzhnmv44nleeSHXEh4TH3pFT6ZPIbtZy+iVGdQkX2eFRPfZEdwKFUpB/lo5HBCc9KlsovC1jJpxqekFD7Gf/prBIaEUpl5nKnTJnE6PJza8lDWeH/Mtuu3ib+6Cs/ZK8muTqW6+gFRMY+s9bPUs7O/MgBsp+fWP+XYvs/x2/E1j7MKuX16Lw8zKyQ1cXVaKKtXr2bb6XtU5idy7NR5KoWTaJ2KmGsHWekrPE+s4sSdeHTOOVSqnYq655UMAN3D575Mpc8AwL7MZFfUvScA4KBz2dYdvra7feX7lp3PvZkXa6NK+ywA9L6b2upEEQGEvO6kom+WzIln7+C2AHAwK09cRkcBhsYkdnoNav08833WX7hK7OWVjJmxkgp1bjNAyyPh2FxGfrqDssbH7PQezNozN9AZYtn3iQe+x6+hUcWbAWDwHcK+9Wb49EXEPwklI/UGh1YOxWv9fpLubWfq4A84GnyFjOJkTE3dPxFFBoCumE37Z5kyAOyf39WZrXI6ABSOn7fElMvBxTwQfvYECHTX5W7A6a52DSQ67l4QnCkBvJidzfa4DLbEmMPK8HSeP5HM5ubn1ZHpfP0k0yphM0sAh+IfdE0CgI6fLxIZ9BnjfNahtALAAvKvrmCYYh2lpiwSzi3CY/ZKMuOPMHH6XB5XZaCzAsBbBAdO5uU3h7B05Sf4+X2Cn+9cjt6+IdkHpoTswH+FgqGjxnAy+A76btoLygBwII3Y7rXV3eO9e7WVc/cEB5wKAIXXduG3SQ7u4cHce4Vu6zMyAHQbq11GyN0LgjMBoJD0RZTkOAwxZTlW8CfUqo4BX1tAeIX8uD2MHz+RyNwEyY+gQfOYb33H4bPrmATY9CXXmDf2QxYunc3yPd+gMRW0AMCQu6QHr2HYNB9yq7KkOmgaUlHrctFo0tHr88CURdTBWQz2XsNTTfc2jMgA0GXDo98V7O7x3u8YOAAa5DQAKHhlOe1D/jWfgOJqPgh/fe66ZADoLk67jo67FwRnAsDO2sp1HABeQ6dL4PI3K/CcOoWALStYtXwWy1YHkFZvBnSQReguD158/2MuPI6TQKJVAhgShrH+Ecc3TcRz0VK2bFmC//plhCfHEHt3O6s+mc+WLSuY4zOFz89eRtMkA0B7PVyeX+xxpXtx7h7v3autnLsnOOBUANgTDZBpuocD8gTtHj67koq7F4SeBIBNphzKc4IprDZv3viuZ5MhnZz480REnCfi0XXK6lrUyQJ8NlYKv6R3adCbAVyTMZvCzJZ0emW0OW/E+eZ0+TTWRhEnyos4T3TyQ0kV3Vkg2za9LAF05QjpX2W7e7z3L+4NjNbIAHBgfOdut1IGgN1mYY8X4O4FoScBYFvg1F+eZQDY48Ooz1TA3eO9zzBGrqiVAzIAtLJCvmmPA/YAoDg+Ka9aw5eRJcy/kMW8C1nsiygmv0YrHR/XXnk9/05NaWEJOqP1LIGer5KLa+DuBUEGgN1T99oDrTIAdPEg6UfFu3u89yPWDZimyABwwHzq7jW0LQBsaoJHBfVMPJbK73bG8drux1IQ9yIu+mk9JpGol16qyjB8hkwhLNt8pGAvraZTq+XuBUEGgDIA7GgHbju/dDSfnM4xB9w93h3XRH7TWzkgA8De+mV6Wb3aTtBFSh1ep9J5fnusFF7fm8T2sELrs+fJNEQaV1/qqmh2rvqctKrOUVJVhjJ9kAchWapOZewqvU4RcVFidy8IMgCUAWBHu3Lb+UXkExqGXBdoGCpLn6ISTqB7/DJQnZ9Llco1x4i6e7z3ODvlCnSaAzIA7DTLBmaGthP04ZgyXtkVZwV8r+1NJiix0vr86u7HHI8rdzmzlKlnGD/Uk7jSzpHqKgDsKr3O1c41qd29IAh6PwpMYE1UuuSvT/jsk0P3eLAiPJ0/352A4G1/utrOL9+pYSiox9gFDYNOVUmAzxC+Csum5yFgKfunj2LdOXGGtfMvd49357dALtHVHJABoKs53E/KbztB+9/K44Vm6Z+QAo46ks65pBYA+MKOWNbcEicftFwNNfkc37OGWdM8UcycyqagOOLPBbB4zRY2b1rF9jORaHSV3Dq0mVmTpjBh6jwCb6Wgb2pCV5nIrpWzUSgUjPVewKnIp9TkPmK9zxv849/9hOFTZhN46wk4yI+hlqjrh1nmPRmFwps1G1Yy4o3RDiWAHabX0rxef+fuBUECgHuTuJxTR0RJgxycwIMb+fXSaS79HQAWKbVMc4GGQQBA/+mDCAzJ6hUAcK/nUPxOixNsHF0Gntzcz84Dd1F1UqHi7vHuqAVyfO/lgAwAe++36VU1awsA198p4KWdcbywM56NdwvZElZCwO18qwRQAMCAOy0AsEnfwNEAT2ZtOUN1fQPV1blExRQRutOD/3p3Jg/yKtHo1MSe9GPCnPWkFNZQFH2aUePmEl+sQlWczL0npWg09SRe3caoqQEU1mupiD+Kx5ApROZr0Og1xDnIn351LUMnLSUqpwKNpoK7gQt54dWPHQLAjtFznx9GZ3QGdy8I7qbnDB719jLEOc7P7U/u9xJAV2kY+hwANKoJ2TeH6f5BMgDs7YOzD9ZPBoB98KP1RJXbAsCb6TX4Xs/lVHwFK67l8lZggrQZxGIT+Ps98Vx80mKY11gezuJxEwnL1bSqfugXUxi9+Ah1IrYxj42e7zN/7x3S09NJj72B99BBHIioRF2dS/iNw6zwmcLYYe/wL2/7kKpUo0w9zTiLCthh/nS+mTOchQeisUC2+pI7TGrHBrBD9Fq1pPc/uBuQuZte7/8C3a/hQAGAndUwGNRKDq6fQ8DO3cxdup5bSSXUlySww3cR0zwn4zl7NY+e1tAKAJp0ZD88xYJp01F4TWfJzrPU6k0IbcGVbzbh7WXWVKw6eAedoQldQw3XvlnHrBktGgzxRRvs0LH7pU06Cp7cZ8vimSgUXizxX8Psj99nlSQBNJHz6Jw0vykUk5i04HMyyxpIC97HmLf+jZ89/x5TFm8gPLumw/Tk8Wf3K8iRNhyQAaANM+RbxxxoCwCVGgP+t/J5a288QtpnAX6W36VXc6jTtFjZOLKdC93riYffaaStGKoslg1+gcGTF7B69WpW+/mxZt1GHmaU8PXCYUxesZe0IiV54Uf5yMMOAHSUPy+PtqqWdm0AddUdo+eYXb3yjbsXBHfT65VMd3KlBgoA7KyGQQJ2I/6Vj9ccp7K+EZ26lC/9vPD/6hZ1qloefrOUCf4nqaixqIAzqcy8w9Rp3pyJyEdZnsVa7wlsu56Gvq6YyMQU6lSNVBXHM3fUaM4nlJB0fTues7eSU62yajBMunK7dGrt7OtQFTxk2vhJ7L6ZLGkyciJOMPyXP2e5AIAGNbmpj6T5TWgoTqzwYOGBh+h09VzfMYOpq05SWadBpynrMD15/Dl58PXD4mQA2A8/qiua1BYACvtr4QPQ90Ye7wQm8OKOOEklLO6XX8uVdu/Z1qOxIoG540fwxd3cZvcwaurqtLQCgCYl59Yp8A4MRvwRBwPVpbXoVdkEjH2XrbeKARPxFzfxxuBmAJh5nvGDJxNT0gSO8pvqubxOwWjf4+Z/+CYdKZc/56XXHaiAG3M6Rs+2gX3g3t0Lgrvp9YFP0O0qDhQA2FkNgwQAFW+z63a6ZNtXl32FCe8P5djdZEmbEHX+cz4aOovo3GYAGJxM2KHFDPcK4HFyOukp8RxaMRav9ReorasjLeEuO5b7MGXyBH7z698SGJJGVvhhpg4ZyZE7MaQX1UjzmCM6CRVtP7WBpMtbGTNjKxXq5j/GpmJ2TPrIagNYWZRM0P71kuTxg5d/xkdLT6MSKuBAH6sKuOP0kMwEhLmA6DPyJXPAHgdkAGiPK3LcMxxoCwAtCeq1RoIzazkQVSKFe9m1kouFZzwAGhpJuLGbsWOmsWHdRtYGLOHrS5mtASBQkxbCLK+JfOK7mc2bV7Fmx0XK1LXcO+jL0IkL2BDgx8Lp7/PL98wAUF2Thv/EEcxYuoFLMfkO8hupSb+H55RxzPjEl81bt7F57WxefX2EAxvA+g7Ts/ChL/y6G5C5m15f+AbdreNAAYCd1TC0Uu2CZBry/q9eYNbC1c3aBF827z1MTrEFACYRHOjDK2+OZelKcxq/VSs5diuO+Ms7GOs5i4sxRdRVFrJCYdk0YiL13lH8V85j6CgFJ4OfUJl6Gnt0nko2LbZfW0dckD/jfAJRWgAgpVbNhKbkEQvHvsmGkw8lyeOtHRPNmpE2AFCYvHSMnvsBYFq1hs0x5XLoJg8u5ShtO45L72UA6FL29p/CHQHAzrVQT3F6MhEREURFx1CiAmVpFk/yqq22eTQZqS1Mk9KIdBlF1RIJQ2MlCRERRD6KIauonLTMPKRNcZb0UdGkigItzxERUhmW/DSZUJXnEC3io+MpriojM/4JdRqLVWDrlnSYXutsvfrJ3YDMGfTUVflkZuej0j0rxRA2WdmZ6RRVqnjmD0ev/hJdr9xAAYCd1TC0BYAWjcO3ESWYvcWoqa1uQGvdBZxKevAehk1bSk6VVvogmoZ61GoVoV/OY9ySI9TrmqjJDWXaR29Iu4YbNA3ohWrCpCXq4GIGe+8hvcCs2WhL59n+aCA37Es+HDaDqIIaiV5D7n0U773IktOpKDPP4/HhRKKLTRg0FXy1+GNGrjBLAMO+nIdi5UlpE4ijdj1Lz/0AUIz37+2I52eHkvj3b+XQFR78+Z4ExFrrrksGgO7idB+n4xwA2PuYYNQXcWHvLjZt2mQNuw4FUWjPiKf3Vb9TNXIGIOsMwbb0Uqs1bIurQKU3SWqp3fGVbI0rp6RBz9msWklysDW2nJZ/wCpOLxrG3/74Pwk4n4CuFVY3knVvPy/+5G8Z7nuOgXKey0ABgJZ+JjQMdzNrORhVIoVQBxqGtgAQQyOJZzcwSjGbdRs2scZ/IYHH4lFZAWAWxvoiTmyaxZSFG9i0aR2r120iPLmMorjTjB86noB1G1jpt4TXX3mVwJAUou8exne+rzRPzPaew+fnotHo7dOx67GlvojD2z9h6OTP2LRxHVu2+DH8t79g5elU1LXp+E/xYNo8X9Zv8GfGsF8yYqWwjTZQHHmEsaMms3bvMbKKK+22yx69tuPPwlNX/ZrpJVCoykNjyJdDF3gw/HKKDABd1UHlcrvOgf4LAJWkRUYSaROiExxLBrvOwZ7P2TMLgtkGSak1sjCsmN8eT5fA38EnVVzMVnIms5b1j8pIr9FKfgK/SKhkZXhJM7MMhOydzwuvfcSXwektUmLprZGskEB+/b9/yAdLmjcR9TyLXV6DgQYAO8rQJqOeoqwEyutsvAwY1KQnP5bG9qPoWEolBUHrdHpliXXsxyWl0iA2b5i05KcmSvFJ2UXN5apR1xbxuHmeiElu1kCICtqh46jekmZBlBEVzZP8coqy0smv1iFpKCpyiYmMRMw/hXkZPMlv1oxYyo9LolpU0PIcGYmlXfbo9cx4T0CcV23vHGs57rtPBhp9VQaA9vqyHNfDHOivALCH2epW8j2zIJgBoKkJqjVGZgQ/lQCgXkQAB5Kr8A0vQTzvS6xk8f1iKmyM1sXCrtFoMBhbif/EQWEyAHRr73Etsf41v6iIOXuEbTZahc2fbyU01fUnI9l+pZ4Z7zIA7A7QlQGgbQ+W73sNB/rXBN1r2OrWivTMgtB6F6J3MwDUGps4mVHLyCt53C6oJ7lSw+GUaiZcz+dIqtlGChq5u/cz3v39KA7cTUOjayDh2j4++sObvP72O0yfPZX/+l+yBNCtnchFxPrX/GKgJD3ZKlkU2gVh8yxJ+lzEP3vF9sx4lwGgDADt9UY5rk9zoH9N0H36U3S58j2zINgHgELVK3YMDr2Uw1/sSWTijXw8ruXxJ7sSGHvNYgSt4vSSD/jhn/4U/6AYsh4e5fV/+hv+8T8GMXfxQt5/6af80Z/KALDLHaIXZZTnF+d/jJ4Z7zIAlAGg8/uyXGIPc0CeoHv4AziBfM8sCGYAqDGY2JdUxRtnshAbPeaGFDLuej5//9UT3j2Xjc/dQubdK+Sds1k2RtA2APDkfc5uncwP/vxHzA2MQGfSEXval589JwNAJ3SNHi9Cnl+c/wks4z2nupHcCiXZlSrJRZfzKZlLNNPrPgCs1+WTXpPrMBQ35GEwfbc9XXeAWE/llVXAruqdcrnd4oA8QXeLfb0is2VBEBsJ3HG1pSfs/AQQ1BibJJs/cT/8ci7/dSSNtVGlLH9Ywm+OpdsHgCfCOOE/nD/7q79l3TUx+Rt4cm0r//EjGQC641u6moY8vzifw2L8/dUXCcw/Gca/+GzmxxNXMv34fcqknS6uoffc/u4BQL2pgPn30vjBngSESxR74fnjySRV5tJE/wOBMgB0fr+US3QCBxxN0MLHVnWjnqe1WilUNxpotu93AlW5CGdyoC0gc2bZ9srqCD3Rr4TvsDFX8/gquUq6F3Hmy0YCeOoBwV/O47n/8QPemryV8MRoPp/zDn8mq4Dtsb7PxTmaX/pcQ3pRhcX4++NtMfzdzC187x9+zvf+/C/5ny+8y5YHOS6ppXm8dw8Aih3E/3Agif+5P9kafrA3ib8MbIkTz0GZWf1yp7EMAF3SNeVCu8sBexO0Rm/iamo1M89kMGhfghRmBWUgjnHSGtru2uxuDSz5myhJfcC5Wwk0ms+Ls7xwyq/wC3gz6IrsB9AJ3OwIAJx8s4A/2hkvSf0m38zn+zvimXRDuJEQlw0ADIqjuigR3zH/yl/86R/zg7/8vwx67/f8+K9kCWAzs/r0j735pU83qBdUXoy/729/zF9M2yKBv+9973v8w389z7TLqS6pnbMA4ItnMpkaXmENb10p4I3L+Sia48SzDACd8wllR9DO4WO/L6XtBG0wNXE0toy3AxN4fnssr+6OZ/g3ydL9W4EJHIouRfeM6w5nsMnekUr2ylVTXlTafKawvff241SVoUwf5OHgiDj7ecyxXaPXXonOftcRQOZMmh2hl6PUEVnSYA1RpY1k15pPZhDnPlfmpxIZGUdRTaNUNWVJhrS7MjommdLqChJjhT81m5NknNmAXljWQPMDKDQMVbKGoUs9UYy/H+5JYPaFOP76TQ9+9PPnGb7xEFdcdNSYswDgr0+mMzqk1BpeuZDHi+dyWz23AoCmbHLjD7Fy6lgUirEs8V/C2gVTOXgnTJISNpTcYPvKmUzzHInn7E959DQJg/oJB9ZNYUPgZlbNm4SX58dsCbqEUEFXph5n0WfT2LV7EXPXbqNAmULWgy/4bNo4FF7jWLJjHzX6PHQNSVz9ehEzZ4xCMdODTUHXui2VlCWAXerqciZXc6AtAHxcpOKjA0kS4BMA8LW9yZx4XG59Fu+SSlxxPkPHAGB9/jXmjPEmvqxznOkqAOwqvc7VrnupOwLIukehdW5302tNvX8+DSQA6H4Ng4rYCyd42GF/fZ1N794+aRl/OUot3ySVszIsn5u5ShoNJiJLG52uQXEWAPz9mWRWhqdbw8grKYy5ltLq2RYAqgrOMW38cHbduINGk0pu5B6G//JfWH46GJMuji/9xuL/1VHqGp4QfsiH8av3UF4Tj/+Iv+edOesoqE2jJPErhoweQWhOOqVx+3jzl79g8+1gNNpsqjKOoZg2iTMREdRV3Get98dsvXab+Kur8JzjS05NGjU14TyKfSQDQPd2cZmauzjQFgDuul/ESzvirIBPAMCgxErr8+92xvHFw2Kb6hkoLS5ETOrmq+XZpGsgN7sEZX0V2RlppKWlUVSjaT7DU6Q2UVeaS0a6eJdB6Ak/m0PVDZTmZUh50nIKpPINmjoeX9/BR28P58z9NIpr1BLJhppSMtLSpHOE67UtGyGkM2Ulupnk5N5iWrsSwI7Ta25or/mxLAg9tQmk1zCiD1dkoADAntEwlLLXcyh+pzuqIu1Yek1dBaWt5jP3dEBH413YaJ9Ir2FvQiX1OqPTKuMsAOh9V/C/ZYOHAHvH0zNpajLHiecWAJhD0qWVjJnhS4U615zPFM2OSW/jdzqYuuxvmPD+uxwNvkVaWgiR51bw4dCJROfG46/4HVuvB2OkAF19DCs8f8+BsAcUxe1jyPBxJCgzwJTFw0Oz+NhrIXFJIaQ9ucY3K4bgtX4/SaHbmTrkAw7fvkxaURKmpu6fgCJLAJ3WHeWCnMmBtgDQ90YeL2yPNQO+HXEsv1HAtdRqKwAU71bdsBjzg1qZyrwpo7nQLJKzfVZl3WPsu+8yf+0GNq3zZ8V8BaMVPkTkiLObTOTFXcHbezZLV/iyfqMfc8a+z4c+gSjVRhqzbuC/bDH+/n7M8p7Gmm8eUJ6fzAH/sfzq57/Be8UWzjwqwFCdyNZFM5j36Qrmz57BnN2XqNMaMNSmsmvtEhYtEmWsYtmsSbzx0lCHKuCO0nMm751VlqMFwVnlty3H3fTa0u+PzwMFAPaMhqFjgK6lX3UgfZOOiCPL+XT9BVT2DuxtKczpd+2Nvwa9STp5Z1tcOWon2Ws7AwAqtfmsjUpnY3SGNUy+mcq46ynW5/XR6SRUNIM9sokL+oxxPutQWgAgsez1fFcCgMrUvbz/61/hvehT/P0/xX/1J2wJ3EFOcTz+018jMCTMDABVLc8CAA4dN5lUAQCNGYQETuaVt4ayzNdcxmq/eRy/cwO9MZ/U0F2s9Z3K0FGjOXHnDnob4GoLYjt6LwNApw8DuUBncKAtABQSwPe/TGTiiQxOJ1Sy4kYBE46mWgHgizvi2B5WaCUtAJ/PuKEExZVKcbbPqqwQhr36G9acjENjEkdxqji7cSKztt1A2VjM5/PHsO50tHQWrFFbwfGlHrzfDAANqgoyC8vIzkgl5OQGPhq/kCylGmXqacYN9UQiZ6rj/OYZzFh/knqNEe3TB0wdPZEb6ZWEBc5j/MK9FDeKQ0ANZN4N5N23RzkEgB2iZ21177ppb0FwRU3dTc8VbehtZQ4UANh5DYNQFOgozc0mXUj5c8vRNbsjqCh5Sn1DDXkZZk1BRb0tEmuR6OcVJrFryndJAB2nb9EkpJFWVIOpqQl1eRpH/ScwZvZW4tLNGgpH9XR2X/uu8SfcMQn1sPlQxu5TdwYAFEBJgMDIkhyHIa3aAv6ERDCX3Psb+XDYeCILkiQJYENuEJ7v/Yolp4NprLjJ3PHvcygiplmCmEFtdRpaG8AnSQBtnlsBwKYcsoLXMmyaNzmVmVL5moZUGrW5qDVp6PV5kpQw6utZDPZew1NNi+Syo6DPNp0MALvfD+USXMCBtgAwsaQB/1t57LpfyIdfJUnqYKtEcHss7+5P5NHTemtNbAGfiLR9FgDQY9A07parrOlTTq1i6NRAsivDmPmeB3czLGXpiDuzmrHNALAo5gwbAxbju2IFi2Z58Kv3fEhtCwBVWfiNfpNhM/zYuHEjG9cs5v2Xfs2esGQCpw7D92Syla6q4l67KuAO0bOW1rtuvmtBcHZtBb0fBSbhH1nKxugyOTiBB8JX4p/tTkDwtj9dbeeXzmoYJE1B5EmmefqwbMUyZnhO5XhUNjpVJQGeLzB4+nLW+vrhN28cU9cdpVzsKdJVc+PrjcyaPgt//zWsXrmQoS88z3JHKuD20jfpibt9UJqH/P0XMWnCTO4mlpIdcZoZH7/Er98ax7Jt35BcpCTPTj1d8S17Yrx31w+gLRjq8H39Iw7vmMbQSV5s3LCILVs+Yfhv/52Vp4PBkEHiuSWMUkwmYP0y/FfPIPDYdVQ2gK9dACgkevWPOLF5IlMWLmbjxkX4rVtKeHIMsXe34TtvLhs3LsPHewpbz11BI0sAXdGV5TJ7mgNtJ2jh5uVgVAlvfBFvlfqJzSAiiLj9ESXojS3/LdXKTOaNH8zJmBKpKWplIjNHDpEkgmYAOIXgMgsANBF7aAnDvQ+SW/mQ6e+O5GZ6XTMLdEQeX85oAQCrc9k67T2WHwyjXmOiOPoUQzzsAMDGPDZOfJt5285Zz+d8FBNLqaqcr2YOY+mReOu/YNXT60x4Z4x9CWBjQcfo9fTHckC/JxYEAQCv5NZZd/na7viV71t2P3eUFzfz63luf3K/B4Cd1TBoa57gO3sSX95Ol2yGc65vY+isbWSVVeI/+ud4brxAnQkaimOYNGY45xMrKX18jgmTvbmRXgU0oS6LYv4fXmalAwDYbvomI6rqQoryhAQyiX2LRqH4/Bpqo5qQQB+m+wdJKmBH9SxwwX65zox3lVAJJ1WRXtN1iaCZXvf8AHYY9LUBWobGBBIiLxIZdZkn2TfZ5PkhX9yNMdsEGjLIeHKdyMiLPIq5SqmqgCZjDkVZNyivN0v1bJ8N6mTSs8LR2dDQK2Ok/KKMuKS7NOrzUSsf8VjQjLxIzJPW6bvaDlkC6GDxkqN7lgNtAaCoTaPOyIXkSqacSOP1PY/5/Z54Jh9P42xiJSpta+NiQ2MVu+e/z8JvI1AbdMRfCOC3v3zbCgCHv/4iy7alH8kAACAASURBVL8JR8yDqpIElk4cz8YbKWjrn7Le8z1Gb7pIncaAoSKeZSOe52UBAJW5bJnwPr5B6ZiMWi5um8Iv3mkGgAXXmPThRCIKhGpXR/ThJXy8dB/l0kSrIv5BEjWNKmIOLeJ3k1bzRLzQVXNh3TT+6cXB9gGgrqCD9Hr2Wzmi3pkFwVEZnYl3N73O1K2vph0oKmDhQUBoGHZKGoZEhEmJrYbhD/sTibbRMChTz/DRf7/E7OUbJCm/77xxvPbOBKKyK/H3GsTeuxmIGUmnqmD1tEHsu5dC9Nm1jPPZS63aMleV8sWUIQ42geiIayd9k1HPg/Pb+WzxElb4+uE17HlGrDyNqg0AdFTPuE56K+hI/+3M+DM2NRFWpGJBWDEJFeZNcx2hYZumpwCgrjqcu3EhNOqEOjaX1BsBDJ86l6hiM7jrKhjriXwyALTtUfJ9r+GAPQAoKmc0NVFcpyOtvFEKJXU6+yeBNBkpizvP3BkTUSgms3TtWqbO8OFqUgVCAjjq9aEs9vfDW6FgosdM1n91A0nJ1WREmRPKyrkzmK5Q4LN8E7vXfcYn/kep12jJCj3KZI8pTJvhjVC9eH3iT3a9BqO6jONrZjNyijeBt1LQV+WwL2AuYyYqUCgmsmrPZWr1oK/N55vPlzBxzEQUs5ex+8AuZk/9jPBce3/JDR2m12s+nE1FOrMg2GTr8q276XW5on0o40ABgGYNQ2mHNQzKzMuMHjSEg5fDiYqKksLj5DRqayrxnz6IwJCsZgBoeU4h9kIAI6duo6qx2SOAoZBNkz5ilV0JoPlPq6P09dk3mTFyOGdjyyUJ5J0dU/DwswMAHdRTMkF2cj/s7PgTJpPRZY0cTa2WjmrsbHV6CgCa6u6za+VUpitGo5gyhk8WLeRO2mOz9M9GitcTgK6zNGUA2NleJ6d3CwccAcDOEtfrtGg0GnR6AwadVgKQZhXwdO5V1KLVaKT3+jZOpI16nRSv0eppwohe3zxpN5nQNecRjqf1evG++TLqpTzWU0man830Lf/6xXxtaKarxWA0otdqEf+I7V6doWe3gJ6L7OyC0N2aupted+vbF/IPFAAovkVnNAy6uqesmymkd4/RGMBoKCExNo8GlQXwtQWA6VQkXWDo+0P4Jjzb7G0g7Fve+NXPWGIXAJqoaie9suAaoyTTkQZJg7Fw9AsMWXYalUlD+KGFTFr0LXUaE47qKfQUzr66Ov7Emd1duXoKAAqQZdRno9FkSkGrze6z5wTLALArPU/O43IOOAsA2quoBQCGVlpsAO2lcm+cWpnGF5/NRaEQEkNzmOu3naQSjXsr4kRqXV0QuloFd9Praj37Ur6BBADFd+mMhkGZcoNF82dI49VrlheHrmejUVWyd9VUjobnSl4ExKYQ67NBTdydryUNgmLaTAL27mP9PC92X8+23yXaSS+8E5xv1iR4L16N/9IZfLb7Og3CtjD/IYt9pqJYvIHwrCrs1dPiHdU+4a7Fdnf8CYfRwiZQZ2PL3V5NehIAdlbS1lvTywCwvR4mv+sxDrgSAOqqcgk6fIE8G+fMPdZQK+Em9M2SRSExlIIkGbQm6HM33V0QOttgd9PrbP36YvqBBgA7+40MFk2BRoPFvZ1RLyT7LVKtVs82En2tzojRoG8f8LSX3qJJ0GoxGPSI8iyXuV5mjYeIs1dPS1pn/XZ3/FVpjGyKKedMZm2HVMKC3o8CE/CPbO3Hz9ann3zf4t/QHi9+fSxJOhfdWX3gu8qRzwL+Lg7J7yUOuBIAyix2Dwe6uyB0tpaO6NWoDVx6UsWSKznMCsog4HY+kfl1WFX1nSXktvQGqvJyqGzlR85txCVCMgB0B79rCf5yM7NspP9e3vM4Eyl8vPWdy9H460wLihv0rHtUxoVsJeJ0lvYuMwBM4mpuHeJMbzl0ngfvnM2SAWB7nUx+1zMckAFgz/DdmVSdsSB0pj726JXV61h+LVfaNf7yzjje/OKx5ENSOBU/GlvWy0FgKfu8RrLubFpn2ODUtDIAdCo7HRYmJIFWyb/Vxrh9AOSwsB56YW/8daUqSq2RfEeb+2wKdBY9myIH3K2711lZAjjguljXGuzujtm1Wsq52uOAuyfotvQ0BhNbQwsllx7CX+R/b3/MnoclDNqXIPmPfCcwgeDMWvu7yNtrWGffmco5HbCIizGVnczZgaO/7JXYZXrPFiYDwGd5IsfY50Db8Wc/Vedixd44rY063Ta3K+jZlj8Q7t29zsoAcCD0Kie00d0d0wlVlotowwF3T9Bt6SWXNjD0YLLVcfivtj3mVEKVFQAKUDj/QhYNNrZTbZrgnEdVJqvHvssX99wEALtM79nmygDwWZ7IMfY50Hb82U/VudgKtYH9SVVUia3WbS5X0GtDot8/unudlQFgv+9Szmmguzumc2otl2LLAXdP0G3pheUoeXlXnAQAhVPfV/YkcuFJdSsAKACi0nZx0dcSefUQS2dNRqGYxCS/w6RHX2Php/PZuSuAeWu/pUBZR9b9E3w61QuF13SW7AiiRm8EQy2XDm5k1jRPFDOnsurAbRrqa7mwczr/9ffP8bvBk/lk1zlqVA3285t05CeFsmmR2FnqxRL/Ncwe9p4DP3HCsr+D9Lrh9E0GgLY9Wr5vjwNtx197aTv6Tm0wcSS1mg8u5DDlZgGKW+Yw7fZTXjudKZ1SI/qofHWNA+5eZ2UA2LXvNOByubtjDjgGu6HBrlgQ2qt2W3oP85S8tvsxz++IY/GVXLaGlbDnYTGvirjmYwRHHnpCnaZl92T6lTUMnbSUR7mVaLVVPE7IpDDqNG/+6rdsvp2CVqujKuM2imneBEU+pa4ymwDv8Wy9loq+roSoxFTqG9RUF8czd9QoziWUY6hNZsWot9l1uwitTk+1g/w1uQ+YOn4Su289QatVkRd1kuG/+rnjs2JVHaHXvcVRBoDt9Tj5nS0H2o4/23fduReuebxuP6VIpZfUwUIlLO5/vD9ZBoDdYSxIG0DEWuuuSwaA7uJ0H6fjDABo0jVwff9qpk1fxLnwdAoK8qnvVa5f+vhH+o7qu2pBcES2Lb28ag1Lr+RwIq6czSFPGX04xWoPKADgCztiCbiT37IRxFTOgTkj2HA2U/LhZqFTGhfEkOHTSVCqwaTlwaHFfOy1ltjEVFKT4/h6uQde6y9QW1dH6uM7bFvmzZTJE/nNr39rPhFClYWfxyD2hla2kz+IiLOfM2bGViosR4WZitkx6SMHR4WBQdMBepZGdPFXBoBdZNwAzNZ2/DmTBd7BT7GV9Fn6pTin2ja+szTVVXmkZ+baXRd0DdVkpafytKK+xdl/Zwn08vTOWGc700QZAHaGWwM4bduOeT5LyZbYcnKUOlKrNWyILuNitlLikHAeujmmnMs5dTYca6I07izDxy8mrlxJfdUT5g3/gK/CsqUjmmwSOrhtoiT1AbcfZkqe/h0kkqPb4YArFwR7ZNvSE14khPsXoeZ9aadZFWyR/Inf4d88QZwBa71UWZKtngTUrJEgAODQceYzn5HOWp3NK2+NY5mvP/7+/viv9uX4ncfEX9rBWM9ZXIr9f+y9B1hUWZo33jPfzGzvzOzO7sxs+M//292JO2G3p3u67e7p3Go73bZgFlGJiggmDIgJEZRgFgOoqJiVYI6oSAbJOVeRqSJUkaqooooKv+85p+oWl7JAwKqSUPd5btU9N5z3nPee8LvveQMPImEjtjtrQ4KxAeCAz2ciPdIXtiTmNAMAMYgRiFqFontDoMeqx0gOmYmW8HY8bfrjy3iq2+uqi37/M2Y5hgIAybxwILsFIrmKgsIjea3Yn90Cfncvrld2ICizhaaZeQMQI2KjNX768z9i9418yPp5x1aCE38C7//nzzDL+zqNGW/M+oyWvMzdDywAcLS8+VFeDnbDjK0XUVH//xdWjA+uVeBEgQC/PFuCP10oww1OJz6LqsSvwkvwUUQlUnUTuhKcuFA4bD5CJ1SVQoqakgK0iGRDq7mqB4lnPODqGw2xfGiPWO7qzwFTTgj9KWlShuiR5d3Tz/mwOlNE9QHfP5xNXcI4XStHHKejv68xVRduBjhhafAjSIlOHxQQCsXgZbEAoFoBbuwxzHT2QpVAE6Wlp1sEiUSEhFNrYOt1ESKZGu1V8XCe/rlGAiipgv/Cr3AkthkY6HmZDNVJp/DtzOV4XtdOK9RdnQiHv00yHCpMKUXiUOgZYtQwzk0UAFjTJafLioQ1xOCAgIl6kSbOeEW7DGVtPShrl4HopI22jUqqapohN+A3T9qZi6D1vsiul5q82Ib6n7GIrnzWQMd28l7IntTYjZ+d6FsCJq5jNibx8O6Vcgr+zhQLcaeqE6RMxK8geYfP+d0IyRfAO5WvLZYC8aEeeP/TGQh7VtFP6g9o5o+3//1H+MYrEqMnZpSxOKrJhz3PGjdnw7lZAKBhvljO6nGA3TBJJ176pA5p/G4K8ggAdHhcB8fHdRQMkmWAa+Xt6FGqdTF1exsy4OexAB9PnQm/45dQwe9A8qMo5DV0oItfiivRD5DwOBL7w2PQIpGjISsawQeCELR3H25n1qAh4wo8FnyID6faYnfIZVS2sCRF2rKKaT4PkZF8D4eDghAcHoX6Dk2UTZWiA48vHUVQUBCCTvQ931Eej1uPEpFw/QIOBAXhQHQyRF0teHb1DPYxacYoQd6mO8+UU49NozppygnBUMUHokd0iIik73J2M8Ke83G7SAjeAH7G2isS4ea+DCvXbENQ0HbsOv0EnNRIWNuuRClZAiabuBHX9rrBYUMAgoJ2w8c/CKlFzWjMjcRi60XYvTsA23Z44dOPP9YAQIiRdHwDZi3fhgPRKRAJ6gw8L4Ra3IiLh9fB2m49ggJ3Y98+H8x57y1sNxgrVgHeUOkx7ckQ015ybiIAQAIo5tyrpuMJGUP80puwI42P1fENSOZ1IyizGb7Pm2DzoIY6KH4Jy8x8mUiqTuJvsz1QxrRPVgnEggS4TLVBHMf0EGag/scqzogPiQSPvANmJ++IzBHMEjDBvu0yJVy1S8XEiTTxohhWJKSAj8QbDi0QwDOJ12/JWK2N186O3KIppBKVcaGwAMARvzKDD1oAoEG2WE7qc0AfAP73uVLMuluN350rpaBvZVwD1sY3UhcBZBDYlMyjHuGJ2wCy9XY1IuqYJ2Y7b8LjtHw0t/Dh66JZkmvMicaX7/4vtpy5juziKlQ8vwbX5esR+SQR8Ym3cOleKboai3DMcx5mugQiNqMI7QYsKcnS4Jfv/A7rgq8gJSUeh70WwWn/HSoB6uIm4PTVu0hPT8Glw5vguvkshBIFSiO34Le/n44D5+4iOfEONtlPxyKbtdh/5rYmvXQejt0rhlrVjdhzO+G+cR+eJsbh5E53eF9MgGIM+YY15YSg315I2jj01JB28pCXno709HRUNrZDIe1EBacWbEFwb1cTvU7uyS0qA20eKhnqygrp+aKqRvC4fRJn5v6cykZt+zTwPJE5SoUoILQzslBS2wIetwK17WzKrJoPgx7rqWEdTgQA2CJRIK5BDLLMSIACAYRKtRoHc1qpmkmXXEk/PomaSTvLYGhYjDTZzWrIxK0oLe/fPhly4wUAMvVh/xvq78xSMTEUuVrejnn3ahBTK0KBQIrzJW2wfViLC6Vt2mwkiD2+DlM+mYvTz8rQI+9G7r0QfDP1c3z8xWQsc3fCn/7FIgFk8/xVjy0A8FU5OEGeZwNA8vVHrMCe1Inw50vlFPR9/0g+/nSxDLH1Yvpl/r0j+fQa6eiaTSPCd/XW6FSRoOxsADjjazuktpKv4l4UP9gPm5lrkMcnodTVUJBlHqqr5Q6XQZaACQCcPm02HlcT3UMVapPP4Bv7Tajv6gFUCjRxs3DmcBC2rVmMd6evol/opZHe+Nsif1RJNUtJGadX4mt2OtwD8zdeQmNDPFxtbfGopB1qtRqtGeGwWuCJUs3q4JhoBYYGaFMW3Nz0TFmX/nmLkaWVGFOJclAQ9uzbj/iSlv63mSA1EQAgYRupJwEPZCPg72yxEO7PGqj+WElbD41RSz4ymQ9MDavFyIzWSPL37T+D2PgYXI/Jg0SuAtRK1GTH0JWBoOBw5NZ30CXGhuybuBuXjBitxP/so1x6P5FEJT2KQkbaUxw9dQl55H66AnCargzsP/uIrlRo6Pb/pSsR1zUrGYAawppsOu4EBQXj+pNLcJg89iWA/WusSen3d/JtzADA4/kC+s6s71TjzWMFWPKoFgsf1OD/BOfTf00OYkR6fYMfff9X8I3OQmXyRXzyX/+M//zTV1i7eRO++fBX+O73LQDQEO9Hes4CAEfKuQn2HBsAdsqV9MubfJ0TXQ6SzmiSgAzMxEk80f8gaaKn0ycgGxwA6pT6oYa8W4AbBz2wxHERbNbtRUFNG9RDBIB9+bCMBdo7ERfmCed1m3H1fiIenPPH5DkaI4LSSB9YO4agSfs+B0qXl0Ziyn//AbNtneDk5AQ7G2vMXOKBwtax0xD0B2hTl9zc9Exdn778FWiqLEFGRoZuz8zKGVgy2PfgKx9NNABIwB/RHyN6Y2XNXeDU8eleWs3DpvtFuM/RSo9UMiRc3Amb5TvxKC4FSXHR8JjxEb6gRjy94GVexWo3D5y/HYc74YFY5BGE2g4ZEo7Y4DcfzEFI1GOkPb6KFUtm4XxKI+gH6vxfY8qaPXiUlI2WTiFrBSB+0BUAtpFSa34klrl44GRUDDIyYhG2zRHvvjt9zC8BG2rI7P5OdDOJatAX0RxqCLImvpFK+35xuhjTbnDh9qyBLulPvc5lxb5lAcBrSbi+3x4//PufYE3oc8hVcuRE7cB//9wCAA3xfqTnLABwpJybYM+xAeDIqj5UAKjJXa1SQCbi41aQO+Z4nEZLjxRxoe5Y9hIJoEEA2FgIX9tpOPq0ESq1GnWpF/H1MAFgRX0CHObYIKakDTKZTLcb0PMeGXvM8BR7gDYDOSMtAZujpGOHxkQAgM0SBZUWEQOCR7UifBxRiW2pfLidi8N6/xNUt5fo967zP4nHqQX05cm6SuC1eBaupTdoPjpVUiSGrcMsAgA7G3F01Sx4XcoB0T9VCwuxdo41Lue0IeHIYkxfvh8NUvKpKse9vYvgcCgG3WSFYvGn2HsnH0SJRTKMFYA+ANiKyK22cDv0GFLtQNFedRfzpiwY9wCQvBSi90eWfslOhAXkf87darpStCu9CdtS+Hj7crlhAHg1EVd95+Dv/uFn2P2glhqAFT84gD/+xAIAjTlaWQCgMbk5jvMyHwBUoDQ/EY/upaK0tBSRhzdiRUAEOpRyFN0OwqJlu5FeXKW1Cu3P8L6BV7PsrEu31+K8lwNcgm6gICcNhzd+g199PjwJIK+nDRH+TnDyPY2sglLkZD7EnbsF0Nid9i/HaE1ZAOBofTNDL9dEAIAkZnR+q5SuIjSIe+k/WVE4fDsNV24/xuLVQdjgewIPYlORlltJmfeibp0cOdFaNz6CcmyZMQmfzCDRZJzg5LAI3/7ta1zMaEdCiCNsfPqsSpl0G0tFhdifdw5jBUA37nRWI8TRup/fyBfLOfR3P9w7R2N/J/PIG4fzsOB+DTUIIcfknGZjSQAjkhF7ai3+5Qc/xBd2+5Ccl4F9Kyfj7yxLwMNtBoPebwGAg7LHcpHhwKsDQBXaqjNw72ka5Eo1VeR/dv0k0jgCiPgluBZ9B0IaA1YBfskzBPvspD7dDpy5C363VumeWHuGHYLvkXAU8V60ohP3ywdgp7sacnF01y747z2IGzGxuBKloccviMPZa88h0lZ00HRXHa6ePkzLFbj/EFK5EoY9Y+J/NE4IY4Jxo6iQEwEADsTuh4k5OB0VgxlOfth15CoSM0tQwtW4EOkWZmH5NCtE5TZr3IeoehB7chWmayWAJ1ZbY3tEvk5y39PTA6JazAA+ZjRh0voAsGsYKwB9ALARFzzmYFVIEjS+CIDO4muY/uXcCSEBNPQeSfi47wZrQJ9dTC2+E5wH8q/ZxIjcPB0//v6v4RudgzZeIXbY/Dd++IPv4Yc//k9M/fpz/Os//tjiBsYQY0d4zgIAR8i4ifbYqwNAY3JMAWENF2WlpVRKSCSFZG8RDWCdaUzSYzgvCwAcwy9PW/SJDgD3h9/Drdhc3H6Whx2Ho1FVL6ScUREJ/W4nfLnMD6lZBchMuI0VX/0vPtbqAFY9PYk5rptwL5WMFWm4HpWApi7ZkAEgzX+IKwB9ALAbVU9O4NO5y3CGrGgUpCHMewl+8+63ExYAVnfKdRJdItUlO7eT8QWrgrCuDBkZeeC1az6uu5oqqZ5tVk4xmtoFKMwl1vjtej4Cx36/Zmpg7nnWAgAZzlv+B+WAuRvmoIWBGM+vn8NuEvVBuxPJXqzOncDgT0/UqxYAOPbf/EQGgJW1fIRejcGNJ5lIya3C4+RiVFYzToQB9DTj/vkQ7PL1xcHwm3hwbgtcNl2gbqDQ243cmPPw2akZMyKeFaBXBXDTb+Pi4yIwEIRJd0s7waxQ6AzZhrgCwF55IN4LypKvI4isaOw7ibjMFEScvAiOgKFoujZp6e+m462pcjb3PGsBgKZ6k+MsX3M3zHHGvlFRndEyIZAJVSRToqFThpr2HjSJ5Ogl5uOW7aUcmMgA8GXM6WxvhYxxzNlVhzN+K7H9dIJeSLGX5TKc69qViJISlLD20bISMVr6+3A4OtHvNfc8awGAE73FDbH+5m6YQyyW5bZhcICZEMr5QlxILsDRpHIUNYtgKktmhh4BLcymVoNGAdn+sBrTwwrxRUgeFlwowfEUHppNuISv7G3Ao6i7usgwTHmM8y9G1s0rSLb4ARwxO191fFHJunD/5Gas8fRFYGAgtru7YkXAKVQ0m9JMi6xEnB+1KxGG+t+IX9AQHjQ3vSEUaczd8qr9YLgVtgDA4XJsgt5v7oY5Qdls0mqTAfpHR3Iw/9gt/IOVG74/aTo+2hqKbD5jAmNc8voTApHxZdSJsPBiCUgM4A+Dc7D4Uin9/+hILrY8qIagm1GXN25ZhmZ9qYCghosOCbH7HM7W9IK159CeHj49iwRwAM6qVegW1CBH65sxO6cEAwVsGSCHcXdav/+ZuoLmpmfq+ryO/M09z1oA4Ot4y2OQprkb5hhk0agvMhmgv3MwG286+OONH/8Ub3znO/j7//g9Vt0vMUnZ9ScEEnpv7S0OJh3KxnuHsvHng7m4kifA1BP5NE0A4bnMZpMsBw8JAMrrcNB5FsKSBMPkxwgB4AjoWQDgMF/NBL5dv/+ZmhWE3k9CCrHzeRMCM5st+wh48PYltl9EU78xwAIATc/jcUHBAgDH/mskA/R3D+XgPzaG4Ts/+Vd873vfxx/+Ng+bnlXRypHg7SS0Fom+YIxNfwLKqhfpwB4DACPyhf3OOVwto/qBGvoqdPGrdBaBJLwfO93Gb4BQKgGvupzqYHFqGkE9CWkLL+9uQ2UZ0c8qB7fqMZZOZUJwafIpK9XobjW2aSwOW8ufYM3Mz+F9PgUl9ULqNBi9XaguL6P517d0sSLb9IKvpVtVX4AjDv39vfXn3zDo9X/whdR4BoAkQgSJJmTZjcOD4NxWkLjsbBWMFxqUEU9QABhaiAc1XS9Y+jIWv5Z/jeXzQHzoHxnFiC9ngKwsAHAAxlhO9+eABQD258dYTJEB+p9CCxGex8fv1x7CP81bD5drqTRkHwF9SY1ibEnhg8TtJCH+XlU3UB8AxnM76HIvAX8fBOfA+lwpUmv7g8LppwvR2cPoDIoR7bcYy08ladndl1ZKO3FijRWmzl+FPbt3wNfHGw621gh+WAHyuKK9BMF+XvD09IKvrw+2utnh8/etNe43xLUIPRyA7Tt2YoefB5Z6hqCaL0D8hU347L//L7519MThqATIJK24G7wRdvZr4eO7BQ4eAShq6QbkbXh4JhArlq+Ar+8u7Ny+EVaT3sXWyFLDzWKo9Ihjupds4xUAEsfAxCfcm0fzLbsRefAvZgaA5gScL+kqY/KyuedZCwAck83E/IU2RsNs5dWiS8ZM7uavw0SnyACypu5elLfLkNksQaO4T+eOhG4ifroiKjpwi9tJHXYTnhF54Ehkggw9RgJBJIDfnCrA7HMlOJTIw8EkPhyulmPSYc2SMAGGRAIoljE6eGJE+tjAMSRB++r60gQAhrp/CqsNoWiQACR0YEVMMGYv8UR5hwgJIauxyDMUfAmpnwKc+BOYNnm+BgAqpOALhVSCl/s8BsuspiE8pRZKMQc+NlMRkkCWgFXgJp6B7YrtyG2QgPiBC/eyg+fZFFRnXccie3fEVBAfdGpIWzLg8be/YvtAAHBI9IbWOscrAKzskFmkRlq/eANJh0ZyPrdFExVpaK3r1e7S7++vltvEfNoY8+xwOGcBgMPh1gS+V79h6oOCl6VJcPVdbt8iLJELZnofOjvVIwIgQ89/Ytw51AGavEv2MnBpWw8ulrajtmt4jrb16REdwL1x9Qh7zsfSiHIQww8C+pid6ACGZzZpll7pK+kDfJo31JfWAEBb7IzKBlMqMScONl8tQ6KAg1CnmdhxrVj3YsWCeN0SMPHTdvrgRmxctw47d2zH5M8+RWgcpz8AVEoRf2IVPp+yELv8AxHo7wvX2R/Czu8qEq/ugq17CDqkTEtuwnEHq34hv3SEoYlI81J67AcGOR6vAHCQKlsujREO6Pf3MVLsUVVM/XnW1IWzAEBTc3ic5M9umF1yJTYk8vBxZCXOl7ThUU0XPrhWgTXxjZAoVLhS1k6veSRo0oQFBAD6ukzVTLTD4okCRQ9DcSgsFmJmph/W85abGQ6MdIDukCkRWdGBTck8hBUKQWK1GtpaJAraFi6VtVPpoT49AiyJFbDNhZJ+Uj9mSXjdbS74/UCmBDf9F8L+SKz2A6ALlzcvgMPxBGgA4AJsv5alA4AdpTGYZ70az4XVCHOdic0XcnUfDuL6B1g8ZQHiytuQemEblqzdj5JmOeRi+jcp/gAAIABJREFUPrwdte2SLQFUSpF8dj2+sduB2OR0Go0gIyMDHF4z8m75Y67zAQgkWmm2oh577L7FDkMSQJVsaPQMMdTAOQsANMAUy6lRwQH9/j4qCjXGCsGeZ81RdAsANAeXxwENdsO8wenEj44X4KsbXPx7WDFOFAhoQO/Zd6tpgO9fnC6mwb63p/JRLNT44dIHgGq1GrqdzR/98woJ4kJXwmVnlMajP/te3TErL+3zuktkkY6Vp+4865zmuuZK3726O+lB33kCY8bm9ioDNNEHJMC/kqUbKFWo6Ln2HiUul7XDP6MZ4SVt1Povu0UCQ/TIMjNZCva8W4VpJwvw0dFczAovwtHkRvA6ZTrAxnC49Lo3vnbbizqxCsLqBCz98h0sDGYA4Jf4bF4QOJ1SKBVS3D64Fm77rkCk6EHWuU34cIkPCpvEUMuEuOm/FL+cNANxFQKknffEjBXH0dbdC278MUye9L7mw0RehwNLvsH+B7VQq1VoK7yFuTa2SKrsgFqtBK+6AtX1bRAU3cbMb6xwJplDl56rE87hs7d+By+DALBniPSYGg/+bwGAg/PHcvX1ccBQf2eXhq4SqUemTsLOZzwfs+dZc9TTAgDNweVxQIPdMElHXxXXgDR+N6zvVFMAOPdeDQgAJGCQKAITQEAAAmNI0A8AKjpwhyjRL3WEk6szvMMeUw/+xGrz7mk/LHdxoOeDonJQ9vQEbCb/Hr99bxocNgUhrarjBW4KSp5gw3oPnDp5EKucnODgvh4Pi9oobVlrPg5vdYeTkxMWrliPa6m19HxN7Cms3bwPJw/vhqvDItis24PM9GSEBW3DMm26vKmb0urm5eLA1g1wdrCHo7sPnte1v1CGsXDiZQP0cOtQL5JjRxofCx/W0iXiBnEvXTpObuxGSL6AtgFDSuFkImiXKsARSFHWIkFte8+AUkWZgIMDmx2wYIkjPLy3w3vjSmy9mqmVAM6F3TofeK51h4O9M9as34cSbQzR3o46nDuwGXYLlsBp5RYcO3sUq5duQFqNGNKWXOxe4woXJyes3xmINSuccDmtBiooUPEgFPOWOMPj6A20d4mQc+coFjm7wsnJAWu8A5BbLwMUUuTFnoPDQgc4LXWF/4lTCPJwwbFHXAMsJDqCQ6RH9RUNZME6ZQGALGZYDkcVBwYaX9olCtwqEsDzLheuURXwe1KLtNquAfv86KmUAoJqDlr7rUqYtnTseda0lDS5GxUAEu8Rlt04PDDHyx8ODXbDJB39h8cL8O3tKvzbqSIK+ubdr8HCBzU4WSgEsTwjLh0ISCwQaJSQ+wFAMR8ZhWUQdUvRxsvH6rlzcSOPh8IHh+Cw8gCqOyTo7KxDZg4P6l4xYo64wnlHBIRiOUs/rK/0JPj6F//za2y9nAFxdweenVqD6RtOgAw83bwiJJQ0o6dHTPOf6+SHBpEMpZGb8cd35uBGVi2kIj7OeEzDJ1OW4kamNr1pNtaFJaNH3oyTO5bB9/QTiCVdeH5+C2x9rqKjz3airyCj/GigAfpVit0sUcAziUdddzD5iOQqeKfxccRIbijUyl7IZDLI5HIoFQrIFSotALSFb3QWusk1mQxyuaK/BFGthJxeI+1GBYVcrvsgUSo0ecp7lVApWO1KrdLQ6tUu7zJpLX3mgwZqFXoZur1KkPxIODu2pFh3THQqh0qPYeIA/xYAOABjLKdfOwcMjS8kzOOW+9X45Ggu/hqcgy+O5+H9wzn426kCXMhqNhsIJH1x+FsTTiybg93Xy4b96Mjoga6kkbnWXJvRAGCnTInpt6rw/tUKy24EHsTWmyY6w0gbFhsAPqkTUQkPMQpwja2n+mF/ulgG24e11FDgaJ4AJO34uE7ng4oNAGXSLpTkPMaBzW5wsF+Cd95+F6FxZeCmXcRSqzk4H/O8zw+bUoq4UHe4+EYPqANIAOCM2Y7IbCVgUw1e5lXMWLyWLg1KBVwk3Q/HVjcHLJw5Fb+d7I7STilKI3dghv0h8LTqbAWXvfqnr2zBLLfT4HLuYdHXVrjwJJ/6gkuJ3ovpVq7IbxkpJ1/fc4YG6FctDVnSPVfShoc1XbqsyFB7tbydDmaGJIC6G1/hgDEC8Y3O0ekAvkJ2Rnq0A7Gn9sDVyYlKnInUeZnbGkSl1xspf9D+RHhK3qVls3BgNHFAf3whusL74+sp4CN6vu8cysXxVL7O7+fk0Hw8rWzXfZSZrC6qFkTs2ohbWWZy8D5iemMYADJfpgvul2BbarllHyEPNiWV4R9C8kfdAM8GgKSjMlaivVqRiEyp1rkNIdf1030AsBz59w5hocMK3MnhQyxsxHZnxjhEjfLEq9i9wwMz5zniypMi9A4RAFrbaoAdoU0AIU23NuLMemvYbw9FOV+E2rQrmLGQAYA+sHYMQZN21CmNNJwuL43C12+/D/dNfvDz84Of704cOHkZDaMLn2trMfif/gA9+N1Dv5rC0yz5kndO9ASJCxnf501UPcBUAFAl70bGnSuILWiAYZOUoZffmHeqtJI+KrHUSgiJZNBYGzPOWgCgsThqycdYHNAfX4qaumF1pkhn5U8i/+g7fl9zk4Nutvd2Whi2JJ2cYKeZvsQ+11cDndSd6HhrT6tFlfCx+QrH41vpCqXmtOHnKTWdfvjLI/wMnV5fGQc70p9nB7vXGNeMJgHsG5g4AOos+wh5IJDW4ucnRz8AHG7j0wHA2ELEnVoDW6+L1KijvSoOTtM/p0r4Ymk35GQwUMmRcXYTZrgdRX23FImn1sBp+7VBJYAGASC/GP4Lp2F/TCP165ZzKxCffTs8AFjVWoA1i+cgPJWn/VKVol0o1g0uw+XD67xff4A2VlmI9e+mJB5OFQqxLZWPK+Xt1JE0kQKaCgAaq+xjLZ++cdYiARxr7268l1d/fEms6sRfj+RQAEh8fX50rAC3itt1EkAiFSQAsc/xO4DeDqTeOwuvFfZwclqCJT4XUJ5xHxs8VuNw8C6s2X0e9Z1dqEy8Ag/nZXBa5oJNh6LQRuYNA7rlYlE7bgW74H9+8XN8+K29RrdX3G34eZUcNQVxCNroAienZfDy9YO79d8MW/eTlzlUekPQ7WXahgUAjhA4jRfQOZ4BoJ/LVwiNK0VDbhQWz1yEXbv8sW2HFz79+BOExpUg69l5bF+9DYGBgXB3W4WDN7MhgwL89EuwnW8Pv+OXUEkiMehtTTnXMXPRSrq0Sy71pVuRcNYHVovXYbefNza6fI23v9bcVxq1EzOdWBLAgdIKKQpv7sF8J3fqD8535waEXsodRcuOeswYJKk/QA9y67AuEfWa29xO3KvuQluPUicdNhW9YRVunN1sAYDj7IWOo+ro9/eUmk58ciwXkw7nYNP9ahxI5ONoMg8fH+3z/zn3fDG6ehh/mkDZPT9Y221GRo0QMpkQeQUcNGRE4ss/v4u9T0ohk/dCWPEYTkvdEJ3eAJGgCv5ui7D/finkXYZ0y1ug6CjGtvlTcPRpI2S9vWgb4Pm26mQ429rh6JMSyGTdqM2IwJw//2GQCD9DoTe8wAcWAGgBgONSAkgU+flVhWgVyaiEr76iGJmZmSip5mnPS9HTxUdBZiY9n1taB52dhaIHnNICZOYXo93A15SipwuVVX33s9NKaRuKMjORlZOLKr5Ad5+0rRHF5c06GoOmGfqZmcjOyUPzixh0TAzj+gO0qQttbnqmrs9oyN8CAEfDW7CUwRAH9Pt7TVsPNt+vwtXcFux5Vo9550t0+oBE+kekgv5P6yBj/IqqWnB61RwE3qjsp9ZBVHqs5rggv1MKqGRIPrcJs5b6ITOvGMUFWTizZQGWBdxCR1cnirNjsF+rW/6Xd4huuZ6D9wGfj0Zq9H4scD2IVsbBu4qHw/bfDujgXSEdAj1DjBrknAUAWgDguASAg7T5YVwSIyv6AvYHBlIpIZEUBu3dj/iSMWiRMYxaG+tW/QHaWPkOlI+56Q1UjvF03gIAx9PbHF910e/vRD38brGQLvOS2N8E9LH3OeeKQfQEdZuYg50Lia5ef2MNnU43AYAkQk/oSnz0pS227mD0sn1wNTYPeXcOwYbqljdB3NYIb0a3XM/Bu+Hns5AR6Qtb99D+EX4crQ0DQLUKRfeGQE9XuaEdWACgBQC+dgBI/Lnxunvpch7x5UeUac3dMA13FwWaOaVUQkikh2Qnkr26dp2s0PBjlrOUA/oDtKnZYm56pq7PaMjfAgBHw1uwlMEQBwz1d5FMiTPpTbA+W4SPjuRQCeBnx/JoKMh4bkd/t16qLtwKdIbz4YeQUMMQBQQCMXhZURqjPgIA1Qpwnx3HTOdN4Ao0QQak3V3oloiQEGZYt1wpqaK64Edimwd+vqcH1Ulh+NbaBam1bbR63VUJsJ82ybCDd6UUiUOhZ4hRg5wz9zxrUiOQ0rZqBGaWwz/D8H6Tw4FEQRzzTgyjEbW69qXGMa9bB5BMME6P67A7vZlGdgjMbMb+7Ba8e6WcgsBB2q7l0ijngKEB2pRFNje9kfreMiUPjJ23BQAam6OW/IzFgYH6u1KlppK+KzktOJPOp1JBEvJR51OTVYCOyiS4uy/DSqoLvg27wp6AkxrVT8cbYh4i9rnDfoM/AgN3wcc/CKlFzeDlRWEJW7f8E6JbzoESYiSHbMSs5VuxPzoZIkGdgeeFUIt5uBS8HlZL1iEwYDf27fPB3El/hndUKauEzKEC/KHS6xm6HuC4AYCdslp8HlWM7xzOwxsD7P8Yko+YWuI9f2QAUNqZC56wfEwASJk4BXs2OCE66zmUg9T3dQPA3BYpfNKaqL+xOpEcRcIe7EpvwptH8y0AkOn7Y/R/oAHaVNUxPj0VunhVqG/pesEKm+jjnApch+isevSplJuqZq8vXwsAfH28t1AenAPG6e/qfrrgHF472DrdTAl6u5p1K0H5xeWgquEqOV7ULZfRR5j78zi8fmmyiqR7nrg30+qMZ2bloLSuFfzqyoFXmIZBjyn3y/7HDQAkQOZ3F0rwThRXt//yQjl+dbG8Xzq6coRuY9QcpF1cCQ//MIjlIwOQIwWeI3lO3p2FO+GBeM7Jg3oUA8C7VZ04W6wRgZPGSvz8hRUJacQP0jgt29jlgHEG6KHXX59eaVsPjRNMrIXlKjWO5LViX3YL9R0oV6oRWiDAwZxWkEgizKaUN+DZrRit4Y0Y0TsXYbHvdXRDBX5JIh4nV4B8YOvcDNEvfubp8fdvAYDj752Olxrp9/fxUi/AfLrn4woAvh9VCZfnAt0+9UE9vrhXh2XacyTdHwDWoIuXjNKSpygufoqGtnKWdLAKvKpn9HxxZQqE9U9wwWcm5rttQ2ZJCiRyAk7qIBWk6J6vaSjQSdvI+QZ+Dqo48ahrKTEIwtp46RBKilBbpqFD6fcWo4qdZoG3lro4TXmKEyCUcGmelE4rO/8q8GpT0dVThRae5p8CSFa+7PK8bgng8XwBSKQPZiM6gGQJ+I8XyiwSQIYpY/Tf3AM0mx6JFPR5FAe/Di+hvgEjKjrwm/ASvH25HDvSmrAxiYd/PlGIdy6X09CCDIs7K2/CwdoROdRjtwptDRyU1rVDpepB4mkPuGojxFgAIMMxy7+FA6+HA+z+/npKYCqq5tM9H1cAkEgA379Rrdt/e6kCv7lU0S/dDwCK0xB6eBO271gHH7+lcPbcjfoOLiAvwIMzXlixfAn8/NbBbes6nA71w/JZ7+CdyTOx9dABFPNKwCuJwmbXRVi3bQ12+mzAUtvFiMp9DrmqDomh8/HRLBv4HdyJy7HPIGcBOQLIlNIinFg9FVPmOCNguwd2eNnCxmUlAr03Y9u2tZr0Bj9NeVCK1Eu74bFiHrz9NmCTmx1c1mxAYXM5ym+th/Wqbajv1kgluxsisGLuDNx8Hg+/FZNxKjEJSnk+7ga7ws5+KXb6roS9xyYUNZN4gyR02utxBE0MPUhoN7tHtTiU04rERjFquuQgTn7JBP1JZKUFAJpqfDFTvuYeoNn0iOSKAMBn9WIaM/pEgQBTb3BpxBC7mFratkg8aXYEGTG/FKHetvif3/4ZK7fvw63MGjRk3cDd5BJUZ1yBx4IP8cFUW+wKuYziqlr4ujARZYDetlJcOHIQgUF7EfmsWOfux0ysNhkZiwTQZKy1ZPyKHGD391fMasI+Pq4A4OKHJchsrtLtARnlIDtzjhz3A4CKSjS15VNJX07aBSyd8SnCU1LRmHMSjkud8biygMAU9PQUQyIqQVyoPVx8T9AlYIU0Ewc2zMaeq7fQgzqolRxkR67DTJdNaBRxkBA8C1MWbUCVpIolVexbOiYAMNT9SyzxDYFQVYeetmR4fvMnOPqf6ksvnoJTSSloyDsFR0dHPCrKggp1UPTk4ty2mVh/9jq6+PfhbDMdEbk5UKMK2ZfWYan3ATS158HXhSilxqMiYS9s3dYgt6Ecqp4ChHvNgeeZG5AqXw8AJMtvsXUibEnm4UyREEQ6E5IvgHcaH8uf1mNLCh9Wd6osAHCMD0vmHqDZ9AhwIdI/mwc1+NOFMirls75TRZd9SRsjA99HEZW4U9WFnBYS0xlU9yfzThCmT52Di49zUd7cjYQQR9j4RILPL0bIpvmYtXwP4jOL0dLC1wFAqbAEQZvc4Hv0OlLi72DVipWIzm16QW9wLL5OCwAci29tYpSZ3d8nRo2NX8txBQDdnpVRAw1i5Uv2qEoOLpdV6s4R8McGgGLeU5w+sBye65bB12cNpnz2PkLjniL5ojtW7QyFiK3rp6zoBwDFgigsn2aFZ5XEYkcD7OR1N7BkugMSBaVICJkPmx3HIdaT/DH3agCgNXZG36fSQZIOcbPqn3a3gu/123gevQG27rvRIa3W0aq9vw2zlgWBLytBhPdcrAu5BklHArYussWp1HTIxVoAGPsYsScc8PkUa+zy90Kg/zq4zv4L7PxOUiD7OiSARMp3rqQN3E4Ztcwi1lkk1i/R/yPgkOhr6TdMco8u1iIJtMZKk2NmN0YXmQjWncbg08vyMPcAzaZHgMsX0RzE1Yvx1Q0uThYK8a+nivAPIQVU7+9iaTt+ElqIHx8voCHlmLp0lkbCVrcEDB0AFOvFiO5bAi5FZvRu2G48jlZxL1QyEe4ELoXrgUfoHgfegiwAkGkZlv/RxgF2fx9tZRsr5dGfZ01dbpO5gVGo6nCxlAOnx6W6fe69Esy6W6JL782qQLtM6xpFxUHqhdWwW7sdJS1cyMVZ8Hb8BKGxj5F41gWLtxyGiLmXgLgXAOAduH0zHY/KinWgrKv8MhbMdsZzYZkGAPqEvBQA+kY/0AHAUHdrvJi+jew7mzFvqTcEEgYA1iD/0mrMdtuHVnUNGtMOYYHdMsTcPwhnry2o767qBwBJfabbeyAu5S6ysu7RncsrpOU2FwBkAB5pYASsEbA32MZumJ1yJbal8LE9lU+BIjEacXxch60pfHA6ZFif0Ajnx3UUNMbW9+kTDpY/+5q0swU8gYSWSyauwZ4Na8a9dSe7/qY6NvcAzaanUKlpfGASNo74mGyVKpDVLEFuq5R+ZJD2R9J5rVL63hkeDBsAxhYiNtQdf3l3GhwcneDk6IAFVpOx4fgDjaUgk/EY/bcAwDH64sZhsbt7VehhongAYPf3cVhds1SJPc+ag6DJACAjWZMr6zDYztwHVSXSzrtihusuCMVccOJ3YfKkt+mSaWthGGYvsMK1lESoVNXg8VLRzM+n99ttPEAlcQppAc5smY4lWw+DL66EsrcCtw46w23fUYgVNUYEgA/QVhsN1/nf4FRMDGQqYrjyEFuWzMKemGca4xJxGvYt/wpzFttif+Rd9Krr+gBgXDxIfebaWCOxolBTn+p4VNUX0eVkcwBAkVyJ8yVtyGyWDLmNsRtmgUBKpTbLntZTC84bnE6Ie1U4mifATU4n1eNqlymxJ6sF5N5hbWoZ0i5ugYf/TYjlgLybjzvhJ/GcK9BJHIeVn+VmHQfMPUAbg97gAHAllukbgcQWIzPSB7NWB6OpQwK5XA6ZTIZexfhwDsMGgEQyrlKrLf1C18ItB+biAAF/4cVtVIWDGHiRzRj93VzlH6102POsOcpocgCoA3gDLL32Xa9FT8tD7F6zGMuc5mO972asdVuAK2mpUCkqUZhxEmsWLYCT0zys2bkFRTwueupuYvNKGzh5bUYatwDdwnic9V8Ol2Xz4eBkC6/AIFS1ayyJMyLXY+Pxi5AMUA6y5BuxewWOP3iCXq1RyIBpFRfc3CvYtmIu7J3mw87FBcejrkOky7sGhTc3Y5GbO9LrNW5uyBJwqM9CXX1y7/hhkfNiTX28vZCrvc/UALCqU0adPJ8sFNBIH0NtZOyGSYSFZNnYLbaePk5kh0Rva2VcAwoFUqQ3SbDyWQP80pvo8jFDo6WxBp3tTSitqEJnjwKy7jZUlBajuLgYxXUC6hVe0lyCCz62mO+2D5kl1dQjPH2uR4FeaSc4NXy0tTaitLgYZdxa9Cj6JJdEclhO8iouA7+zHQ019f2uM+WYqP/mHqCNQU/UlIpVsxYi/GE26tskfUvAajmKbgdh0dJdeF7IRUdbs1YHsBLSxixsWWmLI9dTUFych8f37yArn98vvuhYbQMMAAx9Xo0dVx5hctA1eN5IQ/N4WN8eqy9lgpW7Q6bE5bJ2xDeIkcrvxpWyduq6aaD+Tkborh4l6jtkqG7rAXEC3avsG7cnGPsGrS57nh30RiNdHEUAUKO3p1RUQS7noldRDZWCC6WKiZ5RC4WcS6+R60z0EIVCc465T6Ws1t0j79W4hiEgU62qhi6troVKVdNvV6uJ4UgVFEqG3svTyt6+8jD0dYBWVUPLwZSTnO9XH7XmOqkLuz6mBoDP+d1I5nXTZbfhtCH9hkkmIgIASTcmg8CGxEYkNXaDLPGRnVxfE99IrYkJHaKjtcvhXXy9Yiu27TmBTG4Tsp+cxY7t3vDz2wS7RcsRm89H1fMoLJ/1Id6ZvAhbD51DbkUNdq2YjlMJXDTmXIfVV3/F5oAgBPr6wHnJXATdKqJ+4HrbCrFnyyqsWeUFP7+d2OpmjymfzEMClxVrcjgVHof3DjRAm6qqRqGnkKDwyQXsDNyPqIx6cDPu4PKTYshJocWNiDhzGH5HzyGf24i4G6d0kuK2imQEBPjDz88PR8Ij0NA1PiYcBgC+HXQLb053xRv/9mv83TtTsPJ6BohUhmyk/zE6uPq1Zs7ra3yQ+5hr5Hn2ZsmvjxsMjyYq/0gbI6tH5COf8ICoEpHxn+j0nikWUhdPpI0yG2k7BfxubHtQjW/CCvBFSB7mXyjBsRQemkS0FzO3GvWf+A99GHkX9R2mUPwVI+vGZSSXNBu1zCQz/XnW6AT0Mhx1AFAHoHTStD5LXeNcq0J1ehi8nObDibXvPn8ZIlkfYDQOreGX3RQAkIjomQFLb2zXaw4DJ9kNk+h9pPC6qUVndZec6v/d5HaiWNhDXckwS7/EyS9x+ks2qqQ//114nI7XuORQK9Hd3ojG6kqUFOcjZMMcOO67D+mAyv0cNOZE46sPP8KpJBI+sBcl9/bgm+X+aBJLEB+yCos9T4BPXcIrwE04iWmT5yOOIx64UhPsilEA2TB4Zm56wyjamL2VAYA/2HEXb/zid3jjjTfwg7//EX7rFUY/unqUajoRk3COZCdO3Bk9LRLjm1j2k/MrYuvpBxvDCNKf3Z410GtEt7depJk4LflZ+MduL2ScJ14iiE4vs5HjyIoO6kLs5yeLaDsk18gd6XVdsCHu4A5n48PgHCy5XEr/PzqSiy33qyAwkeRaLEiAy1Sbl4z/CgiqOWiXDFc9pAkhjtbwiTQUIo7hiqH/l9Njz7OGcjD2uQkIAAkoq0EvS5rISBxfF+hj0zUmACQWvHerumjEBaL39yobu2E2SxQgDqPJRPG4VkSXeslyL9mJIj+ZdIhvN+JShpFKUAC4bCpC4ippqC6VQo7E6wew3tML23fshMvMSZizPRIDW3dqAKD1QjcUd2j0CptyomFluxJlndUIdZqJHdeIAZBmEwviseylAwBz98T4NzcgMze9ifAWGQA45VwG/ulLG3zn+z/AH7/8FqtuZkOiVcgnUhlqva9U95uoCX90lv1KNZXeMDwj8znzDPlnSwEt+TFcsvCvUdxLx/7KDplO97S8XYbTRUI6z7ABoFDSi7W3OJh0KBvvHcrGnw/m4kqeAFNP5NM0AYTnMpuGvRrV9zYGPhoSAJTX4aDTTJxKFAyckcErIwSAQ6DHnmcNkjbyyQkKAIcvmWODNFMeGwsAEoe6RCy/O6OZWl+yPthG1ISG0zAJLUYxmCHW56aDBOcGRNxHWD53Dm7mtpLFJzw9bE/9u70UANq6o7SzDwBa03QdwlbMxOYLubpBSVz3AIumLHjJFyBTuonxb25AZm56E+EtMgAwrFAA//gKvLfvDpZdz0ZJW89EqL6ljq+ZA0SqRyTJxACkrK2Hxoonx0RirN/fM+tFmKIFewwAjMgX6gAgOedwtQwirREJmQc6eVw0tjFqO/3Tbbx6CCTdaOSWoqioCBXV9WDLNeREp7ykCEVFZajkxmCpTgCgyaekmFwrQr1Qk39LWQxWW3+G7eFJKNLqoKO3E9zSEnpfbTM75ngveFq63Np8BNsPJgEcBj299zmceVbv0REljQ4AIys4Oj9/jP8/y7/GD+JQ+NAiqcHPT+bTzjSiN6p9iEjeyLIOsc41xvaqDVMfAHbVPcS8KQsQWyFCFy8XG+e9B6stkRCrepB23hN2G8PRIVX2i/FKloA1gE8fAHYi67wXPlzigwK+CKoeAW76L8UvJ82wAEDWy9cfoFmXTHJobnomqcQoy5QBgIS3jNSOSPX6FuRGWYEtxRmXHCAgkMTtJitBRCpINv3+Hs/toMu9BOgRad/Mc6VIrRX1A4DTTxdSg0ANk8SI9luM5ScTtTzrSyulnTixegamzluFPf474LdzBxwXWuHwg3KtDngxDvt5wXPTZq0HElFuAAAgAElEQVQOuB0+f99aM/6La3HicAC27/CFz651cN54HFV8ARIueOHz3/8HZjh6Ijg6AbLuVtwJ3gg7ew/s9N0K+7X+KGzuBuRCPDgTiBXLV8DPbzd8t2+E1XvvYutAS8BDpcdyoaOt8NjXAZx2oxxOj4n/P8s+Eh4secTB/wkeGQAkrle62J9ETKsywr8xAGDoThdcSauh1phKmQC3D26Bnc0SuG32w+5tbth4PAYSqNFTn4rNK53h5BWEhAIOmOdaSp9g/ZZd4IpktEYCVlrRWYcL2vycVm7F8fB9mD/NFgncobu6MQKbRnUW+gO0qQtrbnqmrs9oyJ8NAEdDeSxlmJgcIB8cwh6FTt+PcEG/v2fVi6jhx9zzJTicxMOBRB7sr5Zj0mHNkjABho5XyyDWSQDFiPSxgWNIgpapfWkCAEPdP4X1xpNokABqlRKVj49g1mJPlHWIEH98FRZvGkAHXNGDpjYhleBlpz7E0hlfITylBkoxBz42UxGSQJaAVeAmnIatmzfyGiRQ9bQhfLMdPM+koCrzOhbZr8TjSiHVbOxpzYTH3z7C9oEA4JDoGW43rzrPGs514LNGlwASBVG2LonluE8fZyi8IE5yiR4F6UxD3UhnJP72fNKakNQoNok0wBgNk+j9Kdlr0WoleuVy6qtNqVRAzvoiUip6NedVarCfUygU/eqnSxN/aKq+/IQFV+Ewby2KSJ+1bJQD+gO0qdlibnqmrs9oyN8CAEfDW7CUwRAH9Pt7m0SBfXH1OJXGh/O1Mvz1SA7V/SPAj+wkTXQA++aEPsCnyb8vrQGAttgZla3xAECcAHDiYPPVMiQKOIPqgIt4xQg7sAGe69bD18cbUz7/FKFxnP4AkBgfnliFz6cshJ9/AAJ274Tr7A9h53cViVd3wdY9hK5IacrVhOOOVgMagQyJniEGjg8r4KEDlwF4MKFPD3eAJ+CPOHQmBhnJjcN37zJUZhsDAA6V1kjua8qNRmhELNXdKEp+gJ2bXLHjfApkxlkBH0mRRt0z+gO0qQtobnqmrs9oyH+448NoKLOlDBODA/r9nc5N9SLYXCzpJ/Uj4O+D4Bysv8NFUxfbFYwEN/1tYX8kVvuR34XLXgvgcDwBGgC4ANuvZekAYEfpI8yzXo3nwuqBdcDLhUi9sA12HgdQ2tILuZgPb8epBgFg8tn1mG7vg7jUTGRlZdGdy29B3i1/zHU6AIFE695GUY8gu2+xw5AEUCUbGr0BmoS551mjSwBJI7BsI+fASAb4th4FDa1FOpypNnM3zOHWQ8zPR2hAAPX75ue3H/fSKmhEkuHmM57v1x+gTV1Xc9MzdX1GQ/4jGR9GQ7ktZRj/HDDU34mLmOwGETbdq8K0kwX4+GguZocX4VhyI3hd8n6rOYRDpTe88bXbHtSKlBBUxcP5y7dhE8wAwC/x2bwgVHZIoOiV4NaBtXDbdxViRc/AOuAVAqpTPsP1GIRiOTjxxzD5vfc1AFBehwN207HvPnErpkRb4S3Ms7FFYkU7VCoFGqsqUFUvhKDoNmZ+Y4XTyZVQKRWojj+Hz976LbwMAkCNDvvL6Rmerc09z1oA4Cjrl0MZ4KUKFfW597L4vcasmrkbpjHLbslLwwFDA7QpeWNueqasy2jJeyjjw2gpq6UcE4sDA/V3AnU6pApwhVKUt0pQ1y7T+abU55BMwMXBLQ6wWeKIdd7e2OG5CtuuZWolgHNhv94Hnmvd4WDvjLUb9qOkXaPj/aIO+DGscdmItBoxelpzsXuNK5Y5OWG9bxDWujlrddEVqHx4AvOWOMPj6A20d4mQe/coFju7wsnJAWu8A5FXLwMUPch/dh4OCx3gtGwF/E+GYc86VxyP4eoXX6sjOER61Gdt/yzMPc9aAGB//r/21MsG+KbuXupv6XBuKwgQNNdm7oZprnpNJDoDDdCm4oE+PeIofG9WCw0bRUIJBue2Yl9WC7UiJPcGZjbT67e4nSMoEvFdx3xVy1H27BpuJRRrnI6PILfR+sjLxofRWm5LucY/B/T7+0hrrFZq9L9JHG+qG65UaQGgLXyjsyDR6o3L5cr+EkS2TrlKBYVcrguAwOiUk5jgbJ1yqFVU11zeq13eZdJaGn0q62qdvrqc5KFUUB+bapUKKr2dDENDpqfHJHPPsxYAqPcCXneSPcDz2zpR2tyJxk4pbcjEwvdgTgs1EDGWe5eh1tfcDXOo5bLcN3QOGGuAHipFNj0SP9QziYf3rlZQy8GzxW14UNOFG5xO6quS2ymjuqwh+QJqzDRUGsx9UkE6DmwNQhk1+pEgJsQL648Qq/LxtbHHh/FVM0ttxjoH2P3d2HVhjEB8o3N0OoDGpjH8/Drw9NQerHBygpN2X+a+BtHp9cPPSvuEuedZkwLAPvTMijOpDRFDrjE7wy1iPRN+LBDXnr345a5StOPR+UPYc/ohmiVsxVHm6fHxzwzw3veyMNX3NP5pgSc+8jmL9MYuai1F/Pux+WquWpu7YZqrXhOJjikHaEN8ZNMjbZY4B3eNracAkESXIF/KYYVC7EjjQ65Sg4C/DYk86l6CyU+tVlHJHvnKZiR87C9uep9ajbbiCNhaOSCLR+4D/cqX9Wqi35CvdBKYinlOJyjUPKw7r6KW5JrnGfqj7Z8ZHwhvLZuFA6OJA+z+buxyqeTdyLx7Fc8KG6kbMWPnP9L8iCSQSCrZOztM3nDzNfc8azIAmNMixcw71YitE4Hf3UvDhNnH1OJoXisSG8U05uTSJ3WYdbda60tIgdJHR/GnH/8Af118APV6ju2lnaVw/+Cf8c8f9EWCGC5zx8L9zAD/bz7X8Z13puGNN3+M7/37rzAt+A6IFOV1beZumK+rnuOZrikHaEN8M0TPTQsASaSaS2XtWJ/YSCMLkEGTjBm705vpeSa/nKidWL8jAIEB3jgcnY7Oljwc3OJGv7gXrliPqym1aOM+R4D7F/iPf/tPzHJYhRNPSkCe8zn9BF3SDpz0c8WuYyexfbUbljkuwp7INE0EAZUcnOzb2GzvDCenZfDyDYDPGneEPeEw5EfdPzM+WADgqHs1E75Ahvr7hGfKMBlg7nnWZACQ+ANcE99AlytL23qQ3SJBe48SDjF1FPCRAOUZTRK6pEkmA7KJ+cU4E+yPc48KoXH128e9iQYAf+j7AN/9xW9psPd//OnP8JbPRbT1jH0ASCQ6VJrT92otR0bkAJF29Zdw9WVu7gFanx6RAq6IracW68fyBFTnjwAaAv7IUjCREJLwUm7PGnSFTgi2wVvTXJFW145ehQrdvGIklLagp0eMooeHMdfJDw0iGYQFV2Bj7YiMejl6lSokhDjS0IJtYgF85/wnpq4ORYNIipaiu7Catxjx3G6IapLgbLsER5+UQi6XoC4rEnP+/IeBPfzrSvX6DiwA8PXx3kJ5cA7o9/fB77ZcNcSBcQMAyaBOGgTZyUYG/8tl7diUzKMWQKcKhXSgj6kV6ZY05WIhjeVHTK8p1FFIUVVZRn27FZamYcX7E0cCOD2yCL9a5ofv/+otvL/UC8Hp9TSQu6FGY45z+g2zqlOOepFmKZ5MSkXCHtR0aZRuCeAnaaL0L2GFolPJxbgX4g3nZZ64kVZlQgV9TSzGuubO/krC5mDUMGjQ9l7Fh2xYa/q94NVUo7NHE36pPzkBonaux+kBJFjmHqDZ9IjBUmiBAJOvc3AgpwVr4xux6GEtXQkg58l4YBdTSz8QyZjAbAnHHTB/0yV0aU9IBBwk3D2DLW4OWDhrKn47WbMi0FkaCVtrR+Q0aW7sBwCdvsDBhyV0TJGLmrDNcRrCEiuQe2c/FrgeRKtU+2Gl4uGw/bcDOnhlyvQ6/y0A8HVy30J7MA6w+/tg91muDcwB/Xl24DuNc8VkEkBSPNIgyE4Gf6LfM/deNVbFNcA/oxm70puw4H4NPrhWARLCDFCCE38Ck/79HzF50TE0qXqRGRWEv/z23/Hmm2/iv/7yAf7yb9+fMEvAV8rbEV8vgl9qA84Wtr5W6R95l+yGSQLPz75bTSdrIsndld5MFffJu01q7KaWnOT92jyowU0OY9GpRlN2NGYv2oQ8gQhKpSktmMWI3rkIi32voxsq8IoTEZNUQWNGGqfbGCMX0t5P4uvZa1HWqYltPJRciSR87exvcCqBq/lI6vdQE0IcBw5Sbu4BWp8e0fsj0XCI+yLygchExmHS5AOiWdI/0gsD5MSknnIhzqy3gv22UFQ0iVH3/CpmLBwCAHTROn4lWRCJIE2XIPO6Lxa+4OF/YP71Y/VrSlgA4GtivIXsSzmg399f+oDlhhc4wJ5nX7hoghMmA4AkTiBxVULcPhAQQJZ+/NKb8N3gPMy5V01dQPzPxTIa9owMahQAxoXi7Z+9iU/nB6OqMR4L//Cv+NlvZuPck0TcDvXEL3/2dxMGAJLONJo2dsMk7yuhUQyiz0Um8vJ2GcjkTiQ7d6o0S3nJPA0Q7NNbVIITFwrHzUfRyUhcTFZBFdoauSir74BK1YPE0x5w9Y2GeFTZDqkhlwhRwakbliRUpZSirqwIrdp4yP1ZOLoBYP+yDi3VDwBKquBvOw37Yxpp7M6cmwH47FstAKy8icUz7JHF06iTMM/RJWCDALAM3OQwfGu9DKk1bbQw4qoE2H01ybCD16EV1+R3WQCgyVlsITBCDlgA4AgZx3qMPc+yTpvs0GQAkIQnI5K+/dkt1Ohj5/MmLHxQQwHf0TwB/u/pYurPjsS9NQQAixKP4F//8U1M3XgOnTI1pO1FcJ1AS8CjGQCS1kjeGQGAZCMg8EyxEO7PGkD8FJIlYAL8vZJ5aKHgHpA3pMN37QJ8NMUavscuoqJZDGF1Fk4fCkBAQAD2RSSgq0eBhqwbuJNUpANFqt42PIq6htz6dhArzbqMKBzaR54JwsUb6aCSIQD1Wddx++ETXL14EpFxJajKuo47ScWoTr+CtQs+wAdTbeF3/BIqmruhlgnw9EoY9gQEYO/pB2jqNowM5cJqRITfQsrzJzgeEAD/kAso43eiKusRDjHppm5t51Sjq7EY549r6rN3XwSqiPsepRyJDyKQU9eutV5TQ1idifArj8Dl5OFSlNaqXa1EVaYm34BDZ5Bdy9yvzV77p5+fQibEowvBlB9nIq5g96KBJVjmHqCNQS8h1BkLd0Zp37MYieE7YbV4HXb5emOjy9d455uVKO2UQtpRjt32c7HMczduZdaAeY4AQL/l0zSe/7USQF1azMPlIxtgtWQdAgJ2Yd8+H8x97y14G/Lw3/81vLaUBQC+NtZbCL+EA8bo7y8hMe4vjxsAaOhNkQbyvSP5INbAD2u68HFE5YASwKLUUPziJ3+PSUv2o6lbgY6q+7D6///BIgE0xFgznNNvmAwAJJI/or8VlNmM8uYulFc30r2Y2wDPuwW4X0kds0Eh4uNGqBfmLNuCZxlF6OjqRF7KbUQ+SkF2diwCVy7B8btFqEsMxbRFa5HfrNHLEhZcg5PtCjyvF+P59UNwc9mKW/GpeJ4ch51L52PT2Xh0K9RIOGKD331hh/BHqSiv78AzrREAn1+CUK/5mOW6FwnZpegQd+DJmR1Yuekg4lOTEOa3EtvOx4OlqqjjJgk2PmPSO3DdfQ5Jmak4G+COGZNnYoPfWcRr00u8ztAYkULOfWxw9MCRa/eQmZ2Nawc3wXXLAVS2tiNy1wIs9I+GSEb8k8gQG+aJlX6XUZYeDWtbIsHqRmP6ZaxyW4fL95Jw/3wQFq0JRG27vikUewmTA1l7OQI2usPr4AVkZ6fjbngQpv76N9g8AIAx9wBtDHqilhr6PhmFAaW0DcXZ2cjJzUd1kxCcaq0EVa2EqImD7Nw8CvKZ5xRKBZqqi3USU7VemskvOycX5dWFCHKYh5A4rSKhriWMngMLABw978JSkv4cMEZ/75/jxEvpz7Om5oDJJICGCk4ayBuH8/CnC2WIqxdT8DeQBLCyIRu27/wUP/qn/4Wr906sXjQZf/+971oAoCHGmuEcu2E2SRQIymrBu1fKKZD/KKIS21L4WBEeh/X+JxEcHkV3cvw4tUBbOs0SsKt3qG4JWKUQo+jpFRzYEwDnmX/FzO3RaOuqw3b7OQiJ40IBEe7udsPK4Fh0dhbDa/EsRKQ3aCVpKvAzr8B6znqUtUuQcNQes1edgkBrAsssAYqVUsSFusNFuwTc3RCH5TYL8bC4DSqVEi3p4bCavxEl7S8ykQDA+ZMX4jangxqTtBXdg/VH1v3Sc6xckd3WjMgttnA/9ARSrUFHT2ctttvPRWh8JRqyr8F6jgfK2iToFZXBz9UZkZk88HO0ALC1GkdXzsKmSzlQKJRQCgrgMccKl7I1S5PskvXpsFWgLPYkFrj4oZoJqC6vQaDNNMNByrU6uX39jZ3rqx+n8LqR0CCmlv6MTctonxDkbdWIzSyGqEdB/QYWPTiO2c7eyOC/CLxfnUPGycECAI3DR0suxueAfn8nRoBkFZCoBRF9XxL5h6wMdcqV6FGqcTxfQFcISYADy6bhAHueNQdPzAoAif+/SVcr8HFkJZY8qsVbl8pgdbuKNgiiA1iXGQmbz96Hw/pLaFEqUPYkBAumvoW33voIK7b7w23WJ/h8yW5UGdR/Mge7TE9jtA7w7IZJ3PYQK1/i2ocn7qX/5PjInTRcuf0YC90DsN43FA+epSEtr1LLtP4AsLerFkc852LVrhDEp2YibMss6rZDrJDgWchaOHtfQmtNJtzt1+MBtwNiQQJcptogjsMs+gKKhnQ4WK1BgkCsc/vBXB0IABJr0Sm/+wNm2Wq8t9stnIk5DutR1PriuyUA0GaqC82fXB04zXnB+EItF+Gi1woQz/U9XVUIWjoTIfG1qIs7CjvXQ6iXqdDEAMDGQmyZ8R4+/tZO41HeYTGspn+LS1kvotI+AFiCzGhf2Lr3AWrg9egAEsON7al86tKJOHLek9VCPwzIgG8qwPni2xr+GVVXFY56e9AYoU4OztiwOQjxFQYawvCzNtkTo3V8MFmFLRmPGQ6wASBx6fRZFAe/CS/Fz04WgbiFI8d/uVIO7zQ+dfj+0xOFVIhwokAwZupo6oKy51lT0yL5mxUAEoLE4k9/76uoGoreXvT29sX406R7oSDxABXkWn8rwb5nx8fRaB3gh9IwHybm4HRkDKyX7ob/sQgkZJSglMvXvpj+ALCzNBqLZzogo1EJqGW4G7gI870jqa6XuPIpbOfYISRkH1YHnUeXXAVJWxnWzbZGRHaTTpeOnxWFmbabUNTZMygAjA9diWVaCaCoPhEOc2wQU9KOXtrWNF7cDfnOGxjwaWBm3/Um3PBZiNWhCbowRb3iOuxeboMTTytoeUuu78Bs90AErF+BXbdLqERRBwBba3ByzUxsjyiAXE7auBwyGTGsebFN9wHAUhQ+3I8ZC3egvksjsVKLKuA5f/KAfuzYA/SLOY/8DJH8nS0W0q98YvGf2yqlBkHkA280A0BSY+LJX9MOxsbYMlrHh5G3HsuT44UD7PGFtNPPozh0pY/o/hOQN/U6F77pzbB7VEu9Ssy7V6PzCsDwoD7zOm4/TcSjq0RH2x9h97PQLddE8iE642FanfG9RGdcqgBR6ch8eBuxBZmIPHoIAUF7cOM5FzJhKS4EH9Ck06uY7CEXluA8OR+4B9dii3Tjte6G13wwlHnWmEU0OwA0ZuHHY16jdYAfSsMkAHBf+D3cjM3B7Wd58D4Ujap65uuuPwAUNaVi2bfzcDQ6CWmPr2L5336NbzdrACAUHYjYYYPPrZYgLLaSAih1bzdiT3tioZ0XHqVlITcjCXvXL0dQRAo1GNFJ/LSNQpdWy1F8Zw8WLfVDagEH4q5WRAU4w8nnFNJzCpGRdhe37xRAL/AMzaUP4OkDvhfT/NxI2MxdjiORj5FfWIiIYzuw1uswqiUaf33d/Fyss56ET2z9kS/UADYdAOzsRnXsKcx19cTtpEIUFiYh8locmrTAjt3O+wBgJaS8LGxwXYC1wVEozM+iuoMf/fq/zKoDSAyASFxfotLB3iIrOqiroNEOANllHgvHo3V8GAu8s5TRtBzQB4C/Ci+hrt7+eKGMAkDrO9UIKRBg+dN6CgCJ6tBtbieymvvcYBFd7l+/PwcnbzxDZmwk3JbMRHhyA9ArQW7KbUTpdMYXU51xhbQToe5f4IMZG3H7aRIS7oZhwbRpWOISgCgmvWQNUqpFkAmLEei5An7HbyI18R5WrViJqNymUeUrdijzrDHfogUAGpObRshrtA7wQ2mY3LomnIx4jFtPs5CaV4XY1FJwahgJoAptNZm4/ywdvUS0pZKBm3YLe/38sP/UZcTcj8Tlp8W6LzJ+wWMcD49AfRdLDKbuQW7MJQT478KugH249LhAp3PHzbjb7/l+aTEPkWeDsevoORTzxICoAZFnj2DXrl3Yc+Aw0qr7BiD2K5S31eDm5TuokxE3RcDgaSVaKtNwYp8fzfdg+D0as5opPYllmXE7BFdjC3QGJ+KmUkTeuIc2ErO2V4KCp5fg57eLPh8ZV6i7j10mRU8X4m6GIZ0roANXV0MeQgL8KT8uP01Hwq1reFr8ou4gyYM9QLPzfJVjkVyFlXENyG6W6By6E8Ogbal8qv9jAYCvwt0Xnx2t48OLJbWcmWgcYI8vpJ1++f/Yew+otrI037cm9OuZ6dv3zsztt2beu2vunemamZ43vaa7q7qqQ1VXdFW5qmyXM8YZJwy2yzkbMNE524BzToBzwAGMAQcwOSeRkwARhIRy+L+1j3SEJCMXQUKB76x1kM7RPjv89jn7/Pn2/vaOE+BpgxRfXq/E0YJ2/MOxQvw0Mh/7stu45R7/NqoA/+1IPudEyLNKPjQD3y7ag0YFazlVuLtrBmbvfcD9k9/XmPFuTgBOxNozz8AuUfeIsH3Gx5bHC8Zid3we0uPCMG3NEbRJ1NApu3F723z47nmAnr7m1OczNMyf/XnP2jNLJADtSdMOcblqAz/cN6YdUA4gCg3aqipQWMCsb727UOxcZwC5uAUlZvlheatoEvfZNdyfwpo30P0JbysMs/qx+5Q5e6h0etysFHNjAI8XtnOrv7BpgNhE4GeKO1y+C9hWGV31vKu2D67Ki/I1fATM2xfWRpR3KbllKZt71Nzyj2yceF6b3NTtyx/zTmMsp6aeG2O2+eMuG2PGxZwA9ObGWrPJvLS2jmOe41GUP95590vMmesDn7lzMHXc51hzJB7GTprhA/WGlIb7PWt3Aci6fliF0j44Bq0yDffSZA+TK23DfWMOb9mlSL9+DhGhBusbswxG7NqHxJK+LWnDkzcNhKXJOGyWJ5avsw8yDRbUQWTCvIEexOWcxbG2W4XognZuDk823o9t7H91qVqHxHoJ59W3IrmRGxPIBn6TBXAwpG1fQwLQNhv6xbkEhtq+sNzzgo8fUMIfN9oYM95/AfgS6bFBGL/sAIRdcm7cr0plWDfcudQsUx/u96zdBSAz9/o8qqN9kAzYANm/OJBnWkPZ8vZw3tFw35jOK6nnpjzUBppN68C6dpmwY97ffW0yjQ4VXUpu6cKhptdX/CP9HAnAkX4HuG757fG884LPWgAKTWPGU/Di0SUs+uptbsx4vwVgXBZ6mjKxeel0HIhNRUFBNuLv3EJGXrPRqdA1uA73e9buApC9HKy9fOn4dc9nW0yYuZxZTdjD5ErbcN+YrlR2T8nLQBtodo+2yTXcMn+MATtmVj/zLps3sbFOj3las/GB/Ma+88dsWKjh2GA558MM/ydbOzoZsfezIeO8D4c/B29KkQTgm+jQb84kYP28DyYvVRl3cMlsLLjpWKdEVdot7AoJxe5jl/DoXiwXTqHqQeadK0gqaOSEHBtr/abjzorn2LYtghtnfehMDBrNx5gPJsN2vma437N2F4CuJlzsXD8Oj85VG3h2YzLrboFITrubMtib3b95+RQaPdKFMkRktOBwnogTfYO58a1fCBdKO/HVjUpu/CDrLvZ70gDfxHo8a+zhBomznoP5j+sQ+JJ3HBpMqkO9RoXs1+ZXHGqc9rveVdsH+5WQYnJXAtbPu7uWw5n5JgHoTPoukLarNvBe92u4rum/OpQH2t2XAfPEY/fYm7YqsYqb1DmlsWfQ4o/Fb/5CYBPD7s9pw7e3qrj0H9dJ0KnUcv9MMC9iZv1j1kU2XxhzHnHeRgLQeewpZXcmYP68u3M5nJl3EoDOpO8CabuqAGSiILtVTrubM8gXvT7lTYdCiyoxm3ja0D3LPPgURgePoTwS5i8EFjPrQvZLrDcJUCYAA14040RhO7qUWqxNbcLChHo0WczLoEajoNjgnV1WiR6lFmzur/LqJrAVadgmbW9EZVOX0Ttajca6Gi6cUtqOsiKjV3dNG7TGvuuWhmp0dTSjuKwSXQo2llEHcaMARZzHdRGSLgZarLDSUmuZ/lCYDPVaV20fhlouut79CZg/7+5fGueUgASgc7i7TKrUwLtMVXhMRphMYtrObPgdVza2BidrtLemCXGxtJMTaPYsdF8vBF4ACnvUXLrM2sfWCWVajglENosAW0qO33oEDxGyeT1CQ0Pg7zcPQSeS0VqcgJlT5iG1XgI2QXhc2FS8OzEEDRIlZJ0ZWD1jNp6UdyD78WkEbglEaOh6zJq+EAm5zWATaYfO/g1GL96ELTuOIrOqDZUZt7B48RJsCgjC9h3BWOo1Gl9zS+zJUXD3KFb5z0EgS39TMJ7ktPBZc8ontQ9OwU6J9oNAX897Py6jIGYEPFIAKjU6NIqVqGpXoLZTgW4lLf5sVucWX6mBt8BBB2YEmIWuR63jdnafMMHEb+1yDZiVlnnqsk/emsc+n9RLuMlW2WSsbJk2o+GM89Zlwq+sU8nN58fHZa9P6xdCnUSF2Q9rOSvyhmdN2J7Rwn1n+WXdw6mNPbguEIP9xm9aWTsqG4QoK8rD4wuhGD1tNQTtNYj0n4Rtt0uh7qnHyY1jMe6LFUhtkLiHokQAACAASURBVKDl2XHMWrgXjWz5wK4mNFSVo6ggB0dWT8ScnfcglooQPOW3WHkymZtcVi1rxM5lU7D9WpZxELkIVzd7GwVgC86tmIQNx15Cyayiim7InDxpGLUP/J1Bn65GwPp5d7X8uUN+PE4AtkhUiHrRhMlni/DRkVx8c7wAm+9XI69JauqScc2KcY43IDXwrnk3DDZXzOrGz4lpHgcTZszDtrpbBWYN47UcO/+4VoILJZ3cXtiuMAk2Ngcfm0U//FULt9Zug9lULEkNUuzKauWsZ2eLOziRyNJTaPVIrJMgoU7CLddW062yWPqIT9c8b/b6bv5CYPlgx8zayJxBzpd0IiRdiND0FsRWdOFZUw+WJjUg8KXQrAtYj7r0K4gIXc9Z8tb7TcOvRvujRCxHyY1gzAi5haai61izcjeit8zCwYQKPD2yDEsPJ0GhUSI5bjdWrV2PgKBgLBz/HiZuiUEHE4ALRiEqqQLs31CpKAWLvvTCkwp+4gk2BnArphktgHnx5zB78gSsDtmBa2mVFuzsxWkg8VD7MBBaFHY4CZg/78OZriel5VECkIm/dXer8PsD2XhvfxbGnCjA51G53HcmCDPqJMNSd2xFhca2HtNLtn+JDn4w+ODSM+SKGvj+1c5wh2ITHbNJultkGm6OO3PhxEQVG1uX1twDtgoGb31j4ZmFbVdmKyJetYAJOH5ja2CuS23iVtBga+my+NnGrHrMEnanSsztbE493s7Hxrwxaxk7x8SfuQWQ/cbm4OPD8uk483MgLwSWb5Z/flwfl29ZLXbP+woBZ59DotShKeMKxngZBGBXyS3MmOqHQyFrEBqXi7qUKPgFHsC6Rd/jam47JJXxWDR5Em7msLWodUjYPxtegUYBuJAJQIFRAL7Aoi8m4UGp2IhKhbSLGzCZE4Ba6HUatFRmI+XOcUwYNx9nn1XjzS40jiVO7YNj+VLsgycwkOd98Kl49pUeIwDZgOtzmS34w8Ec/HZfFt7dl4Xlt2ux9k4ld8wE4fc3BOiUObg51Svx8vwGLA+7AWnv+7cfd9EgBeCg0zNkiRr4flSNVRAmHqyFj7nlzVyssXBMxDEhlSGUoZJzfuhlf03QhT1GSxrrGuW3F809XJdl2KsWMMHGvFrZxjxXL5d1cpas3VmtyDBbE5etk8tEITvHRKK5uGF5Ys4W/M6nwz658hjH7FmXyzycq38f8gtBVYfds77BlqvFUCt7cHPPbPzyM4MAVHbXY9v3X2D0N+uQWieFpP45Fn74Hj5Zehh1UjW66+Ix5fOpSCjrhrgxB2smv4uxG18XgCpJA3bMH41JEdfQ2aOEoiUbGye8i99zAlCM3GwBenqUUPe048hqL4TFZUHtxEqh9sHV7/qRm78hP+8jF52p5B4jAKVKLXyulHJiz1wArr9bZTr3WVQeshqsrYDM668I+fn5yC81eP21NFShq70JRaUCdMnVgE6JRkEpCliY8l5vQOb1V1qUb7jW6PUnExbhTOA0TF68E2mFhvhsXc97AxYWsDgKX/MGNNWS8Uu/07O+8A3HI72BZ1YtJqrM37HMQ5RZvJhoYx6r/G/MYvRKKEN8TTce1HRzwo5H+6Kph+ti3Py8mVuejHW3so15t7IuSNbVyLpTWTjeYsdEHRNszNuZrVnJnCT4jY29Y5N08+ta8tfwv9Pn6wSG/kLQoOrZZcz1noP5vv4ID9+ExWvCUSVRQq+RIfXcFvgHnkOHUgeNTITTGydh6cE73NqeOlU7bu/bhFleM+G/IQzhAUuwNvIhuqQiRAcvwuW0GsMKAHodJLXPEbR8MRb4+GDJlt2I3rkOa8IvQ6JsRcy2LfD18cGceYuwcfdpNEh7/yl4vcSOPzPS2wfHE6YUBktg6M/7YFO2vK5d2GDQCZan3eLIYwSgWKHBtycKOLH3/v5s/O5gHi7kiGAuAH93IBvJlWYrXihFuHdiGxYvWmzw+tsUjAepRVZee62ofH4R8+f4Y3PgFiye64PzLyoAnQrZCa97/VWnxWHR+N/jnc9nYPP+MyhqEqOqr+v1WlSZvAG3YvtOc2/AXiFguov6nR4/tsh05Ru/mDfwOrZSgk4P9umKG8sVy5p19ph1iwkktptb31g3JxNsyQ1S3K/p5gQdX64CkYITaqHpQm4dWd7CxjxE2eoyzPLGxouxsWy8+GJijI13Y/uVsk40mo2JY9czwcjG2ElUvaKRpcdb36zzx35zTdI8Jff6tM8LQQ+NWs2t3cmspVqtWV3qddBoe59N1l2r0Rq60jlS7HfjtTqtFmrj1DY6rfq18cc6rYZLQ61h8eu4dFgc3HXGOPjrnVkL5u2DM/NBaRMBawLWz3uhSIHtmS1c+8t6XZij187MVu6feRaWDYthHv/M8ctem1YuRvRWfxxLruSGePDxatWdiL96Cdl1nS619BufP/7TYwSgxGgBnHC6EOvv1eJqngiLr1Xiy6N5Jgvg51F5yKjvtQA2Z8dh7oKVSBCwiWANXnfi1mYLrz1lRwE2+c3CqScCbmxP9cN9GLtoF2qlvNdfGQoLcnB41QTO60+mlSMpyh8Lg+O4LmBb1wvaGrBj2RTsuM57A7bj6ubpRm/A3pcMX1HQ9y89U/h+fuEb+Mi0Kmy+GI9PIi5hddwLCHssB+/3M7p+BWNdk0ycsd28m5KJL+a5yYQUG9vG5m3jN2aRY5a38yUd3CB+/jd2DesSZfO5sZUd2Bxv/JxyzHrHxFxUvoizwpmPiWtXaDjLGxOC7Dw/vo2JS3Yd83KVWOWPzwt9uiYB6xeCa+bSvXLFtw+MLW1EwJUImD/vrNeGjXF+73I5N+8nGzbDemluCMTcP/LsnZLVKuPeBUEvhXYrBhOAUQG+pjG+fMRysQDhSxb0Wv75H1zs02MEIGe5yW3DrqR6BD6owUeHDWMBWXcw29/bl4Wl1wUQ8ZO+6pV4cX4Dlm6NhcRsrB6bt8vca09cEouvf/M+/DeEIzw8HJuXTcOfRs1AVoO5118IFhm9/qRWAtDW9SmFb/IG7BU+/P2is/AytJ0eH76/n3wD/6vtN/HjrxfhrX/4F/z415/CPy7d5NnJrFTMisV2c+sbO8+sWmzsGRtzxjsWsLSFMg1ndWPel3equiE2dm8yqwo7Zp6lbL9dJebmZWPXsLywqUOY9Y15mJpPIizoUnIi7l51N7dsGOsiZRvLExODrHuWiTgWv/nGDtk0JFzezX+g7x5HwPyF4HGFc1KB+PaBBKCTKoCStUnA/Hln7Tt7x7ClHtk9y/e2HCto54bfMH1wJE+EVSmN3D/4fKR6nRY6ncECz/d8MSs8s/xrdb3WfS4c62Ey/saHtRaALBx/nUalNFj+jT1remM6/O+mPOgN6XO9DSwNs3T5MI769BgByAC19ai5KV/+cDDbZPXjxN/+LG5amBc13b1dblo5np1ahekbz0Gi7BUNnAA089oTC+7C66vxOBufgezsbG4vKKlAS2k8Fk2ahJu5ll5/rwlAG9e3Nr/ZG9C6wiWC/qVnfd0PHfMN/I8C7+Ct//ff8NZbb+Ev/+pv8Pa645wVjD1IL5sNa6ceyGnjrG28hY1Z5djKCmxpLdaVysay8RtzaGDWN+Zd+qReyolE9ht7UJk4ZJ6lbGemen5jv8nUOs7yxh5Y2ojAQAiYvxAGch2FtU2Abx9IANpmRL84h0Bfzzs/8TubBupcSQeYwGE9R+zdxIbuTL1XY7H0Y1ZsEFZuCUdERAD2x72CuDUHezb4wcfHB16LV+LSsxrOgMCFC9mNIzu2YMFML8zbchA1HSqYC0ClXIxbh1bDP2gvcquEiA5fjtjMerQUPcTK5csQHbUbS318MNtvJe7mt3PvQqhFeHRhL5ZOnwUfHz+E7ojASr/NyKyXDQtUjxKAjBibAHp/SiMmni7Cnw7n4Muj+dw4wJxGqdXYNh06Cm9hotc0XE6tgFarRkNjNeoraxFsJgCZ1952v3HYcumVYbknRQPyMqshsuH1J9UpkHZuHWatPs15HNu6XvpGb8DXLYC2vAyt0xvoXcM38J+efoW/+3wa/vxHP8bPP/4WC69lcVY1psOY9Y3N+/a8qQcNEsuuYWZx4y1vTMDxG/vKjvsas8eHoU8iYE8Cfb0Q7Bn/SIyLbx9IAI7E2nftMls/7+x9szixnps+61CuCNsyWvDd7Wr8+FAepsfXYtr9Gvz5gVywdeb5LfmAF371pS9e1ndxY3Z7moqQXNIGhUKKwvj9mOQTzK34k3xgKn7xh6l4UNwKVVcltvmOxtYbpSYBGJlQhITTIZi7bCuyhDIoJSKTjmjMjsMnv3wbmy5moEfejacnVuDrVVHokGlQcjsYY2euR2ZtJ9TqLiQfX4/3PxyPJMHAxvLz5Rnop8cJQAaArQRS36VEeZsc1R0KMAcRM23Sy0ijQFHmDSyfMQ8+PnOwPHgncsqbX/faK0vA+hW+3H8FC/0W4fyjGqiZ199+o9ffxjBEBCzBushHkLGxhPUvsXHpfPis3460ynZI+rhe14c34NGd643egL2mZz6znJdhf9KrGthYHb6BP1EgwrZkAX639y4WXc9BaYeCT5o+iYBbELB+IbhFpl08k3z7QALQxStqBGbP/HlnMzmwsd6fXxNgb3YbViQ3cqLvf50owugblViUUI9lSQ344nolZxXkcSUfmYMp6y+g23hC1laBpFvHscFvDrzHf4F/M04DxcJNWnsKndyrWYeEA7PhHX4TUjYGcNNszJw3ExN9liDZKNzMexKZABw70QeZbayHTI+mzMsYM2M5BOJ6nPKfgLWnMk2OIhJhAmaP8iIByFeQrU/7NUx6aHmvO7WGs1gxrz2duTmLjXXjvfbUatNKCcwxw+D1p4FOp7XwCOTDm8YK9HU9s5Lx503egDrozcYEcGMRuPEIzJzW//RscbM+b86RFZm35vUpmK0vpmMi4EIEzF8ILpQtt86Kefvg1gWhzHscAevnnQ1X4t9f/PdJd6vxH+dKuSm6trxoxn9dKLUUgJFz4RUUA87epmrHiZVjMGtzNAQtPahPv4Ix0wzzgCabhwPAH4uZAFwzHqPHfIFPluxCVbvBocBaAI7zNsTDKkGYHQfDcQ0ifcYhMKbYVDfStqdYQALQxMPmF89tmNSoTruB9T4+nMWRjUVge9i5x9zqBDaBDPIHz+U4SCB0mdsSsH4huG1BXCjj1D64UGVQViwI9Od5Z12cb+3P5UQfmyGC/85HxAs5TgDKqhDu/SV2PWhgphlkXQ/Hn77thwAM8MWh6wk4EjgPk1bvQUWLDP0TgCLc2zYfkzadQzub8UKnRMGN7fjth9+RBZCvIFufnt0w8ZY+w3xkarXawrpoi8lgzns2x8EQoWvclYCtFwKb27KsVYa4/DaczRAivrSDcxgbipWb9wp0BVasx8C6x8Je+aL2wV4kKR57E7D1vJunw6YG+9HBPM75Y9aDWvzlwTzMeVhnCpISPR/eW2MNFkBIkXomGOOmr0Do1i1Ys3A03vlmKbcWuGU4gD9mFsCjQX6IfiqAvL0KkRumYNz3+5BWXIFg36+480051zFhhiEelrDQ7FgseIaFPtMxf+lGhO/Yje1hS/GnjyaRADTVkI0v1DDZADPA08RxgMAouMsS6OuFIFNpcSGrBRPPFOGDQznc/vGRXCyKLcfLmm4rx7D+Fy0rJgiBx9mYX2dvahQ9jMbGbbEQy193Hhtq7qh9GCpBut5RBPp63q3TYvPK5rTKe/c2OTdlGR9O2laL8oYu0xg8raITJTk5yM3LR42wA1U19VADsA7HH2t1WnQ0VUFkXLFH0dmInPxitIl70FJTzJ3XKCSmeFi6Fsdsft+OeuTn5HDX1RTfwOLxi5DV/LofAJ9ne356pBOIPQF5elzUwHt6DY+c8lm/ENiY1is5rfjQOCfoe/tzEPCgBkwAsumhJp0pQmkrc9sa+GbRdTTwy+14Rf/WENeo6pBwPR4tPQNLmtqHgfGi0MNHwPp5H76U7ZdSV0UKXpa3GOYdFDfgVMgizNx8EaJhWgGSBKD96tItY6IG3i2rjTLdBwHrFwKbAWDGxRLTnKC/2puDq3ntGBVtWB3ovf1ZCHtcC7lxUvE+orR5yt0EoLjiBuaMm4vsAS6CQO2DzVuAfnAyAevn3cnZGVTyoqI78Juz0DDef9YiBEdfg6CD2RyHZyMBODycXTYVauBdtmooYwMkYP1CeF4t5uYC5VcD+s0+SwHIWwG7Fb2TkddnxOHmvUe4fC4aMUlFUOs1qHwVj73h4QjfexwZNR1cd5G5ANQr2vD44nHsCA/HjuN30SxlnoB6tFdl4PhewwpCOy8/hVhuSKe7oQBnjhjPX02BhKVvI52+EOh1ChQlXMKeHeHYsSsKZw+thbd/FNcFrFW1I/7sAW7VovAjZ1HSLIW0uRiRAV74z7f/C0s278SNV9X9To/ah75qgM65AgHr590V8jTwPPSuPc7G+luvEjLw+AZ2BQnAgfHyuNDUwHtclY7YAlm/EFKqxOBXBZpwpgir7tQgsaILn0YauoCZABx3qpCbJ5SHlnzQC//6ySycffQS5Q0dqEs7jyV+q3D5/nPEn9sB72URqOlUmqaBkOqkeHh8C5Zu2I+UtOc4EboEm84kQa2SIef5bVx79BI5OUnYvmQGDt8uhFxajnD/hdh3+T6ycpJwOiYJMpkSDTbS4fNl+tQpkXg6ELNWbMOT56+QlnIDK8f8EZ8YBWB3ZQrOXHuInJxXuHpoAxauOwFhZxey7+7EmC8m41JiPipaJf1Oj9oHE3n64mIErJ93F8ueW2TH4wQgG8/TKlXjfkkHzma2IDavjRvnw8/H56haYWsEWk0daLekuDUEHRQ5NfB2qyaKyMkErF8IRcIezL1cih1J9TiRLsT6e9X44FAuty44bxVccVPALT/IZz350GxMWHocIraEjaoZB5d8h3UXsqHWaKBpy8OKSWNxIavDJABbGpKwaKoX4os6uLlCW9JOYczkNSjuBHQaKQofX8Se7eHw+e73GLc5Fq3tWVg+6gtEJ1ZxXc+c9+4b0uHzxX8quouwzvs7xGQ0GsYu6hR4dnIVJhgFoF6rQnPFK87yuHHpdLzz9RLOi1FcEgNvvgt4AOlR+8CTp09XI2D9vLta/twhPx4lANl0D8+qxfCNLecGev/xYDY+PJSDCaeLuOkfpGyuHYdsIsQErcDxRwIHxE5efg6ASlF6IAHrFwJbEejUKyH8r1WYxv3xwo99fh6Vh0flnRZOIOZdu5AKsHHMb/HBt2ydTh/4zJmBcWPG4mJml0kANpbE4PN/+wXGexvm65ztPR6T5q5BbmUt9q+eiGVh0UhNy8KJTeO5CWe7tQoU3j+GpfMnY8qCZTgRXwSFuNxmOtbVJBUlY6HFRLFmTiA9MiRErcDcVZs5y+PjC9vx2UTDPGYWAvAN5bJOjwSgNRE6dhUC1s+7q+TLnfLhUQKwuEWGKWeLuEHfbID37MtlmHa+mDtmnn/X8kUOstIJETl3HIJiSt5Q9zo0FT7Fg5QymA05ekN4/iezBn5A0zz0Lz1q4HnO9OnuBPp6ITSIlVh9u9LUFcyEH2sbPovKw7G0ZrBpYsw3CwGoasHR5d9hS0w+1GoNNBo1VEoVtxIQH665IRVzJnrhYUkXNMxKyMKo1OgsicP07+Ygo1EH6JW4s206pgSwFQf00Ov10Kp6IEiIwqjP5yG1qsJmOuZ5Y9972rPg++UYXMkUGqau0MnxOMofXzMLoKgMwdO+wKHEZm56m5rnZzHaJABjzSyAtstlnR61D9ZE6NhVCPT1vLtK3twlHx4jANl/+9sT6/D+/ixO8L27LwvLb9di/d0qkxeg94US1HY6wr+6HwJQp0DyiRXwDY4DN0a833fIIAVgP9OjBr7fFUEBXZxAXy8ENiSELbrOhoIsvynAvCtlCHxQw/UUKDSvz7XFCzvDUuw6VD85jkm+a3AjOQ95ecm4evkJhN29YwC7FR2I2zYfc4OO4mVmHtKe38LNW/loE77EgjGTcTA2Gc8fXMTCr97Gtxtj0CYrRdyZ+8jLy0PyzePwXRGAgg65zXSskeuM6X06bytSXmbiecI1LP7yV/iQCUCZEOc3+WBBeAyy0pKxe+Vo/PwTgwVQInyJ7ydMw4m76agVSfqdHrUP1jVAx65CoK/n3VXy5i758BgB2K3QYrLR+sf+y2cCcMUdSwHI5gN7UcMv+2zw0jt1KwUGL0DL446SJ4i98wwZiZe4MTzbtu/Ay8ouY73qoVaIEH92P8LDI3DiykWETuctgHqIzLz/dlxO4rz/GtIvYfmU3+H9z6ch+PB5lLX0wOA9eAzbmffgMd57kC35y7z8DGOHtu+MtPDye/3G6n96r18LUAPfFxU6544E3vRCYEP62BARfrc1919Vxl1cSiyGYUVPAGoZCp9cRGhoGMLCwhD7tBBMN1qEkzQi9swh7vedew8grUbBLetUnX4bu0NDsefYJTyOj+PiFXdX4fL2bVzYsD3HkC5oNXRB20inz3pQivDw4lGEh4Vh/9k7KMh5jOv3XkGt1UPalI/obRHYtns/biWmIOb6PXSotYBGjuInFxGyYy/iMuptlss6PWofrInQsasQsH7e2TB59nyzjf3ln3V2zNYG5o71erv1ArIVeLTa1/+JdBU+/cmHxwhAsUKDsScLuQHen0bmYV6MANcKOrD8hsBkAWQegcwz0LBpIUiKwqiFwRBxJjnL45KYjfjntz9AxKlbSMvKwd0TWzFtySZkN6uh7ixF2Co/bNh/ATk5Gbh3ZgdGvf02NrAuYHXf3n/dwlJEb5iKCYt3ITW7FF3STs57cMmG/UhNe46TvPegxuDlN5Pz8stAWspNCy+/1yq1v+nJ+p5biBr414jSCTclYP1CcNNimLItF7egOI9ZHnv3ssZO00vOFNCBX6h9cCBcinpIBKyf9/MlHfjyeiVn1Eiok8AvsR6+ifVIbZTiaEE72LJw8x/XIeBl8yDT1aCtsgztUjadkw616VewaNk2CMTyQcbn/Ms8RgD2qLRYd6cKm+9X48gLIfanNOLDI3kWY3/GnChAQTM/Fb6l4AMsj0tiNuHTyWtR2m1Q+GqpCNsXjMXu+EIUJxzF1IUhqJEY7QSqWmyf9iUCjWMA+/L+k2rlSIryx0JjF3CPDe/B7Jo3e/n1dcv0J72+rmPnqIG3RYbOuxsB6xeCu+XfMr8aCEtTcCTMYHlk1ke2n32QyVn6LMM67ojaB8expZiHRsD8eRertNif04Yxt6q4d9rjOgm6lFoUiORYktTAjduVa3Q4WiDCmeKOwSWsqsOeueNwNEXECcDO2kxcvGy0sA8uRqdf5TECkE3zklwpxrLrFZwjCD8WkPf6e39/NnY8qTeb9d9S8L0uAIMwbm4k+InztXIxovy9ERyXhrS4YNPEq4Ya7B0DqBbXGLz/wo8iNb3X+89aADKvvM+svAcn+6xBeskbvPz6cALpb3q27jRq4G2RofPuRsD8heBueXfV/FL74Ko1Q/myft7VOj1n9WP3LNs6FVpsftGMU0UdnBhcm9qEhQn1aJSa94ap0VBRaLCylwhgPlOIUipCSYHR+l7disbC+1gy9iNsOvkUedWtUEg7UVbZCKnxU2HqDtZB3FiBmmbDGsNSUQMKmBW/sAydcrXFrAPOrkWPEYAMpEKtw5kMIb6IzjPN9fXeviz88WAO5wzSJDZ3ANGh/uVZfD1rNWrFCrZEMwru7sJHMw1dwiUxgfhy2nbU8kY+SS1CFk5FdEIRCuN3Y4xXAOqM8em7y7B28qfYFFMCcanR+6+Jef8per3/tHI8jVqCBVsNTiCShlTM7cN7UGry8mt+3cuvDwHY3/Rs3WjUwNsiQ+fdjYD1C8Hd8u+K+aX2wRVrhfLECPT1vLNuX3bPNveosTVNiLPFHVDp9NAY99iKLmzPaDEB7BE8RMjmDQgLC4G/nw8Cjz9Fj0oHVXs+9gavx9p1GxEWtgFz1h3C3ehV+OQ//gnj5q3HwWspqHsViwkzlyEz6z5mTPkO8WWdhniVzTjgNx7rTr2CtDUbu9b4YsXqQKxaugj++65ZTDxvyoiTvniUAGQM2bqeqVViztNv3tUysIlemQdgex9j4LQt+diw8DvsjEnGq2d3sNXnU/zLZF4AbsDbb4/CjjP3kZWXh0s71mHZhoOokauhbs7C2sVe+H5fDPKyX+HO6Qj88ef/jI0xJWDedguZ919MMp49uGDy/pPqVSi6vRPT5wfjWW45JOI2C+/Bl89u4catfMiYl9/2Bfh0XhCSX2bi2eO4Xi+/PgRgf9Mz/8/G/F6jBt6cBn13ZwJ9vRDcuTyukHdqH1yhFigPfRGwft5ru1WY9aAWWa0yrH/WxAm9zBYZKsVK7MtuQ0qjlBONG5/3jgHUyjpQ2dCMkoJcPDwfgtFeqyEQS5B0eAl8tpyCUM6shVp0dkrA5gUN8hqFyGTWBQwIs+MwztsfJe1CXAqegSVRqWCTSnUWP8ACv03IaGxFXMR8+O28xlkW1Q0vMH/ydNwv5Z1J+yrV8J7zOAHI42NdwrwX0JsW0WjKf4xt2yKwc+9+PEhJxaU7T6HS6FASE4Rx00Nx4fJxRISFYc+BWFTLVCbzraQpD9HbtiFs225cSnyF1NsxSGRjC3RKGLz/wkzef5d5r0JpM+KYt+DhMyhulgKSJgvvwXTmPcg2pQiPLh7j0mVefoU5j3HD6OXHl8/0OZD0TBf1fqEGvpcFfXNvAtYvBPcujWvkntoH16gHysXrBMyfd4VWz4m7kHQhLpR2cntoegvCXrVw55839WBZUgOCXgo566AhNj1q0y4hInQdAgOCsMF/Gn492h8lrWXYPftbHElqtUzUlgAUy1GfchQTvYMgkCiQcDQQq/behlxcgYBJH+O7hQGGtbmDVmP0H97BEW4MoWXUzjryWAE4VKCcADQbAzjU+OxxdbW9jAAAIABJREFUvbxLiCIzj0DmHThUr0Bq4O1RMxSHKxAwfyG4Qn48IQ/UPnhCLXpmGQb6vMs0Oii1ZhNAyWqxe95XCDz3AlKlDk0ZVzDGyx8lzSXY5TMaux82WIJ7gwBUdNRgi893OHgjEaFrFiI2qwmQ1WDn7FFYeegucnNzuT0vvxCtMstonXlEAtAG/ZK4EIyfF2VyArERbBhPO8YrkBr4YaxCSsqhBAb6QnBoZjwkcmofPKQiPbAYQ37eVfXYM/sbbL5SBJVSiht7ZuOXn7GJ07uRdWETPvLbgaJGMTSaLuTkVkHRXY29s7/FzrvV3JhCUxcwmwZGI8ezU5swefxYePsdQZOSCU0VF893646gUcxWCepCdmoBOnpMs4w6vVZIANqoAkWXEKWCVpj7C9kI6tanqYF36+qjzJsRGPILAYCsTYBaocF7zyxqh3wV1le6nFegdUGpfbAmQseuQmDoz7sW1c+vwMd7Dub7LkFExGb4rY1AlUQJjbQJ109ug6/XTPj4zELIqceQqbUQPDyGKbPmYeXhGxBkxWPtZkN4NvW0pOoZ1vlOReTjGoMDJ3Mt7azFyW0r4DWTrRU+CyFH4yF2IVFBAtBV7mYn5YMaeCeBp2TtTsD6hcDmANuW0YJulRbCHjX25bRhR2Yr6iVqblxQ+KsWbqD4NUHvoOzkqHmYERIHw1Jw9s2iXqczrUKgkooQ4jsaR5MF3MBx+6Zkv9iofbAfS4rJvgSsn/fBxa6HllvDW2PwGdBqTeP8magz/cZP8aLXG9b81hrWENdahAe0Wo3pGTflR681rhOucbmVQ0gAmmppZH6hBn5k1rsnltr8hcAmgV33rAnvXy7npoU4XdSBx7US3KwUgw0Ur+lWIadVjqh8ETddBM/Dci1g/qw9PtXIv3sIu44mcGuBMwEYvHAUopJIANqDLsUx8giYP+8jr/T2KTEJQPtwdNtYSAC6bdVRxq0ImL8QmOc/s/yxpaDYPc6O2X6soB2BL4VQafU4kifCyuRGbsJYPipLAdhrAdDwFgC2BgD7r5+tA2q0HFjOMtB7jZZZ/DSGtPVqKRIj/TE/8Cq65Fr0CsByqEzxmA1Q5zPk5E9qH5xcAZS8TQLmz7vNQPTDGwmQAHwjHs//kRp4z6/jkVLCvl4I/MSwbJoItgQUWw2ArQTAJobNa5ODdQOfK+ldGspcAEobMrF97XL4zJmNOX5b8LymHWpZF6K2LkDQgUhsXroYC+Z4Y9uV51CyHiGdEhWvrmPNzLnw8VmA9cHh2OLvi6OPBCh5HAWvz/4D//ruF5i9bgdS8gUI9vkAS8P2cfH4zPLCiqj7ZisVuUatUfvgGvVAuXidQF/P++uh6MybCJAAfBOdEfAbNfAjoJJHSBGtXwhavR6LE+vRKtPgUG4bIl61cNZAtmQUG/fXodCipEMBvye90z3wAlCsbEZUwHyEnHoCuVKGjPObMXXLRbR0iBA88f9g1LJoNPUoISq+h7GTvPFE0ANJdQp8vGfgcEI5NBoFGnPiMOnX/x+3QpBe04OEw4sxPygGXTINlJLX4/ly7CTEFxtXE3CROqP2wUUqgrLxGgH+eWfje/mVPuizd9WT/rCYfK8GTAQO1/YWS0gqlaK1tRVisRidnZ1oaeldmqW/GfHshkmDVkEZhF3GiaH7C2UQ4Tyb4yCA0CVuS4B/IbB7mi38zsb3jbpeib3ZbVxX7/T4Wvg8qkN0vggnCtu5VQPmPqpDQp3EVGZeADYJ7mD6V2NxOj6Tm7/r6ZUIjB6zCBlVIgTP+wT7HhRzzhsqiRBb5n6J4yllyLm1C16++yDiV+zRNeHA7G8RFFMCaOVIivLHwmDDUpBcF3Cf8VS5lFMItQ+mW4O+uBgB9rz/5cE8/OZiGe2DZPC3UQWeIQDZJI9suZfSTiXYdzYbOJsF/EVzDwpECq6rh3kEMi9ANjZoMJu5F99grje/RqvuwP0rF5FV22lyGe/9XYioeRMQElfSe8pB36iBdxBYinbYCZgLQJY4G5vH/xfM5n/lv7NPZh2sk6jQJteYef0BvABsLInF1+/8Hks3hiEszLAfOHkFNc2Wzhu9Y/mKkXEtGNP8Irkxflzh9c04PHecbQFo5gTSG49rOYVQ+zDstzEl2E8C7F0fnCakfYgMrvBrGPeT+1CCOcwCGJkvwqdxAm56hxdNPThd3IFnTT1YmFDPefzltsm5//S/f9oI5iE48M3Si2/g11teIRcLELF0Ia6k1/YpACP5F4flZXY/ogbe7kgpQicRsBaAg8kGLwBbRQVYPnMiTj5rME7rIEN7qwRKK+/dXuFWiqpnJ/DtuPlIrW7nkpYKkjBj1G+x3mgBTDm+HHO3XIZEpTdzAjEIvt54SAAOpt7oGiJABFyfgMMEYI9ah6vlXZwAZBjYf/9M9LHxPRKVjjvPFoh+2mA5w5dOy2boNuxs/eDerdebT8O8/tQSJB5hXnxXev/DB6DX9V7P1h7mN3aeeQGyuM3P87+zT41KafZbb3pabRNIAJqTou9E4IcJ2EMApkQvwPTgWEg1cpTc2QOvef4IDg1HUNAqRJ7PgVQqQpjvV4h+2ivcTMc9Qlw+vAZjZ65AeFgIdu0OwuT3foWAWGbJ10CYeRkzveZg66FzKBDU2o7nh4s6bCHoH8RhQ00JEQGPJ+AwAcjIsRcA21n3DrP+rUhuRGqjQfDVdqs4b7+lSQZByJFWd+L60TD4zp8LH9952Bwdb/DC0ylRmf0IISvmwcfHB17fb0H0wVCDF987Bi++tKousLV5Yw8FYMGCOfDx8cXKDYdQ2CnnxGfm1UAs3xSKsPAAHLj2Ctaj+ThvwtBliMmog9YiPeY9GIzFY75AILMcOHijBt7BgCn6YSNgDwEoFdWholFssMprlagRlICtuZ1fUIg2meEfvta6EoikSq5c7B8982OtogtlbL3u/AJU1BRi+5wpiHwqNDDg4ysqQ6dUYXGddTzDBu0HEqL24QcA0c9EgAj0m4DDBCAzvsWUd+FKeRcyW2RYl9rEefjdfpKBIxfvc/vhi/cxYXssOiRyQ4Z7hMgoKkePTI6O5jwsmzgBcTktEFenYJ73TBxONHrzNVagoa6l14tProFWLcWV3f74PuQiWhQqKKQdiAufiSmbT6NTrkHyAS/86svFSGsQw3wOMZ6UeZdPF+c9aJZezjWT9yAf3lGf1MA7iizFO9wE7CEAh5JnVXsVHqfnQyxTQaNSIP/uYUycH4AMoUEsDiVuZ11L7YOzyFO6RMDzCDhMAD6pl2Lmg1rMfljHefiNuVXFefx9tjYa8YkpiL3zCA+TUhGw7zzEEhlHVi3vQl7aHWxf44u5s2fh3Xd+i6ikEmRe2wb/TWfQab5ms5UXX09HOpaNm4wHxfwyUnpIyh9hypilyBBJkXxkDqasv4BuG3XYKwBLbHgPjjEMHrdxvb1OUwNvL5IUj7MJOFsA6iRVOBy4Agt8fOAzdx7Wbt6FFIHI2ViGlD61D0PCRxcTASJgRsBhApAN3+O9/NhIPP775n0XcOrqfbz90SKcvhqPczeeQipTAnotCm7vxdTZi3E3r43rzg2cPwpRiQVIjF6K+VtjuSWbTHm3EoBSUQoWjvJCUkXvmEJl7XPMGrMMyUwARs6FV1CMzTVFewXgD3gPmjLgmC/UwDuGK8U6/AScLQBZiXW63nU/NRrzdUWHn4c9UqT2wR4UKQ4iQAQYAYcJQFt4N++7iAu3krHz2E1EXYjHzYRcKJRqbl4u5pU3bd05SJR6dAgSMHv0R4hKKoUgKQrf+axBTq1hUla5XAKlTApzLz6lpAFhC75DyKVXkHHLROmQfX03ZqzchUaZegAC8Ae8B20VzE7nqYG3E0iKxukEXEEAOh2CnTNA7YOdgVJ0RGAEExh2Abhp7wXsP/8AVx9k4tT151i77RIkUjYGUANh/nXMnjADwcEh2BSwDh9/9LHBu69HiCung+E9axXCwrYicNce5FR0mbz4gg6dQ2lTJ2ozr2HF7NnYHBqCrQGbsGTxcjwqaOAGkJu8CW1UNrMAWnoPrsXYGSsQFhaCnbuDMPUP7yKQ8x60EYGdTlMDbyeQFI3TCZAAtH8VUPtgf6YUIxEYqQSGXQA2trRDUCtEY0sn2rt60NBsmKOLqwCdGs1VZZyXX3ldi4VXnk4jRTXz5svLQ1GZAHINADMvvi7uhA5dzVVcGM7rj/ceZKudmHsT9lHb1l5/Ft6Dje1oratGo1jdx5X2PUUNvH15UmzOI0AC0P7sqX2wP1OKkQiMVALDLgCdD1qH5uIUHDauJsCvKnDifhZ6VDqnZ48aeKdXAWXATgRIANoJpFk01D6YwaCvRIAIDInACBSAeiilrSgxWhOZRZHtFQ1mlsghIR3axdTAD40fXe06BEgA2r8uqH2wP1OKkQiMVAIjUAC6dlVTA+/a9UO56z8BawHIrwXMYjCfGYAd87MEGNYF7n8awxdSDy1bgajPBCV4FXsOyYXGCab7DGOfk9Q+2IcjxUIEiIATvIAJ+psJUAP/Zj70q/sQsBaAZ4s78MX1SrB7/HGdBIsT6+GbWI+URimiC0TcPKHzH9dhy4tmlyukUlKF8OX+hpWCXsudkJaKfI0JnSACRMDVCZAF0MVqiASgi1UIZWfQBMwFYLdKiwM5bRh7q8okANm5ApEC/k8auOUa5RodjhW0gwlFV9tUshbcO38SGVXtfVgBSQC6Wn1RfogAEfhhAiQAf5jRsIYgATisuCkxBxIwF4AsGda965dYzwlAdtyh0GLT82acLupAl1KLtalNWJRQj0appbe9rEuIwpwc5OQUoKFDhFpBDWRqo8OWugvlBXnIyclBZVMnN+UTW9e7VNAAUUsd8nNyUFBaaQovaxWgpr4J5aWFpvBSUT0XLqegFB0ydR8CzwBJWCcw+12N+vICLt3Symzsnz2OVgpy4L1EURMBImB/AiQA7c90SDGSABwSPrrYhQhYC0CWNV4ANvWosTVNiLMlHZCrNNBotVCqtbhS2oHtr3rH0qlEudi2YSm+X7YJ4eEh2Ow/C5/8YTySBVLoFW24uX8NZs9ZiZDQzZi1LBS5zVIIs6/h289+hw3bdmBHaDDmzZyA8Gt5UGiA5COz8f5YHwTvPYhLT0ohacnGzjW+WLEmEKuWLoLf3jgYppSyBMnmCQ3xHY2jyQJolSLcOR6BxYv8EB4egeAtazDmnd9gU0yJ5UUOOKL2wQFQKUoiMEIJkAB0sYqnBt7FKoSyM2gC1gKwplvFrQ+e2SLDutQmbM9oQYJABN+gKKzbcYrbV20/iaUH4oxpqvHkkD9mbTiOFsPEn6h+dhxffTYFSYJuVCQdg7f/VuQ3yaBTduLsxllYfeIZql/F4cs/foiTz+uh02tQcm8XRi8Kg1CiQvKBGfhiZjiqWXw6MWLD58Nv13VIlVqoG19i/uTpuF/CryfeW/TepSIFaMiKxfQ5y5BYybqq9VC2Z2HV13/EFhKAvcDoGxEgAi5PwKECUM3c/owb6/5hx+wMO82+8zsfxtGfep0Oas1A5/rTQ6vR2OgWsr/3HwlAR98FFP9wETAXgAqtHtcEXQhNF+JiaSe3h71qQXByDdbtOo2424+w88hFpGVk4cDZe8YsChHpMw6BV4tNWZaKnmIBW/O7TISkqCX4+PNpCA4JQ1hIIBZN+ANmh16DIC0O46b5o7iLrTAECLPjMM57CUrEcsOSkIHGNcGlAgRM+gjfLQwANx9o0Gp8/Yd3cSRFZEqP/9IrAIuRERcCb/9IdMm1xp+FODKXuoB5VvRJBIiAexBwmADMaJHhm5tVSKiTcGN6gl4KMethLTcQPLlBavL4G3fbMCjc8bh0qEm7jAVLIiAQG14M/UmT8/773m/YvP9IAPanViiMOxAwF4C28tsplmLjnrOYu3ovfNbsR15xBeIeZBiDt+LE4vFYfzabG9vHTkrr7sH786mcAHx+ejXG+ITiWUYe8vPzub2mRWwUfP6c4GPXGASg4Tg5ci68gowCUFaDnXNGYdXhe6brCwqL0CZ7PbfmAjD7Zjgm+eyGSMaWIwKgrse2md8ggCyAr4OjM0SACLgsAYcJwNjyLqxMbgR7CZR1KpHbJucGes99VMcNAldodHgllGFfdhtU2l5LoeNI6dBZl41LV++jU83/5/7DqTHvv/vD6P1HAvCH64RCuAeB/grA1TvPIu7hKyS9KsHW/VfxIJW3+KmQfX4Tfj99C7Lqu6CWteJG+Hz87/e+5bqAO4vuYKq3N5KKRVCrlagXlKCythNNnMWvHwIQKmRd3Ixxaw+jvksNtboTWSn56OhRvQa4VwCWQ1R8FxPHjMXRpyVQqxQQJJ3Gn375NtaTAHyNG50gAkTAdQk4TABqdXpO/LGXANtYt++Z4g5sfN4MJv6OFrRjyZMGxNd0c79xYZRSlBfXoFXUaPD6KyqHRKGByUvPeMzj5Lz9Cpl3INsrITV271p66wFKqQjF5fWQSDpQKqiHQmvoBjbFmz9A77+yfIP3nyDL7t5/JAD52qVPdyfQXwHoF3QUu07dxdX4TJy7mYbLt1+Yiq7pbsSlg5sx22smfJZuwdHze+H1lTdSKmXcWuD596Mwc54vfHzmYsXWnchrUKK9JAHrArahWqrk4jE/zogLx4box+CNfJquOpzavgJeM33g4zMLocceoK8lv5kAPBqyGFfTa6HTKlGYfAE+3nPhs2Axtp88jT1rlyD6cbUp3476Qu2Do8hSvERg5BFwmABkKNkLgO0yjQ6ReSJseNaEOrGC8/hTabTIb+3BrPhqdCoMFjmp4Ckmf/IxlgXvwK6wECyY44UV60IQERSGUOPxuqNJ3Jq9ank1TocEYsX6NQgND8eqWdMRcTEerV2diFrzLVaeegZu3LhejczYUExfdgA5z2MwfsYyrmtI2ZJl9P4Lwupli+C35w3ef4u+wtGnzPuvzcL7L8QB3n/UwI+8h9BTS9wfAcjKrtXpoGO7Xg+9Xs8d80z0Oi33G1uFg43Fbcu9hLlTVqCQnyqQhWe/GXe+L4HFZ77xx3q9DuyfU4uNnePjYOOUdVqo1cwi2LuzMcxcXvT8tWbpcr+x/FvE6pADah8cgpUiJQIjkoDDBGCbXIM9Wa2cpx97EbAZ/9nYv02HYrAq4rjJ62/MqgPo7JZy8KWCJEz8aDSiEwXQQIfGl2fx1bsfWRx/N3U5Srq68STqe8xffwyN/H/51c+xaPoMxOQ0oOzBPnwzZysaupXQKZpxZJMfIh+U9HYNdQg57z//XTcsvP/u/YD3X31WDOf998Tk/ZeN1V9/YFfvP2rgR+Rz6JGF7q8AfFPhm7NjcPjiA4OVP+kWtqxdjNCL6VBa6rs3RTHA39SoSruB9T7MIti7h59LgNRxifY7j9Q+9BsVBSQCROAHCDhMAGa1yDjxx8b4PWvqQWh6C8JftWBSwAmkvEjH9kPncTv+CQ6cvoVuqcEpgwlAr1EL8FTUKwj7Ok4WCV7zDtQpxDizZgFCrmWjpyUHy8dPxLWSdnQVXMHcqeuR367sHQzeWGDp/Re4GqP/8I5LeP9RA/8Ddyz97DYE7CEAe4SFOL5jO8LDwxEevhfxryrBzwHtOBBm1j2TZdBhinNAxaD2YUC4KDARIAJvIOAwAWgrzS37L+LE5fv4YkYArsenIjY+DTK5YdC1QQAuRLKFAOzruBZnl0/A+nO93oE6hQiHls7Crlv5UOvUSIr0w/yIGFzduwLfRyWB+euZvAGbS13W+48aeFt3Dp13NwL2EIDuVmZH55faB0cTpviJwMghMOwCcPO+i7ifkod7yXkIO3INJ+OeQakyTKfQfwEoRdmj3fjaayNSBK1QqtUoTTiC+XOWIb1RwtVeZ9kjzPrmc3w+YT2S6gwWRZMAFHe7rPcfNfAj5+Hz9JLyArC5R22a85Of+5M+e+dBHQgLxvJnRwu5sdWefv9Q+YgAEXAsgWEXgPvO3EFo5DWcvv4Mt5MKsO9kPCTGLmBZfSYCl4cjq8vgo/emY62yA8lXD2OZz3RurM6CleF4ktfAWfoYMo1MhAuB3li27xa6jUuLmnsDapn3346VFt5/fDhz5Mz771ion8n7ryjlAuYZvf92nDyDPeuW2tX7jwSgOX367s4EmAD8i4N5+NWFMtrtxOA/z5firf25JADd+cGgvBMBFyEw7AKQeflxHn/Mc477buk6x34zP/PmYz10/Bgd49Qu5lyZx5/OyjWP9wbkwpl5/7Fw/fX+M6XpAO8/EoDmNUjf3ZkAm/8zJF1IuwMYFLUr3PnWoLwTASLgAgSGXQC6QJltZME1vP9IANqoHjpNBIgAESACRIAI2I0ACUALlOYWRePcYlbziVkEd8ABCUAHQKUoiQARIAJEgAgQAQsCJAAtcDj/gASg8+uAckAEiAARIAJEwNMJ2F0AXinrJI8/3eA8/Jg3IHn5efojR+UjAkSACBABIuB8AnYXgP/nZDF5/A3B44+8/Jz/UFAOiAARIAJEgAh4OgG7CUCJSosdma0ITRfSbgcG5OXn6Y8elY8IEAEiQASIgPMI2E0AOq8IlDIRIAJEgAgQASJABIjAQAiQABwILQpLBIgAESACRIAIEAEPIEAC0AMqkYpABIgAESACRIAIEIGBECABOBBaFJYIEAEiQASIABEgAh5AgASgB1QiFYEIEAEiQASIABEgAgMhQAJwILQoLBEgAkSACBABIkAEPIAACUAPqEQqAhEgAkSACBABIkAEBkKABOBAaFFYIkAEiAARIAJEgAh4AAESgB5QiVQEIkAEiAARIAJEgAgMhAAJwIHQorBEgAgQASJABIgAEfAAAiQAPaASqQhEgAgQASJABIgAERgIARKAA6FFYYkAESACRIAIEAEi4AEESAB6QCVSEYgAESACRIAIEAEiMBACJAAHQovCEgEi0G8CBSI5Al820+6mDGIruvpd1xSQCBAB9yNAAtD96oxyTATcgkBcRRfe2p+LX18owG8vFdLuRgx+GpmHKfdq3OI+o0wSASIwOAIkAAfHja4iAkTgBwgwAfizo3loldVAp6+j3Y0YTL5bTALwB+5v+pkIuDsBEoDuXoOUfyLgogR4ASiS1wKoo92NGEy5RwLQRR8ryhYRsBsBEoB2Q0kREQEiYE6ABKD7il4SgOZ3Mn0nAp5JgASgZ9YrlYoIOJ0ACUASgE6/CSkDRIAI2CRAAtAmGvqBCBCBoRAgAUgCcCj3D11LBIiAYwmQAHQsX4qdCIxYAq4qAPNF1chqqbK5q7QGh5WRPG6RuoBH7GNLBR9BBEgAjqDKpqISgeEk4IoC8ERhBX5yJA9/fiC3z/1/ROXhTHEF1Dr3td7ZQ7iSABzOJ4XSIgLOIUAC0DncKVUi4PEEXFEATr1XjL8/VoSfHS827X91JN/0nZ2fer94xHsskwD0+MeTCkgEQAKQbgIiQAQcQsAVBeDMh6WYmdqKBWkibmfff3GpAvNetpmOWZheK1otNJoqm8c6bSVUKsOu1fHT3dRCYzynUrPJlA3WRBaPXlcNlboKetRBr6sxXavS9IbjwzvzkwSgQx4JipQIuBQBEoAuVR2UGSLgOQRcVQB++7ARExKbuP3rBw3453NlGJ/QezzjQa8AVEpSEbpxIR6X5HJCzvxYKclFzKElmD9/Mnx8p2JbzD0ujKT+NsJWzYXPnEmYvXgpUqtyoZYV4EjAVGzYtgn+69YhoSgNuQ/3Yu3S8ZjrMwEzAveiQ1ppEovOFH8sbRKAnvMcUkmIgC0CJABtkaHzRIAIDImASwrAB8VY/6wU4a/KuD3wZRn+FFNocTz/cYlJiMnFifD3/gJx2Vncud7jdBTdD8BM302o76mCTJaJnNxMaBUZiAzwQsjpq1BpKpB1cRkmb9oPYUcugif+HBPDIiFVV6On4w5WTvgaN/NyodWVoLj4ObRa3oLo/PGHJACHdOvTxUTALQiQAHSLaqJMEgH3I+CKAtDvSQnMVyZh3xcklEBjdPpgx36J/RGAr1D76hAWffcVjt2OQWZFJjTaWnRXnIT3l6Nw4u4tZGbeRcLFNfhqjDcyqnIRPO8DHEp4Ci3qIO9KQsiUT7Bi5z48z0tCt6LaJDqdbf0jC6D7PWuUYyIwGAIkAAdDja4hAkTgBwm4ogC8X12JXVnlCEkv4/a1qaV491KB6XjLizKcK6kwiTG5+AmWeI+ytABO67UIVqUfw86QRZgweSLO3o9HW0k0vnn3XSzbtB4REWxfh8NnolArzEXwwg8RlZTCCUAmsqTCJJw/sgYL547FvC0H0CwVmNJ1tggkC+AP3t4UgAi4PQESgG5fhVQAIuCaBFxRAGr1dShsr7a5l3RYWuJU0iyEL/oEO+4mQq2vQUPOYXz9wcecIJTJiqFgljt9FbLO+uHbxSEob3iMlbNG43hKGlhaQCnahEVQSK0FYCna28sA1EJSchoTxnkhsdZ1vI9JALrmM0W5IgL2JEAC0J40KS4iQARMBFxRAA7YsqapQMHNDZg0cyqCgpdj8+Z5+N1no3AtOw05T/Zgk78fQkJWY7HfHBy484Ab91d2Pwje82YhKHg1AgLm48i5+5BKcxHu9wminxosgFLxXQTM8+Wu3bDOF5sOHkK7mcfwgPNp9DS213UkAE23MX0hAh5LgASgx1YtFYwIOJeARwhANl2LpgK1lU9QWPgYNc05aK5JgVheCZUsF+WFj7nzJZUZUPMiTFuJ+upk7nxR8ROIZGzKl2qIGp6io8fQzavTlqHOeG1hce95ewm4ocZDAtC5zw6lTgSGgwAJwOGgTGkQgRFIwFME4FDFlDteTwJwBD6wVOQRR4AE4IirciowERgeAiQAnT+dy2DFJwnA4XlGKBUi4EwCJACdSZ/SJgIeTIAEIAlAD769qWhEwO0JkAB0+yqkAhAB1yRAApAEoGvemZQrIkAEGAESgHQfEAEi4BACTAD+NDIPAS8ZhohZAAAgAElEQVTYnHts7j3a3YXBL88XYMo9tj4xbUSACHgqARKAnlqzVC4i4GQCTAD+XVQBkhukKGpX0O5GDL68XkkC0MnPDyVPBBxNgASgowlT/ERghBIwdAEXQiTXjFAC7ltsZv0jC6D71h/lnAj0hwAJwP5QojBEgAgMmAAJwAEjc5kLSAC6TFVQRoiAwwiQAHQYWoqYCIxsAiQA3bf+SQC6b91RzolAfwmQAOwvKQpHBIjAgAiQABwQLpcKTALQpaqDMkMEHEKABKBDsFKkRIAIkAB033uABKD71h3lnAj0lwAJwP6SonBEgAgMiIA9BGBPSxmy84og6lFBb5W6UtKGguwMlNd3QGf1Gx0OjQAJwKHxo6uJgDsQIAHoDrVEeSQCbkjAWgDmtMkRmi5Et0qLBqkae7NbsS2jBbXdKsRWdCEkXYiIVy2IKe8yllaKq6u/wU9++nMEx2VDaaHytBAkReE3/89P8c2GWEjdkI8rZ5kEoCvXDuWNCNiHAAlA+3CkWIgAEbAiYC4AO5VabHjWhN9fKeemhTlT3IGnDVLcre7G1jQhJwgL2xU4mi/iRKIhKi2enVqPT7+ehvOplVZWPoMA/PU//gRfr48hAWjFfqiHJACHSpCuJwKuT4AEoOvXEeWQCLglAXMBqNMDPWodFifWcwKQdedq9XocK2hHUJoQSq0eh3JF+P5pI8RKram8WrUSCoWSC8ud1GmgUqmgUslR9iQSJABNqOz6hQSgXXFSZETAJQmQAHTJaqFMEQH3J2AuAPnS+BkFoEKjw4nCdnjdr8HtKjHShDKcLe7AxDvV3HlDeBke7PXF7379NaIel0ChlODF1R344Hfv4Nfv/R4z583AL35GFkCerT0/SQDakybFRQRckwAJQNesF8oVEXB7AtYCUK3TcxZAYY8aB3LauK7e725X40cH8zDtfg23/9n+XLMVKKSIWf81fvKjf0FwXCZKn57G+//4U7z9m3HYGBqM8R/8HH/2IxKAjrhRSAA6girFSQRciwAJQNeqD8oNEfAYAuYCUKbRITJPhNE3KrEvuw1rUpowPb4W/3SyCN/eqsK8x3VYmtQAyzVozQTg5VTE7JyJv/mbv8WqE5lQ69XIvxFCFkAH3S0kAB0ElqIlAi5EgASgC1UGZYUIeBIBcwHIysXG/en1xt34ffK9GvzbmRLOESTgRTP+81xp3xbAyym4HDIRP/7p/0To3RoAGuTf2YX/+O9kAXTEPUMC0BFUKU4i4FoESAC6Vn1QboiAxxCwFoB9FYwJjbeM3b4ni9pN3w1hzSyAV5/j6cnV+Icf/zU+mBqKh6mJCJr3Af4v6gLuC+uQz5EAHDJCioAIuDwBEoAuX0WUQSLgngT6IwAXJtTjrw/nc84gMx/U4q8O5cHnUZ2xwD24tuU7/P1PfoHQa9noailHhM9v8Hc//TH+23//Z4we+yX+9//99xi7KY6mgbHzLUIC0M5AKToi4IIESAC6YKVQloiAJxDojwBs7lGjuF3Ru3coUC9RG4uvR3drHYqLy9DaLefOyToaUFxcjJLSKnRIu1FVXoKq5m6rOQI9gZ5zy0AC0Ln8KXUiMBwESAAOB2VKgwiMQAL9EYAjEItbFJkEoFtUE2WSCAyJAAnAIeGji4kAEbBFgASgLTKuf54EoOvXEeWQCAyVAAnAoRKk64kAEeiTAAnAPrG4xUkSgG5RTZRJIjAkAiQAh4SPLiYCRMAWARKAtsi4/nkSgK5fR5RDIjBUAiQAh0qQricCRKBPAkwA/jQyH1teNCM4TUi7GzGwnI+xz+qlk0SACLg5ARKAbl6BlH0i4KoEmAD8u+gCpDRKUdyhoN2NGFiuyOKqdxjliwgQgaEQsKsAVGr1oL3/DIZSccN9LdVr/+vVmayG+754U3rUBfwmOq79G3UBu3b9UO6IgD0I2E0Adiq0+DhWwC3lxLoPaH8zgw9jKiCSa+xRh8MSx4rkRqpTN7ivH9dJhuV+6E8iJAD7Q8k1w5AAdM16oVwRAXsSsJsAZGLmZ0cLMfNBMSIyymh/A4Np94s5Vu4kANkL4dcXCqhe31Cvzrzvg16W4X9E5oGJLlfZSAC6Sk0MPB8kAAfOjK4gAu5GwO4CMK5CAIAt5US7LQaMERPL7iYAp9wrpnp10ftaJK/Fz46SAHS3BthV80sC0FVrhvJFBOxHgASgE17oJADpnwNb/xwM9jwJQPs1ihQTQAKQ7gIi4PkESACSAOzXXW54IZAFcLACzdHXkQDs121MgfpJgARgP0FRMCLgxgRIAJIA7NftSwLQta2W7iAAtXqDJ7VGp+fuOd5bmr8BrY/58/Q5/ARIAA4/c0qRCAw3ARKAJAD7dc+RACQB2K8bxSyQtRNIdH47/utCKfyfNKCmW4WPYgVg3vCZLTKkCWX4OE7AzSTAjmlzLgESgM7lT6kTgeEg4FABmNNajc0vyrDped/7pVIBejS10OkH/nLVqgVQa2sc5pTgyPg9YQxgt6oWu7LKbdZtcFoZhD01UOsGXreO7i4dXPw1aMi7hIu3bqNH5bj7bnB5q4OrWwDb5Rr8rxNFmHqvBv8zuhBHC9rxaZwAG583Y0FCPTfm7NcXy7AtowXXzDyZdRol1Bot1EollEolVFqD9ZA1jnqdhjvHzivVOlN7qVGroYMOKuM1nMVRr7U85kObnVdre+Pgfx6pnyQAR2rNU7lHEgGHCcBOZS3+cKUQf7Y/F2/Z2P/6cB7iayoHIeLKEH9gPtYdOQ+Z3Sx4paireAa5hgkWR8TfK4Q8QQCuSC7Fnx+wXbd/cSAXa1JKByXuByuCHHtdJbLjVsHbPxxiefUg7tne+h9YPs3vS9txuLoAZB7v425X42GtBL6J9YjOF+H9K+Vg80vOeFDLCcAJd6ohVeugMBN5ry5thP/mcOwL24j5M6di9oY9ELQpAehQnnoBa3znwMdnJqYvC0dRQzd0SgkuhqzAipC92LrEDz7zZmLN3it4evMS1votMhwfvoMelQ7QKVH48Dh8Z8yFz8KFWL3zIlrdaG5OR76oSAA6ki7FTQRcg4DDBCB7If37+RK8f63atP/8fDn+9UK5xTETQwN7IbKXYCWKU08iJikJKjsJQEnNafh+NxXZQsfEb15GTxCA0+6X4Ncxlaa6fDeuCv94sre+2fH0B6WDqFvbIsec4fB/d44AtLwvbbNxBwH4D8cK4XW/Bn8fXcAJwD9ercCypAbMfljHicB/OlmMuY/qcLyw3dQ6Jh+Yiv/8wAuPyzug76nHTr/R2HKtBNAoUF+egUqhBApFO65u8cKy6GTI5WJE+X+Oz+bsRZVCA0ljNhZ88AuMWRyNSv54wjhczWpGS9F9zPHxw82cNqgkjdjp74VtNwvBtOFI30gAjvQ7gMo/Egg4VAC+H1uBhWki0z7qfj0+uVuHBcZz7NhcAOqUxSjOT4WwNQ056beRnpsIsbwKktYXyDI7Zi//HmESBA150HECsArC0sfIYGHSH6G+8SVKa3Kh0dUawlWnobgwHqV1LHwlaovvId0sPrWsAM/j1uLLP32OM/dvo0JYbBW/Ib2sDBb/bRRXZEFjFJ5cPuoyUF38kEs/35guyyOLtzDHcE16WQbU2lpOEHmCAJz5sBSznrWa6pZ9//dLFZj/so07x45ZGHOh1lqbiiZxEaqN/HOLk40WV4Potq4X/trGivsW9cXXP18fr9WXrgK1xQ9R317Opa+U5CC/spe/Kb70B2gSl0NvrMvG6iSIWl4iOy8Boh4B9KhBZ20iMrl6v4fH579/owXwteuN+eDuy/wXkGsMXce27gvTfZ71iEtf1cd9ycpuyr/x+WDn3EEAbk0TolWmQWh6Cy6XdeKrG5Vga86mNvagQKTgjkffqESW2RjA5CNzMHndaXRxokyPxIOzMS38BtgowcaKFzi+azMWzZuLMR/+B8ZsjIGYE4BeCLiaARUArbwLBxeOtzz2nYTwa2lIPLUG4+cG4unzdKS/eIrDq8ZjXvhNSNmFI3wjATjCbwAq/ogg4FAB+O/nivH761Wm/d8ulOHfL5RZHJsLQKngKib+6X0sC9mEPdvWYdHcMVi6cgXCt65FhPF4deQlSFU1SI6cgmlbIyHVV6P8xSHMnOaNzUFrsWv3aiz1+hijl0RwXXXJhyfgnW+mIHhfCK4kPUVn5QWEBSzF9u3rsMxvMjZHXkJLw1OcCZ+Ad3/1DpYHb8W1zFe98aMGtTkXsX6hN1YHrUZE2DrMm+qFsy9SodLVgcX/m9GTEb4rANu2+OA77yl4WlYArSoXV/Yux4oNixGxfRkWBe9Ft9TQ3e0JAnD6A2btqzTV5buxAvzseNH/396bQEWVpfm+771177rVffv17X5dfYd3+/bt6tdV1VVdWdWVQ2VlVlZOpplpOg8gikgooIIzoqgMojhPCAjijIoogoqzOCCiICAzEgzBPM8ExDz+39onBgYjkATCGPxirZDYJ87Ze5/fdyLi59777D0k7XxnYNoYtbQE0T5/xuez3bB/93rs3ukLnvOX2HM1hZNAsYm4iBQVyL8einU+87B9z0asDvTF47yX6Ki8hq2rdPEI3euD0PO3UJ7sixkrd6JVUQ958014TPktlhxJgAI1KL4VgCX+eyCUFiP1zHasW8Hy80fAajd4eK9EXhMfClEBQhb8At8u90HQ/r3Iq8lHecYxLFvmhoCQQdeVmS5gU8eXPTmEpYvdELR9Hbx583AmPdXsdSFtuYm9GxZi3cb18Fu9AMv2RaKx9vGw6zLdBI9cTnJtXQDZt+nA6D3ddytLD942PM32Sotyh3NwAkT6r2NDuqMpE+vm/hn7ruaCjd1LjdTtpxNAF4Qk5ukFkLUImkgnPMeDYyvx6dcLERy6B3v26J7XnvExqAdaX+q794cE8N2LOZ3xu0fAogLonsIHv7vG+DyQW4HDeRVD0sMFcM7nX+L4k2dQoQ7NWYfx7Qd/HJKeMY+H0t4KTtCcg6PQI36BXd4/4PDN+1xroEZZjKRtszFF/0OddmQWvl28CbWyau6HUiN7hdqmHBTlJuPm6TX4Zp4HKoUVEPKj4DJ9nr4LuH4gf8kL7F49A0eu3YYc9dBqqlB0fSOm83zR0CdA2pHp+HzeCrzqqgLUpbgQOAU+J66ir+sGfGd8j6TCImi0tejrG2gNcwQB9HrIR3pTtTGWGc3VcLvPR6k+3iy94hHf2ALICaD3HzBn60G0SusBbS1qU3dh5nwPLp6m4/IC59dOwaZjVyHV1EGpLINMVoGiG1vg5r4BNX010Ggq0dVVgf6mq+DNmoO0Kj4aXxzFJt85WOIRiiZpGa7sXYGdl2+i9uVRuPE88KQin7tW1MpiXNw2C6tjEiBhAjjvt9gYmwQla719w3VlaJ00/OUEcNDxsq672LhsNs4/fQ6gDvUPQzBtqT9K6kxcF5oSXNo+DysPneJuMFE1J8NjznTcKi0edl0WmOChu67tQQDH8vVqEL7hAtgkuI7537viRYMKSkkLIlZ/j1lbDS2AJoTvNSHMRkVaDGa6r0NZm5SrmqS/B0KRfIiUjqXOjnAMCaAjRJHOgQiMTMCiAuj9uAxydZ3xealcgLOllZDpt12pFCBp0BhA1gLoPMkFaZ06cRgpzVoAmQC2dibAc9I0pAoMsjF0rJZhPxHXzVeHqvTD2LF9BYKDfbF15Qz8+3du4I8ggK/nXw9F/XUsmrKYq+fQ/AeLYx4SQ13hstgJAYf2Ir+uxNjV6AgCyG4CaRLVGmPLXi95wIdYqYs3S69KHZBenQBOR0jiHeO4zYH4lpqJSylKHkTAfe43WBO4ARfTUrlu2d7Ge9jj9Q08Nq7CjrPn0SWqgkpSjKhNcxB+PwV3zgVg/8kIBHk54cmrNBzwm4+kvBfINXETR/2dAMxcshv1TAA9/4To1KdQox6iN1xXBvEz/OUEcNDx7D8U3/32PSz3W4+QkPXY5DMNX0yehaxqE9eF6CkCZn+EGR6ruH1DAjzw/Sfv4ejTgmECWGWCh25coKMKYPrxZXDdnmhsATSku/qqsM/LFbzlftgWuh3L5n6M+dsSuS7gE2vdsCNpoAXQbFrcjqtha+C6djtCQgIRELoLz0u6SQBBK4GM/LNJ7xIBxyBgMQFUa+sRXy4AL4VvfM6/U4rZt0qN6SP5FWDTiRh+RAeE4McI4DV4Tf4ed/gGwapC5vkVmGNoAdSLIieA4ufYx/sc2y+yuwBr0ZQTialObxLAW/D5Ycqg/OvRyz+PebOWIru73NhSqBPMAQFkabWyAnUVd3ElzAuTZ3mjqKOcO1dHEEDWsssk0BBf1vr3ZWKJMb3mSRkKOwbultUJ4FRsjb8JhX7an57SWMyZwUN2w0OzcdFqatHd+BjZDw5j9rS5OJWWDpW2HpKebPDzL2Gnzyys2nscfcoKpJ/wxJItgdi3eQkevcrG5UPLsTtsM5Yv80NlXyWKb27B3KVb0SHRtZoBtcg7641ZPgfQ8poAjnxdGa5Zw9/XBFAQC5cpUxCfmgI+/zH3rKzOgExl4rqof4T97n+G37ELxn3Lyp+gS1o/TABZC7RpHo4qgJLeFtS09MFwX8ZAWgt5fxsq+HyUC2rQ2dak20+rQX9bPTr6ZLpv6Dek1ZIe8Pl87llZXQuZyjG+2Md7FtQCOF6CdDwRsH0CFhNAww/jj/k7FgHsEeXg4LKvMDMkAm29ZehvvAX/Gb/Gx6YEUJmFw7yvsTnuHiSiYiTtn4VffakTwL6G81g8ZSZSK0qhUtcZxU4oLcH54GlY6LcXNV2l3HGJB5bC51AUJIP2Gy6AvaocFOZnQC6vRGfJeSxc4IonjY4jgD8mrmxfnQD+EX+e64dXbSU6jvuX6DjKMs3EJQ+52Y/Q21sGSW8eojfOxM6kW6itT0NtTSHHNu+iD2av2o5WRS3aC2Iwd+GXWLt8J1plAhQkbcaUj38Dj4grXKujuDEZKxdMxdEbN9DP4lJzA5vdZuHg4zTdGMBBLXjKN1xXw89/uAByx6+ajE1nE9ErqoSo/znysp9BYvK6KEF+/BpM892Gmq5KyOUFeJl2H11iAYZel69M8LjDCbGjCqDtf4U6Zg1JAB0zrnRWRGAwAZsSQGnDbYSs90e+UHf35kjpl1f9EXAiHhJtHaTNN7HT1w0evHlYtW0bokLmY8HafRDKamHcj+sCrkV91jF4LJgHjxXu2H/QF2u3bkWtSACNrACJ+zzgxHPD8Uepg46rg7w/E3H7VsDTYx7cl7piW3g4Gvp0dRyaf73xuPauOwhe5Awebx7clnsj9sFdbgwhEwdHaAEcLkBvSusE8Acs2eQLv9WL4L7YBf5Bu1DJcTQXlxwk7l2NZTw998hItIj5KEs7jNXzZ3Nsvfy2IF1QwI3p04oyEBG0FNE3HnNpUe01bFw+DReyC3WtzNoaNPATsc1nHhbr43L29i2IUc8J4Mmd7kjMecEdCxPXVWz4GmzdHw2R/PWJoJkAvnZ81RVsXe+qq6fPIlxKfYE+M9eFui8bsfs9MX/RPPB4c7DrdBz6VPXDrsurJnjobiwiARz8tUavx0uABHC8BOl4ImD7BGxKAN8kEebeV6troDWsJqLk417UMvgeioWEm9TZ/Nxp5vKz9PZ3VwCHjgG0NGdL5a9RV3Otj6x11/BUqAaGMliq3JHyJQG0/S9be6ohCaA9RYvqSgTGRsDuBVAjK0XKlVCcT77CzRV37/RW8NauxCO+vtVHP8fbSD+eb/s9EkDbk/LRXwPVqMqIwUYea6kbeO46H2+yZXD0+Y6PCQng2L4A6SjTBEgATXOhrUTAkQjYvQBCU4XGggs4sscfe/b443DEEZT3Ggb5j+9H1VI/3u+iAGqU5Si4H4Nn/JfGu6EtxfddzJcE0JG+lq1/LiSA1o8B1YAIWJqA/QugDbbwvUlA3kUBfBMTen98/1khAbT0V+W7lT8J4LsVbzrbd5PAhAtgXJmAm+ePzfVHT9MM2HyIP40pQacdLTzPfhBm3SylmNrodd0oqsVPYwqRWNlrM99krC72dp3bDDwrV4QE0MoBoOKJwFsgMOEC+HVSOXgpVfQcgcG318rt7oeR/SD8vyfYPH8UW1tk4Ha/Cv8xnATwLXxnvhNFkAC+E2Gmk3zHCUy4ANpSC4StxtYeW0boB8FWryZdvVhrMmtts6XPn21f51ooFQpugun+xkKcjruOFrHCtoP8FmtHn/e3CJuKIgJWIkACaAXwtv3DaBoI/SCY5mIrW+1BAHvkamS1SiDolXPY8tqlXFqp0XLpgg4pslslMKQtyVbWX4UQb09cyq5HU14iprt4gy/UrQlsyXLtJW/6vNtLpKieRGDsBEgAx85uzEfaqwD+67kyhLxopacNMtiQ3mzTXcBytRbLHjXgLyOL8G/ny5DWJMJ/P16Cv48pwXl+D44VdeKvo4rx346X4FJ5z5g/W6M9UClpx/34WOTVdqOFBPA1bCSAryGhDUTA4QiQAFohpPYqgFOTq1HWLaOnDTLIaBHbdBcwa6H8RSwfYfkd+Ci+ghO+WTdrEFXUCY+HDWDCYbi+avuGdsX2t9fiZVYWsnKL0CGSg7UXKnrqUF7VgMayEuSw98qboFRKUVdaiGxDWq1rWZT1t6PwZRayhm1vquFz+ZEAvv4lSAL4OhPaQgQcjQAJoBUiaq8CyH4U6GGbBGy9C5jV74+XK7HtRSvm3q7lBPCbq1X4OqkKv4zl49/jyvGrc2XY/LwF1wRCI2Rpczb2bFiGdRtD4LfaE177LqFbogI/IQDvfTAPwbsPYNd2P8ya5Yy9Ow5iW8gu7GTpua64ndsIaBTIexSL4ODt2LMnAG4LluBebiMUok6EeE5CdKqAuoCNtAdekAAOsKBXRMBRCZAAWiGyJIBWgO7gRdqDAP78rK4FkHUBsy7ffzj5Cn8bXYy/PVaMLc9b4P+sGX8TXYz5d/T/0dD0In67O1YevgmxQgNVcxY85szHzdIe8BO24vMZfshvlwFaFR4edMWkuZsH0uEecNtxDSKtFvL+djRWspbCDBxaPQ2ue26ilwRwxE8ECeCIeOhNIuAQBCwqgDKVhoPEOmJkai1Ymo33Vmt0r7ltat0+bEdhfT6i9wfi7N0CDO0EAtSKTiQf24ngiOtoEekGkdtrBEgA7TVytltvWxdAkVKDG9VCqDRaPGsWI6dNgoN57dx4QNYV7HqvDk63a7nWQWNLs0iAgNmfYbpHAEJCQhCydR2+/+QDHH3aCX5CMKa7R6FVHxJz6WaFGA/idmHtho3YtmMXVsz+A+YGJqCbBHDEi5kEcEQ89CYRcAgCFhNANiZp0tUqpNT1o1GkxNbnLVh0rw6H8jrwuEEEXko9lj6oxw/J1foJkZUovRuJf/ur/4iPFx5Eo2woX6mQD+8//C3+9g/2f7ceCeDQ2FJq/ARsXQDNnSETjZ9EFnGtf2x8ILsRxCiA0joc4E2GX8wDlJWVcc/yikp0STFqAayovAXPuc64U8JuLNHgwWE3OAWRAJqLh2E7CaCBBP0lAo5LwGICyCSH3ZnI/rJpH4o7ZehXqDnxYz9WrPWPTflwJL/DOO2DpF2AiycP41Jq+WstgCSA1r0I6QfBuvzfVLq9CiBr9fs/wgq4/wye53dzr40CCCXyLwVhmu8R1HTKIJN1ICetCF0i+egFsOE+nCbNw+3iTnTWZsN39u8w1Z8E8E3XE33e30SI3icC9k/AYgKo1mo5+WMCyB7shrzjxV0IzGjh5I+NAVqV2ohbNX1g+7KH7m69F3hV0QIV26CUoKw4Dy9evEBWQRqWffg31ALIkXr7/9jLD4KotQyVDZ3cBL9vn5L1SrRXAdyT04ZPL1dizq0abuwfe70ru80IUtPXhHMHfDF/EQ88nht2n3mIfhUgeHgafjuuolO/p7l0h7IH96KCsXj+IvgE7MOhnb4IOPkYQlEnTu5ahcScenSUPcbWkP2otfOhJUZoE/DCXj7vE3CqlAUReGcJWEwAGVEmf+zJxv8cLezEjBs13FxgARkt3Fxy7G7A38eVo1umZooIQWo0fvd3P8Fn846gRS3Dswsh+NX/+jv8p5/8BP/rvd/jvb//DySAVrpUh/8gsHndWCsuexjGdLLxXVxaq3vPkOY2WuwfLToqMxB9Sjc2NC3KHc7BCRBZrDzbzNheBdA2aVKthn/eiQgRIAKOR8BiAtgmUYH97z40q42b2NXrUQN3p9//daSAG/B9OK+Dm/phYLH4oQJYVf8As//lp/iv/zofSZl5SIkNxM///ickgFa6Bgf/ILAVHZY+aMB7F8oRVdiJ61VCsEmi2TahXI3ook785nwZvB7q0patshoNuUlYt/EA14JDAqhrcbcs89Hlzv7zN/D5Ht0xtJdtEBj8ebeNGlEtiAARmGgCFhNAtszT/tx2RBR04kWrBHtftmPB3TruB4EJApsCIrKgc9APxFABLEk7gp/+9U/wzcZz6FdoIRWWwvsjuglkoi+A0eY3+AfhqkDITd8x/UYNFz/Wne98p5a7i5O9Zj/6bvfruZjzuwfdzaPVQCFjY7lkkClU3IS+rHyVQgG1Vm18T8laFrVqyPX7cmmuolqoFfrjZTIYtms1KmN+JIAkgKO9pmk/8wQGf97N70XvEAEiYM8ELCaApqCwFgHWAshEkN0d/MHFCvMCmHkM//Bf/gK/d96DZpESPZXX8d3/+CtqATQF9i1sG/yDwOLIxm+mNoq4u7iZ9M28WWOc4JcJ4AV+D9f1bxjfyarYV5+J4NXecHdbBLdlm5Em6IBG1ocL29Zg9baDCPZeDt6ShfA9GI/HSRewYbmXLh1xAyK5BlB24fLRbfBc4g7ech42R97ktrcX38YK3+2oFEpBAkgC+BY+Dg5fxODPu8OfLJ0gEXhHCbxVAUyq7OXu8mPdgw/q+zn5Y2uBsvFLw8cACprzsfij/4q/+L9/iUW+G+E173P8p//wf5IAWulCHcfNpy4AACAASURBVPyDwATwv0QXY1pytbEFkI3vXHDxJVz3XcY/rjmN+XsuwS8yCUVVTVyN1dImRAYswY7Yp1BpFMiPD8Rs/3NoFwoR7f01vl58GNVyNUTN+fD49BeYuuLYQHrWNFzKbYFG0o7csipIpVJ0txRi9cxpuJzbguZBa7mSAJIAWukj4lDFDv68O9SJ0ckQASJgJPBWBfB5sxhfJArwVaKA6yJkS0OxWf/7FWwyaN1YLvfvv8TyrQno1GpQ/fQM3Gf8EX/842T47T0C3wWTMcXrAOrEw6eJNp6PXbywx7FRg38Q2DyOcWU9aBYr4fu0mVu6i8Xy/T23EZt4G9fuPMSVGyk4k3AbqS9KuJgIK5PhMnkqYq4/4+7qvhe7DZN/8EBuHRNAZwRdzuGm/lFLexHuOXNoetkchF4rgFjcjZwnCQhZ4wH3xW744P0PX1vKiwSQBNAuvgRsvJKDP+82XlWqHhEgAmMk8FYFcIx1dLjD7F0AzQXk7tM8nE28h3/7ZiVWBUXjWU4xcl/plvUSliViygefYk3gXuzdq3seO5+Epk4mgC4ISczTC6CZ9JUc5Fw/gLmLVuDOq14oRB3Y5vH6Wq4kgCSA5q5P2j56AiSAo2dFexIBeyVAAmiFyDmyAMZcTsH28AREx93DpVuZENR3cISlXaVY7zYbMU/quDkhARHamnuhlJoRvuFCmPAcj06ugfOGWPTJtegsv4uF33xGLYD665emgbHCB9mBiyQBdODg0qkRAT0BEkArXAqOKoAPnhdgVegZxCZn4OqjQvgEn0V+aZ2OsEoOwf0ILFy6AoHB2xAQsAaRsXmQSoU4sXYxQpMGWgBNp3PQVHoDS+YtQnBgMPy3+uHLL79GzBMBmguuw2nxavCFUqQfXw7XHYk0D6AVruvhRdrjdT78HMaf1kChUI4/m7ecAwngWwZOxREBKxAgAbQCdHv8YRzND4JcoURtUzta2nvQLRSjRyiBWDJoGhiNEs0N1SgvL0eFfk1XaDXob29AZ59+v5HSWhU6m2q542tbOtHTUoUesQIapQxNza3c6jHS3lbUtvbRSiBWuK6HF2mP1/nwcxhvWtydjaBlm5BdLxlvVm/1+NF83t9qhagwIkAEJpzAhAvghbIeyFQaeo7A4FJ5z6DpbyY8phbJkH4QLIJ1wjK1hy7g3HYJNj9vwaWKXu77gS35FpzZys0CwCYQZ/OGhrxoRZeMWwhywthYMyNRZxo8JzkjVWBfa9PQ592aVw2VTQTeDoEJF8CvkwTgpdTTcwQG316rIgF8O9f3O1OKrQsgWz3mD5cq8OtzZdwUQhfLe/CLs3z8KaGSk8KVqY3cZ+KzhEqcKO5ymLiRADpMKOlEiIDDEZhwAWTdPvQYmYA9do1Ri8DIMbX2u7YugKx+XyYKkN4k5iaCZ5OHf5UkwPasNiy8Vwd2fc29VQu2nLRuRWkd0c7i+zif+AgZDy5gz45tCAkJwRN+p+5NrQwF989z27ft2IGLaWXcdo1ahYr0i9i3axvY9svPBGC5dtfk4WRYMLZtC8L2cw/RWJmLU+eS0CSScyvPVDy7iuOJGdzk4mpFB5IT4vGqWQSNSjmQ37YdOB73BL1s5ioAtZnxuHT1Bi6cPYq4B8VQaJVo4j9D9F5Wzh6cu3ocrl9RC6COFv1LBIiALREgAbRCNEgArQDdwYu0BwFkyz/OulmDfznLh2H1GLZUpMfDBk4AWQshm1/yWbPYGC1+gj/+8Z8+xr64Byjml+Ph+V1wXr4B2Y1yaHsEuH7nHvKK+ch/cR2ert5IE/Sg8ulpLF22FQ9eFiO/4BGSUiog6ytFsMdSRF9/Cn55FuKvp0Nc/xKr5jojoZCtSCPEGf9J+NXnvuD3SCCqu4tVLquQ2yrF0wuhWOYdikd5xSjJf4FQr7lYG/MAIqUWaeFO+OfP3ZCQXoDa1n40ZZ3BAt56XH6YjfLybMQGLcH7H06lLmBjROkFESACtkKABNAKkSABtAJ0By/SHgTw++vVyGqVgK0hHVPcxa0HzlaUiSzsREJFL/7b8RL8TXQxTpYMdAHzE7bga6dNqNQPoVOKu3HAaxr23S6BQqOCuK8JN04eQIC/L774hE0MzkdJShgWzFyBzKpOyJRqLvLi7jys+2YSIu6UQihV6FsZJUgOdcX6c9mQ9RQj3HcBVsz2xPXSLlTf3Adn3wtoFhbDz3k6kvJa9cdo0F6QhBmz1oLfLUFahBtmrzqFbq6UPlza6ATv8CfcnJZsU1/DXTh/7UQC6OCfPzo9ImCPBEgArRA1EkArQHfwIm1dAFnXbl2fTrx6ZGr0ytUo75GjslcOpUbLzQ1pSGsH9QHzE4Ix3T0Krfr4qQfNGynIvAjPpQsQlfCYa5nzmc8mBq+EQiHCvWOb4ObugjneIcgqa4Vao0DFo1is9XTCHJ43jl7Ph0SlQfOTY5jnE4UXKeFYszsJj874YntCOuKCPBGaVII+EzdxqBqzsHjqaqR1ioatPd2KKPfpCE7gG682GgNoREEviAARsDECJIBWCAgJoBWgO3iRti6AY8XPTwjCN067UCPX5SDvFSDEaz6OPyhG6jEf8IISIFIA0u5y+Dp/xU0MrtToB+gpe3H3oA+mroxBq0IDtVoLaJRoeHoSk77m4WlDH/qbnsN7wQysd/fGifQmdBcmYLHrKizwCMbTJgkkPeXwnTMd5zMboWtL1KLhRTxmL/JHaZ98mAD24KLfPCw78ghcdbUadOSdw7dfzKYWwLFeAHQcESACFiNAAmgxtOYzJgE0z4beGRsBxxVAf/zzz77G7lPX8SwzEyeC12JtcAwapBLw74ZhppMv7j9OR1xUAD76va4LuODlAyTF30VmZiaO71yLdWE30CoqxcVjV7ltdy6GY4XfDvB7FVBJuxATMB2fz90BfrccbMWaNV/8C75cdxJdMg20KgmexgbAxdUX1x6l4enD29i2ygvhN3K4eSeHLj2oRf3Ts/hq7hJEsPLT7yFiyyL864fTSADHdlnTUUSACFiQgJ0KoBYqhQxKlf5/+hMOyLL5kwC+OWCdr1KQ9KTEOJbqzUe823s4rgAGY/rCXbicFIsD+/cjIjoZTfpxfVD2Ik2//dytdKTfOo/8ug60CzJwYv9+7N+/H0cvPkSvSgO5qA5XDx/itu2POIP8uh7dmD6NEo2FD3DtYT5UGi00SikKH8Qi+XmZfslCdl0pwU9LwsED+7H/YDguP6kwXpd1+SlIejqQZi2MLL9IVn7EGbx4VYA7F5JQ16OwqwuU7vq3q3BRZYnAmAhYVADZxK/ZrRJujA+/W4bMFjE39ofVtKJHjheD0j+u9mLcObwKGyLuYuLm1xehrlwACbdqkyXyHzhDRxDAMha/VgnYBL7dMjUXWzaGiz3YnG8stizGgx/i7kZUN/YO+mEd/O7Q1/xr27Fg+7V3bkm3oRRGn3JoARw0BnD0RGjP8RAgARwPPTqWCNgHAYsJILvL76+OFuH/OVaMc/xubpqHv4gsgvOdWqQ1ivCbC+X4y6NFcE+p5yTix+FSgv/sFhLTBv3P+8dl8Nre/bW34DWdhzxutPnE5z+4QHsXwKJOKX5zvgw/iSiCy906nHrVhZ9EFuFX58qQ2ybhpvX4z0eL8Lu4crzqMizxJkfGuY3wCUnkxmwN5mHqNQmgKSrmtzmqAJZd3Ym5njHGm0DME6B3JpIACeBE0qS8iIBtErCYALIvkDVPmrA2rYmb+NXrUQOOFXdhWnI1NwcYE8OMZjEEvQOtRGpZH14VVKK5rQ65mZnIzCtGr0SJvrYaZA9KM5SiFj4q6jv1a74q0cIvQhbbJ7MAdY214Fe3c1063H5VdXhVlIvSWra/AjUlOdxYIEP+bGqJ9IQd+OazH3D6ZibKmoXD8teVl53F8s9EcVkzDMu7c/nXNqL6VQFeZGaiQF/uSOG2dwFMquzlVnA4kt9hnNONxdkntZGL7U9jShBZ0Mm1APYpdEPnRY15OLZxNmZ67MDjbF1cDXE0xXWwALL4FOVmorZT195rvB5yCtEuknNdeWOJw0gxsrf3HFUAlaIu1NR1c+Pt7C0m9lxfEkB7jh7VnQiMjoDFBJAtB+eX3gyfx41cK5Hb/XqEZLXhm6tVRgHMaZOgWqiAWj/vg0iQitl/+hNWbt+HQ/t2YznPCd5rAhAavBO79en1kSncTP3GwddaNcqfxcF1vicCt+/CwYOh8HH6Ft96R0MoVSMt0hX//r07tocd5cbu9FQ9wM6gAOzfvwdrfNyxJTIFbY0ViN29CB/87hOs3RGBq7lNg+7u06A27z42enrCLyQUe3btwRInHs48E0CuAZf/7ya7YeeBQ9gXtBYzXRbjcVnPiPTtXQBZ/dlcblszWsCW7mKT+rKWXN79Ohx52YK/jypARG4rqrolkOrHada9vIYVsz/Bh5MXY/vRCyhr7RuRq0EAhbI+XDu8Dot8NuB+WS8kTVnY47sM6/1DsWntMnjtvYhuiWpMcRgxSHb2pqMKoJ2FwWGqSwLoMKGkEyECZglYTAANLYAeDxow/04t1/X7i1g+Jl+twjWBkOsa/sdTpZwcsnFk7MEEcM7nP+BkWg1U0KIl6zy+++DLIekZc1ejtEdiFLQecT12rpiHsFtFXGugVtmLq9vdMMUggEdc8Z37HtTpF5jXyPtQ19SEguwMJJ8MwNfz1qFSKIWQnwCX6e76LmAMyX/XKheEX8/nBn5rtUqUJO/GdF4I6tk0EEdc8LmTP151KwBNP+KC5sL7+DN9y6Rp7o4ggGwN1/257fjfp0s5AfwfJ17hV7vvYv6mcMz0j8LSkBi4b4nA05f6OdHUUqRGe8NT3wWsFNdjJK5MAJ23xiIhehM81u9BYasYUPciPmQxVoXdgphN69GSBY8583GztGdMcTAdHfvcSgJon3Gz1VqTANpqZKheRGDiCFhMAFMbRNzNH7V9CtyoFuJmtRD7X7Yjt13KddmxbSxtHCOmF0DnSZ7cBKvsFJkQmksbWgBbX5uoVYG8xBC4GAQwyh3OwQm6mwm0GgjSziIkZCO2hexE4OqF+PfvvcEfQQBfzx9Q1Gdi0Q8rTUwEOyCO+oULTEbK3gWQdduXdcsgVmpws7qPe81i6XU6FdfuPkbY8cs4cuIybj98hvSXuvVZMUwATU2QO5grPykIv/3oM/z6OyekVOhv9REJEDD7T5i+dAuCg4MRvGUNvvvkAxx92mkUdgN3w/VhSJsMhANtJAF0oGDawKmQANpAEKgKRMDCBCwmgGOp90jCx/Ib/L7hB761MxNek+fgTql+WgcokHluI2abEkBxDfa6f4fQS7lcC1JTTjx+cHqTAObCZ+rg/IFe/j3MnbUWOWwpqMGCiXdDAM3F9u7TPJy+ch8fz9iA7WEXkZnHR3F5o2731wRwZK78qyGYs9QXq7xdEHT2EdftD2kdDvC+xcbjD1FRUcE9KysF6Ja+zn14XMzV2VG2kwA6SiRt4zxIAG0jDlQLImBJAnYvgD2iZhxeMRUzgi6gpbsfwoYcbJr+O3xsSgCVjQhbMg3+5/Mh7uvGlX0L8a9f6gSwr+E+3KcswONyIZRqrVHshLJeXAhxwULfGFR19OqPW4OVhxMhHbSfoaVpNOJh7y2A5i5IJoDRlx/gwo3nuHz3BcJj76O2WT8eUiND9oXNcF0bg1ahDCrpyFwNYwBbqjOxxGky1sU8QI9YioJLwZi2/jCqOqSQStuRnVaILtHwFRleF0JzdXaU7SSAjhJJ2zgPEkDbiAPVgghYkoBNCaC0IRc7/PahQCjlznmkdO61vQg6lQqJVgtZay52b/CBB4+H1SERiNnhiYXrTqFPpoFxPy5HDRqyk+C50B0eK1bj0OGdWB94EHViBbTyLlzd7wunJT448ah80HFaKEQNiD/gD08PHtyXLsf2o5fR1Keb3mRo/hh0nPmwOaoAZuaXY/3us4iKf4gbqUU4fPoe8l/V6EFooWzNReBaL/D89yG7pndErlVp57DtzFNItBp0Ft3C2pVeiLj2EpK+Zpw/uAEui3jg8dyw5+wj9Kte5z48Luaj4RjvkAC+vTiy2QpK8ishNExI/faKHlJSW0MV2vt1d8EPeWMCEiSAEwCRsiACNk7ApgRwrKxUKtXAocp+3DnqB9/DdyHV3Vsy8J6NvHJUAbQRvO9kNexBANlKG+yucKVGy8WIvTbcJc42DE/baiAHD0WZ2DpqoZRJRzVRuloqRHTgMm7tY0t8zZEATmxkKTciYIsE7F4A2f/G7ydE4uy1VGRkZODWiT3grQ9Aalm3LfLm6kQCaLOhsduK2YMAHi3s5CYLX/6ogZv+6dPLlfjj5UputaCMFjE+Tajk5pdkqwfZ8sNiAqhuReym5UjI6nzj6ZMAvhER7UAEiMAbCNi9ALK1N5uK9Gtv7t+P8KiLqBAOahF8AwBrvE0CaA3qjl2mrQtgl1SF/3nyFTclFJsonM0d+VWiAAEZLWBTRbEWp3+PK+emFmLTRBkeGqUMCqUSMqkUCv2ckmqlAlKpFFKZ3DjdklalgEKp4lrQuPfYBORaDRQyNlZUCql+QnIu38Hb5WzCKd1DqWBzkqohZ/tLpdxYYGhVXNnG9KCb0VLbenR5S2UYsiy52fzl0KiVQ+ptOE/2V9ldgkDnSQi73zCkvkq5/hykcmPr4HABZJxkcv16wyOVrxk4H9Yia+5BLYDmyNB2IuA4BOxfAO0wFiSAdhg0G6+yrQsgq9+MGzW4W9sHr4cNnAB+FF/BrRTkeq+OE8BZN2sgUmogUw2ISVbcJizzDUBwSAA3BlQma0bCoc1wX+AGF3cfHEx+CblaA8GdcCxZGYxDuwLh6eaC2d7bkPboHg4F+2GJPl3c0MdFsa8uA0GrVsDdbRHcvPzxRNAO1pNwPng1VgUfQJD3cvCWLMT6AxfxMPE8Niz30qXDk9Ev1+hnI5iF3cePwN+HBzcXd/gfPIvaHt36QKbyZ6vZHPF3xfrtu7Dcbxcel7YZ5ZVVir2fdMgD7/3Pv8NH3y/E+qPJEEqlqH/5BDvXL4QbjwdXJy/siL6GFokKgwVQJu5G/C4veAQeRmmbDCOVv3HPIWxasQyei50Rci5Vv/b56xc3CeDrTGgLEXA0AiSAVogoCaAVoDt4kfYggP/9eAnXAvh3x3QtgB9fqoD340Ysvl+PRffq8A8nX3F/jxd3GaOVdmQ+fv/dCrxkE4FrZciI9ceClXtR1yOHkH8bTk7LkNPQD37CZrz3kRNuFrVCqxQibuMUfPLV0oF0wFz4RD2BRNqIyK087DiXDpVGgYL4IMz2j0W7UIho768xyT0MNXI1RM0F8Pz0l5i2ImYgPWsaLuW2oE+Qiqkf/Qyeu5PRowCUwiZErP8em2JzzObf0t2JkNn/irm7rnCzBxhPcPALkQDBzpMQlabrAhbWP4P3wsWIuF3MTUIv6ShFKO977L5TahTAo/fycft4MHhrdqK4m4mh6fPTlf9P+HbNcbQrNOitTMH0WfPwoKJ/cA2Mr0kAjSjoBRFwWAIkgFYILQmgFaA7eJH2IICh2W3okKqwK7sNlyt6MeV6Nfd83izmJoRn6anJ1cjv0M0CwEKWdtQdTv5x4NruxNXYteg7eB+4xo33zXhwCe7f/hnHn3eCnxCMaYuPoFmjC3Rx/JbX0jOWnUBlRTJcvpmKY1efcnncOROMyVM8kFvHBHA+gi7ncLKllvYiwnPW0PSyOQi9VoBuQSqcJrniboNh8ieAlTdS/tnVnQhZ+jUiH5bD7E0bQwRQiYJr+zB/eRg6jXezaVGasA2zVp1FG7sJZLMr5rrMwgyP9ciq1Y2bFJo5P135XyHsPp8rXyFqQwDvGxx/Wm2yPiSADv6FQadHBACQAFrhMiABtAJ0By/S1gVwrPiHzKsprkLgrI8x22srDhw4wD2PHD2GvGYlJ4DT3aPQqi+ICaGpdHlZEn748FOsC9Ydz/I5HncNzZ1MAF0QkpinF0DzaSaAzpOW4kmHQQC1KIkPxIwl0TCXf0NbJ0I8J4181+4QAVQg/+p2OC+PRO8gAaxK3oOZS4+hiQmg3xxMnfkDvvTeC36bbloqoZnzG16+QjRyfUgAx3rF0nFEwH4IkABaIVYkgFaA7uBFvhMCqBXjzsFlWHr4pn7smhIttW2QqTSjFsCarlKsd5uNmNRaqLnWQhHamnqgZEL1IwRw7lffIOpRBdioP6W4GZHr3bHhdDr6zeQve4NwcZentBq7XL7FkYctALToKL6KRS5L8bCkiRsvOLgcuX4amKM3nuJUqCdmrtqJkiYRpKMsnwTQwb8Q6PSIwCgI2JQAajVqSKUK4115o6j/qHfRKAfuIhz1QRba0VEEkA3VF8nVSBX04sSLFu75sLIH/XKznVwWIjqWbDVQGO6aHMvhNnaMowpg+okVWLQjUbeWN7vearLgu3whvHyDEBS0AYEHktAm06Ds6i7M9YwxtgCaTavlqEo5CleP5dgaGIQtW1Yj8lweZFIhTq5bjNCkgRZAc+meqqdw/mIy3L23IDAoCBtWrMSagGOoYxNDm8lfLOrELp8fEPNEYLLLVXc5SfDiZABmLvXDrrjHEPZ1IvVKFHhuXvBn5fhuwJZdZ9CoVHNjAE/uWMnlJxM24XTwQkz12Y+symZUmji/4eUzARypPtQCaGMfcKoOEbAAAYsKYE6bBD1yNdRaLYo7ZchoFqNVrESXTMW9zmwRg83/ZZgYVlzzHGvcA5DVaehambgzzrqwCRuj7sIWZhhzFAGs6ZJh8+0afBVdiE8j8vFJeB73OuBuDWq6ZdAO3Mw5cYGcoJzE3VkI8NyI7DpbuCLGf1KOKoAyYRvq2voH7pjVaiHvbUFlZSX3bOrU3cSgFHWjtr4bhgmgRkxrVGhtrNXlIaji1pJmU8aIOhvR2a/rSh0prVUr0NrYij5RJ6q5elQPHMdCaSJ/rVaD3tYa9Er0U7WYCblGJuTqVdWkuxFEq1Gis053rpWCQcez+nY1G/NTirpgfH8U5b+pPiSAZgJEm4mAAxGwmACeLe3Gv5zlg8lObrsEWzNasCOrFaueNCK3TYIDue3YndOG769Vgf14scfYJljVoD7/PpIflECfjcnwDBlLZHKPt7fREQRQKFPD/3Y1Pjicyz3/dLQI/rcG0uuTq9AzUkAmCLdSWo3b8dfRZPpmRrOliDrT4DnJGamCH/efjbGWZ7YiE/SGowrgBOGxsWz6kZVwCqFBrBVT99y2fSdSiljXr208SABtIw5UCyJgSQIWE8BqoYKb64vJjlythVChRptEhWWPGtAjU6O0Wwa2MgB73/AYkwCqZUg7sQbLQhIhGuE/1ySABspj+zv8ByG5pAt/jiwYEMCoEiQWdRrTnx8twG2+5VdjEVYkwW26O/IMo/9HeXpjFcCxljfKao15NxLAMaOzwoEaCFsbja2YXGumQIA2tqi1jTyGf95tpFpUDSJABCaQgMUEkNWRyR17sp7AdqmKawVkLYNsAvpbNX3Y/LwFh/I6jOuB6gTQHZeepSBqTxACA3bi8pNXkHDfi1q0V2Rw24OCAhFy6ja6xErUZ8bBZ9b7eP9LJ2w9dBolzf1QK/uReycWu0OCEBQSgvj0SjABnOsXjqvnoxASGIDAk7rjJ5DlqLNiTNhqCIaWz1EfaMUdh/8ghD6ow4dhutY/1gr49fFXQwTwo7A87HpYP6TGpuJSk3ERFxOTcf5MJC6kFEGhkYOffg17goIQsDMcT8rbue4/tbQVySf2cS0mAQeOIbeuD/1NJYjcPBu//Kdfw2tjKBIyqgAzx0OrRFNpuv762Y3YpBi4fmW+BXDU5Q05Q+slSACtx94RSx7+eXfEc6RzIgLvOoG3IoAN/UoEZrTgZnUfZGotJz5sbKBYqcGSlHqjCDEBnPL7f4Zr0GnklFaiKO0afJf8gKiUKmiUYhS8uIf7GcWorMzGoVUuOHi1EOLuWpwNdIHzmkjkl9WiXyzC3egNWLQxDDlFpSgofIyrKZVIC3fC/35/Fs6l5KA8+zY8nSZj781Sq8TfEQRwe0odPgrLxfuH8+AWX4FD6S04k91qbAH88HAuQlJqB/iqZWbj8rM/L0bisyLUtfWiOu0EPFdswq30QqQlHILzihBUdckgrH6Gy/cyUFlZipsxW+G+PhqtQhFKH4ZhxvcuuJ4pQH23GLVmjm/OOg0X3nokPMpBZeVLxAYtwfsfTjXbBTy68gbmqxs4Ueu8IgG0DndHLZUE0FEjS+dFBAYIWEwAX7ZJwEvRzfAfWdDJTfjKJHBndhuSBL3cclB+6c0IymzhuohZlZgAzvnyB1wu1S3ZxLblnluP2WtjwToTFfJe5N09h10hQVg05QNM3ZwAkVqK1GhveOq7gGW9RQhwm4fbr3qG3E2cFuGKaSuOoI3rJlbi7kFXLNx/m5vzawDH23nlCAJ4qaAdq65W4kRWG869bMWss6X4JDzfKIDs9bmXbUag5uPihtmrT6OH7SlvRtiyqfA9l6tbY7U5D2vnTEXsyy6olRI08p8hancg1ns54b1vvcEXSiHkJ8DF0AVs9vgaxG+cB++IJ8Z49zXchfMkJ7MCOKryjGdn/RckgNaPgSPVgATQkaJJ50IETBOwmAD2KdSo7JWjSihHv0LDvTak2SLkee1S3Knp48YDGqpmagygYULXhh4Bdq/4DusOxqHgVTkubJsD5+DXBdDcGK3hYwCHpw11eBt/HUEAW/sVYHf7Op8rxcdH8oziZ7gpxCOhHE3CgUGZo4qLSAD/Kb/HH79fCB6PB567G5zmOSMxrx23DnrCdf123M8swfOkw5g014QAmju+oAJR7tMRnMA3hnfEMYBq2ejKM+Zm/RckgNaPgSPVgATQkaJJ50IETBOwmACaLm7krUwAnb6eg+Qq3c0DWo0E9w55Y2FAIprKrmD+tMXcYH+2/VqoC+YF6ATwyTEfLN12hbsJpL/pOXhzFFy5iAAAFnxJREFUnHCzxHBziRpqtYYbA8gJo74KJIAjx2L4u8N/EDRaLV429GPRxTKjALJuXyaDbBtbn3XwNDCjiouyHad852DL5WJ98Voo5SpoxQKEOE9CZGoHN0FuVdopfDtLL4BlV+Civy5g7nj04qKfE7zCHkLOctZq0J57DpO/mG26BXC05Q2HZMU0CaAV4Ttg0cM/7w54inRKROCdJ2BzAjjl9+/DfUsMUp4/x61zR7DScwNSansgasvG8plO2B97B/cTY7D0259jGusChgL824ewcEkgUjIK0N3TgeTwVZjqEYz7j9KQkhKPG4+qSQDHeamb+kFgglffK0dMZgvWXBdg7XUBTma1oLZHBjW702fQQyvvHUVctGhIj4XzsnWIu/Mcz5/fwpkzKWjta8alYC8sCY7Fk5SbCF31LX7+pU4A2XWxfu58RCY8Br+px/Tx/XJu+1dzlyA87g6ep91B+JZF+NVH00wLoLZzlOUZ/pMx6ESt9NKeBJBdGd0SFco7JChuEaO6SwaZUr+Ir5X4UbFDCZj6vA/dg1JEgAjYOwGbEkClsAl3k+4gJ+8+og4exMGDJ5BZ3qYby6dRoqnoIbf9aOwVPEu9javplboxXZIO3Lp8CgdPXER5mxiABHm3LuPwwYMIj4rh1gqtL3gwsD+A4em3GUhH6AIeG683x4VbSSHzOg5y8T+Im5nlUGsBaUcZzh85jLDIaNzNyMPNu48gZGt5sZUX2P7hUbie1zyQHnY8Bl0/B4/GIqu0EHfjrqK+Z6CbevA5jbq8wQdZ8bW9CCD7j0FWfT/WJVfh62O6CcSnnyrBvtQG1PfoJ2G2IseRi+7D87gTeFjQPPJuDvAuCaADBJFOgQi8gYBNCeAb6uowb7+7AmiLIRShPCcLz5+zFkfdMyv/Ffrl9tUiZQ8CyFr+0qqEmHmmhJtCiA0XWHKpnFtB5g9H8rA2WQA2ttTyDyVaSgvR2stW8v0xj9bXxpKO7uixlje63C2xFwmgJahSnkTAtgiQAFohHiSAVoBupki5qB7Xj4QZWxxZyyNrYTbXMmgmG6tvtgcBbBcpsSKp0njD0G8P5eNyYRcmHSvktjEJZMMJFCoLy7e8DvsWTUF0mm65tdEHb4wCOObyRl+zid6TBHCiiVJ+RMD2CJAAWiEmJIBWgO7gRdqDAGbV93FrRRvuFB8ugGy7axwffXL1kGjJ+tqQn6VvoS1tgLivE4WvqtBQW4rn+VUQM2FUdKM4+wXXivuqpkO/drAa3TUleJGhO5bfpBuz2Zh/FZ7ff4oNR+/ieWkDFGwogcnjWTUUqC7O5vLNf5WJQ25D7yYfUlH8iPKGHmhzKRJAmwsJVYgITDgBEsAJR/rmDEkA38yI9vhxBOxBANOqesFa+ZjofRZZgHnny5FR129sAWTbfzhZDKFsYEk0aUsOdgduxKaAEBw6FALv0AuoeBqPbz97Hxv37cOxS4/R09+MKwfXw33pJuzbFwJX7yBkN/QD/bU4GbkXoXsOYO8+f7itPoiypm68uByIb37zM8xdHoTjNzOhEJk+XittRVLUdqxYsRqHDh3C7iA/fP/ee9g8aDqhIVEaZXkqNqjVxh8kgDYeIKoeEZgAAhMugNuzWvG8WUzPERjsyGqzy6XgvkoSUFxHiKs1r/vkKiH+Oqp4yNraE/D9MK4shv9HJ7exH9NOFWPRxXLEvGjFrseNmBtbOmRJwaWXyyFSGFoAlUg55IVlO+LRwUmhBv39ErTmJWLK5zOQLOgCoEbZg6OYv2onytpkYHebX9jqhnUxTyFRqNDb34Pqoiw8vncFC779Eqee1UAtEiDYeRKiuC5g88dXZlyEi/t6PKsTctMPqYRF2PjDnxBoTgA1oylvXEjf2sEkgG8NNRVEBKxGYEIF8B9PleIvI4voOQoGjBVrtbGXh9v9OorrKOJq7eufrbJjK4/hAtgrVSHsaSMinzVhYRwfbN5IQ3cw+/tpRD7i8trB5pjkHmbGzjEBnO6imwYI+pWAPvvSCVsCAhG41R9LZn4C99AkNFbmImL3amz088f+vbvw7VdfIDpVMFQAzR4fj6fxIXDxjoZQahDSkccA9taOojxbCc4b6kEC+AZA9DYRcAACEyaAbNo3Qa+cnqNkUD1olQx7uI7aJCqK7Shja83PAVt1x1YewwWQ1auwWQTXi3xuHenB8sfuCGYry3SIBt2ZK63DwaXfY+/d+iGnNFwAn5/1wwyvvcgtqYBAIOCeze0dSD+9CbyN0ajqUnHdvAFuX5sUQJPHd3Wh8PouzHbfj3ax/j9qynrsXPi96RZAtWx05Q05E9tNkADabmyoZkRgoghMmABOVIUoHyJABByDgCkBZK17pW0SbE+pw/TTJdxNIS4XSnEqqxVd4kHyxyFQouDyNnzmuQPZgnZIJO3IyROg5tmlgRZAaCAsuwdX1/m4V9AMiUSEKn4xKgRNeBG3BVOXHERjZx9ePYjA57//QCeAykaEL52OXVfLIFEoTR9f3YGesntwnjkd4fcLIRH3g//gJD755c+wyVQXsEaO7FGVZ2hNtO0YkwDadnyodkRgIgiQAE4ERcqDCBCB1wiYEkDDThKFBq19CjQJ5WDTwyjM3BihkXXi/oWDWOGyCDzeYuyNS0PTq1QEhh5CnVg/Z6BGhbIHJ7FoiRd4PHds2BmGV80KqIR8HPRbCQ8eD5v3H0XgxtW4+rIBGmhQm3oW892WwDcqGX1imcnjoVGhMjMBngvdwfPwxqEL8TgauAGnU+sMpzHor3b05dnB0A8SwEGhpZdEwEEJkAA6aGDptIiAtQmMJIDWrtv4ytdCKZVCIpEMeaqGLX84vjKsezQJoHX5U+lE4G0QIAF8G5SpDCLwDhJwXAHswf2o3VjG44Gnf3r6rMW1l00OE2USQIcJJZ0IETBLgATQLBp6gwgQgfEQcFwBHA8V+ziWBNA+4kS1JALjIUACOB56dCwRIAJmCZAAmkVj82+QANp8iKiCRGDcBEgAx42QMiACRMAUARJAU1TsYxsJoH3EiWpJBMZDgARwPPToWCJABMwSIAE0i8bm3yABtPkQUQWJwLgJkACOGyFlQASIgCkCJICmqNjHNhJA+4gT1ZIIjIcACeB46NGxRIAImCVAAmgWjc2/QQJo8yGiChKBcRMgARw3QsqACBABUwTMCSCb9LmwWYxzL9tw9HkTEos60CiUw7LT6Kkhl+knjjZV2XFt00IhlYDmARwXRDqYCBCBt0yABPAtA6fiiMC7QsCUAIrkahzLbMbUk8X4JDwfn0bk408R+XC7WIZUQa/FJErc/QJbPfyQVSexAP52XPBbhqi7lRbI2zpZUgugdbhTqUTgbRIgAXybtKksIvAOERgugKyFjLX6fRyehw8O5+KDsHxsT6nHl1EFXHraqRKuZVBrAUaizjR4TnJGqkBkPnetEM/ijuNFRa/5fUy+04oo9+kINrVGsMn99RvHXN5ImU7MeySAE8ORciECtkyABNCWo0N1IwJ2TGC4AAo6pZh/vlQnf4dz8dtD+bhc2IVJxwq5bR8ezkXQvVpIlZoJP+tRCaC4CjtcJiMqrfNHlj9GARxzeT+yemPYnQRwDNDoECJgZwRIAO0sYFRdImAvBIYL4LMaIdfly7X+Hc7F+2EFQwSQbZ91pgRCmUp/inIU3j2DxIyK19JalQLPkuJw7Wk2kk7sRUBAAPYePYuaXn37oVaJxldPcXRXAAICduJMQjQWfqVvAdRKkXc3Fju3BSAgOBjnHpdCrZQh9fxWfPbrf8b3PH+EXniIXokCfQ0vEb07FAFBwTh5IxtyVhOtBuLeBlw9tgcBAUGIOH0SQS7TzLcAjrY8qeG8rR9hEkDrx4BqQAQsTYAE0NKEKX8i8I4SGC6AT6uF+CPX/ZsH5/N8BN5vwB1+N77QdwEzAZxxerAAipAQ7Az3qDQ9wYG0WipEtPcn+LdJK3AnswgVr/IRsXEO3LbHo0umQfOLk3B290Xik1xUVeXiXNASvP/hVF0XcI8AyfcfoKi0EkU5N+G5cAVSK3rQW/UAq374FKEXs1Dd0gVZWz62rPJCWFwaXuWnYs0yL8RlNUDWWYLNK5Yi5NRNVFWV4VHcAUz++b/A31wX8CjLs6XLhATQlqJBdSECliFAAmgZrpQrEXjnCQwXQH67BJ4J5Qh72oSTWa3wvVGNPxzJN3YJMwHccLNqUBfwgPDpYA6kdQL4A1YdT4Vc3+jXU3oPc6Z6IaerBfF+8+ATkQalPgp9DXcxf5ITJ4BatQr9vfW4HrMXm/3W4s8ff4joVAHUIgGCnSfpuoC1SuRc3oa5a46gtUcMibADybuXwmvfTeTejsI8j1A0SfQtdsoG7F/4HYLMCOCoyrOxq4UE0MYCQtUhAhYgQAJoAaiUJREgAsBwAVSqtYjNaYN7fJnxxg9DdzD7+82xQqRVCTFwE8iA8Ol4DqR1AuiCkMQ8GCZ3EQlS4TzJE2mdgtduyhg8BrDu+Xks5S1AzNWn4BflYKXLpNcFUC1FarQ3fvu7r7BoMQ88d3e4Ok3HtjP38PxSCFy8oyGUqvVhHnkM4KjKs7ELhgTQxgJC1SECFiBAAmgBqJQlESACrwsgY9Lar8CWOzX4LDIfH4blcq1/fwjLw3fHizg5lKkG3wCiREqYO1z23uDG3mnUbTjmPROLwtOgE8AZWH3sCSTcIVrUZ1zEbLfN4Pe1IX6jEzzDHhjH7LW9jMXkL2YjtbwTT475gBeUAJECkHTxsd7pK50AigUIcZ6Eo086AI0CRddCMWvlAbSLdC19arUKGihRlnIYP8zzR1WPlAuzursE62d/js2mWgDV0tGVZ2MXDAmgjQWEqkMELECABNACUClLIkAETAsg49IvV+NWaRc236nBqmsC7EttQF6jCIoh8qcj2Jx5AbNcvXDuVhqSz+/D3I9/ifkRBgH8Ap9MXYPLKY/x+F4ytizhIeJ2LlTQoiH9HL6etwRh528hPfUWjmxehF9/NA2pld0ouxeOWU7rcedBKmIjtuAPv9d3AWs7kRi4BKv2X0F6ST2kLYXYsc4Vu2PvIj39MeLPX0BWURuU7UUIWL0QK3adRXraA1w8GoLPf/H/mRZAKEZdnkI9WH6tewWRAFqXP5VOBN4GARLAt0GZyiAC7yCB4V3AY0GgUUpR/DgOYWFhOH0pCU8f38etwhZ9C6AL/I/F40xkOMLCjuLSjQKIDYVolGgufoyYsDCEHTuPbH4R7sdfR0OvElAK8ex6HI6EhSH+Xgae34tHYUMv1/Usqs9HZEQ4Tt5+AZVaC0NaV/4NtOkLkHaUI46VGxGNpPQivHx4G88FQkPpQ//+iPKGHmi9FAmg9dhTyUTgbREgAXxbpKkcIvCOEZgIATSHzNQYQHP7vr3tSjS/KkBGejrSBz2r241a+vaqMs6SSADHCZAOJwJ2QIAE0A6CRFUkAvZIwNICeHK9O0KTBm4CsT4jCfLvXEE4a3XUPyOijyPdXMug9StstgYkgGbR0BtEwGEIkAA6TCjpRIiAbRGwpABCq4Wkqxld/TLbOmkHqQ0JoIMEkk6DCIxAgARwBDj0FhEgAmMnYFEBHHu16MhRECABHAUk2oUI2DkBEkA7DyBVnwjYKgESQFuNzJvrRQL4Zka0BxGwdwIkgPYeQao/EbBRAiSANhqYUVSLBHAUkGgXImDnBEgA7TyAVH0iYKsESABtNTJvrhcJ4JsZ0R5EwN4JkADaewSp/kTARgmQANpoYEZRLRLAUUCiXYiAnRMgAbTzAFL1iYCtEnjbAqgUdyG/pBJipWGNXlslY/v1IgG0/RhRDYnAeAmQAI6XIB1PBIiASQLDBTC7VYLNz1vQK1ejRqjA7pw2bHvRiqpeOS5X9GJrRguCM1txnt9tMr83bWzNS8R0F2/whbo1et+0P71vngAJoHk29A4RcBQCJICOEkk6DyJgYwQGC2C3TI0tz1vw6eVKdEpViC3tBhPC+3X9CMxoQbtEBUGvHCeKuzgxHMupkACOhZrpY0gATXOhrUTAkQiQADpSNOlciIANERgsgFotIFVpsOJRAyeArJpKjRbRRZ3YntUKmUqDQ3kd8H7ciD7FQBeuWiGBXKGERCKBXN+1q1WztBhiMXvKodGfMwngxAWfBHDiWFJORMBWCZAA2mpkqF5EwM4JDBZAw6kYBJDJYGRhJ9fly1r/NFqgWqjA3pftOFnSZdgdL877wWPdZgRs24qIay8hgwgZl6OwZrkL3Hk88Fx8cCXzFWRqgATQiG3cL0gAx42QMiACNk+ABNDmQ0QVJAL2SWC4ALJWvuWPGtAkUnKtfTuy2riuXyaDl8p7uO1FnVL4PG40nnDakfl4f4oPctvFALQoubULC1w2IaehF1oANVlxmDfPE6k1/SSARmrjf0ECOH6GlAMRsHUCJIC2HiGqHxGwUwKDBVCi1LX4TUuuxpH8Dvg/a4brvTrwUuq5Fr9z/G4suFuHpQ/qkdHMZE/3SDvqDqfNF9HHJdtxctks+MfmGbt91dIuRK5YiN3JRainm0AM2Mb9lwRw3AgpAyJg8wRIAG0+RFRBImCfBAYL4JvOgI0RbJOoIJQPjP9jx6RFucM5OAEiLoM2xHhMR+ClV8bstHIhzvh5IjQpjwTQSGX8L0gAx8+QciACtk6ABNDWI0T1IwJ2SuDHCKC5UxwqgBpknvPD/A0xqO2TcV3AHfxbWLGYh1slbdQFbA7iGLaTAI4BGh1CBOyMAAmgnQWMqksE7IXARAjgs5PecAtN0rcAAtLOMoRvWYNly72xZetWeHj4IPxyFlincVthMubz1qKM5gEc9yVCAjhuhJQBEbB5AiSANh8iqiARsE8CEyGA8v5ONLSLjGP+GAm1UoKmumpUV1ejprEDKj0ejUqB1raBtH1Ss41akwDaRhyoFkTAkgRIAC1Jl/ImAu8wgYkQwHcYn1VPnQTQqvipcCLwVgiQAL4VzFQIEXj3CJAA2m/MSQDtN3ZUcyIwWgIkgKMlRfsRASLwowiQAP4oXDa1MwmgTYWDKkMELEKABNAiWClTIkAESADt9xogAbTf2FHNicBoCZAAjpYU7UcEiMCPIsAE8D8fLeJW9ljzpAn0tB8GPz/LB5NAehABIuC4BEgAHTe2dGZEwKoEUhtF+PyKgJ52ymDbi1arXj9UOBEgApYlQAJoWb6UOxEgAkSACBABIkAEbI4ACaDNhYQqRASIABEgAkSACBAByxIgAbQsX8qdCBABIkAEiAARIAI2R4AE0OZCQhUiAkSACBABIkAEiIBlCZAAWpYv5U4EiAARIAJEgAgQAZsjQAJocyGhChEBIkAEiAARIAJEwLIESAAty5dyJwJEgAgQASJABIiAzREgAbS5kFCFiAARIAJEgAgQASJgWQIkgJblS7kTASJABIgAESACRMDmCJAA2lxIqEJEgAgQASJABIgAEbAsARJAy/Kl3IkAESACRIAIEAEiYHMESABtLiRUISJABIgAESACRIAIWJYACaBl+VLuRIAIEAEiQASIABGwOQIkgDYXEqoQESACRIAIEAEiQAQsS4AE0LJ8KXciQASIABEgAkSACNgcARJAmwsJVYgIEAEiQASIABEgApYlQAJoWb6UOxEgAkSACBABIkAEbI4ACaDNhYQqRASIABEgAkSACBAByxIgAbQsX8qdCBABIkAEiAARIAI2R+D/B1CI0TU5+Qu0AAAAAElFTkSuQmCC;" parent="1" vertex="1">
                    <mxGeometry x="94" y="-30" width="640" height="691" as="geometry"/>
                </mxCell>
            </root>
        </mxGraphModel>
    </diagram>
</mxfile>